Kablammov0.9-WildLight.ufo
<glyph name="exclam" format="2">
  <advance width="299"/>
  <unicode hex="0021"/>
  <outline>
    <contour>
      <point x="143" y="247" type="line" smooth="yes"/>
      <point x="144" y="231"/>
      <point x="162" y="230"/>
      <point x="163" y="246" type="curve" smooth="yes"/>
      <point x="203" y="676" type="line" smooth="yes"/>
      <point x="209" y="736"/>
      <point x="116" y="737"/>
      <point x="119" y="677" type="curve" smooth="yes"/>
    </contour>
    <contour>
      <point x="144" y="-12" type="curve" smooth="yes"/>
      <point x="178" y="-12"/>
      <point x="208" y="17"/>
      <point x="208" y="53" type="curve" smooth="yes"/>
      <point x="208" y="88"/>
      <point x="178" y="117"/>
      <point x="144" y="117" type="curve" smooth="yes"/>
      <point x="108" y="117"/>
      <point x="78" y="88"/>
      <point x="78" y="53" type="curve" smooth="yes"/>
      <point x="78" y="17"/>
      <point x="108" y="-12"/>
    </contour>
    <contour>
      <point x="35" y="606" type="line" smooth="yes"/>
      <point x="8" y="610"/>
      <point x="6" y="580"/>
      <point x="30" y="577" type="curve" smooth="yes"/>
      <point x="267" y="548" type="line" smooth="yes"/>
      <point x="288" y="545"/>
      <point x="292" y="568"/>
      <point x="269" y="571" type="curve" smooth="yes"/>
    </contour>
    <contour>
      <point x="54" y="435" type="line" smooth="yes"/>
      <point x="31" y="434"/>
      <point x="32" y="409"/>
      <point x="53" y="410" type="curve" smooth="yes"/>
      <point x="250" y="415" type="line" smooth="yes"/>
      <point x="271" y="416"/>
      <point x="270" y="443"/>
      <point x="247" y="442" type="curve" smooth="yes"/>
    </contour>
    <contour>
      <point x="71" y="514" type="line" smooth="yes"/>
      <point x="47" y="512"/>
      <point x="48" y="489"/>
      <point x="70" y="490" type="curve" smooth="yes"/>
      <point x="154" y="495" type="line"/>
      <point x="149" y="521" type="line"/>
    </contour>
    <contour>
      <point x="268" y="341" type="curve" smooth="yes"/>
      <point x="160" y="348" type="line"/>
      <point x="155" y="325" type="line"/>
      <point x="267" y="313" type="line" smooth="yes"/>
      <point x="288" y="311"/>
      <point x="289" y="340"/>
    </contour>
  </outline>
</glyph>
<glyph name="quotedbl" format="2">
  <advance width="266"/>
  <unicode hex="0022"/>
  <outline>
    <contour>
      <point x="59" y="452" type="line" smooth="yes"/>
      <point x="60" y="433"/>
      <point x="82" y="433"/>
      <point x="84" y="452" type="curve" smooth="yes"/>
      <point x="105" y="679" type="line" smooth="yes"/>
      <point x="108" y="716"/>
      <point x="45" y="717"/>
      <point x="47" y="679" type="curve" smooth="yes"/>
    </contour>
    <contour>
      <point x="178" y="480" type="line" smooth="yes"/>
      <point x="180" y="461"/>
      <point x="201" y="461"/>
      <point x="203" y="480" type="curve" smooth="yes"/>
      <point x="219" y="679" type="line" smooth="yes"/>
      <point x="222" y="716"/>
      <point x="158" y="717"/>
      <point x="161" y="679" type="curve" smooth="yes"/>
    </contour>
    <contour>
      <point x="48" y="663" type="line"/>
      <point x="48" y="663" type="line"/>
      <point x="48" y="663"/>
      <point x="50" y="619"/>
      <point x="50" y="619" type="curve"/>
      <point x="50" y="619" type="line"/>
    </contour>
    <contour>
      <point x="162" y="669" type="line"/>
      <point x="162" y="669" type="line"/>
      <point x="162" y="669"/>
      <point x="166" y="621"/>
      <point x="166" y="621" type="curve"/>
      <point x="166" y="621" type="line"/>
    </contour>
    <contour>
      <point x="169" y="586" type="line"/>
      <point x="169" y="586" type="line"/>
      <point x="169" y="586"/>
      <point x="173" y="539"/>
      <point x="173" y="539" type="curve"/>
      <point x="173" y="539" type="line"/>
    </contour>
  </outline>
</glyph>
<glyph name="numbersign" format="2">
  <advance width="681"/>
  <unicode hex="0023"/>
  <outline>
    <contour>
      <point x="297" y="707" type="curve" smooth="yes"/>
      <point x="136" y="-6" type="line" smooth="yes"/>
      <point x="132" y="-25"/>
      <point x="158" y="-30"/>
      <point x="163" y="-8" type="curve" smooth="yes"/>
      <point x="341" y="703" type="line" smooth="yes"/>
      <point x="347" y="727"/>
      <point x="305" y="743"/>
    </contour>
    <contour>
      <point x="514" y="672" type="curve" smooth="yes"/>
      <point x="366" y="14" type="line" smooth="yes"/>
      <point x="357" y="-26"/>
      <point x="402" y="-29"/>
      <point x="409" y="8" type="curve" smooth="yes"/>
      <point x="538" y="667" type="line" smooth="yes"/>
      <point x="543" y="695"/>
      <point x="519" y="696"/>
    </contour>
    <contour>
      <point x="115" y="476" type="line" smooth="yes"/>
      <point x="84" y="476"/>
      <point x="83" y="443"/>
      <point x="114" y="443" type="curve" smooth="yes"/>
      <point x="624" y="445" type="line" smooth="yes"/>
      <point x="657" y="445"/>
      <point x="658" y="485"/>
      <point x="623" y="484" type="curve" smooth="yes"/>
    </contour>
    <contour>
      <point x="61" y="278" type="line" smooth="yes"/>
      <point x="32" y="282"/>
      <point x="27" y="243"/>
      <point x="56" y="240" type="curve" smooth="yes"/>
      <point x="596" y="186" type="line" smooth="yes"/>
      <point x="620" y="184"/>
      <point x="622" y="210"/>
      <point x="597" y="213" type="curve" smooth="yes"/>
    </contour>
  </outline>
</glyph>
<glyph name="dollar" format="2">
  <advance width="472"/>
  <unicode hex="0024"/>
  <outline>
    <contour>
      <point x="231" y="31" type="curve" smooth="yes"/>
      <point x="330" y="31"/>
      <point x="424" y="70"/>
      <point x="424" y="203" type="curve" smooth="yes"/>
      <point x="424" y="278"/>
      <point x="393" y="314"/>
      <point x="313" y="357" type="curve" smooth="yes"/>
      <point x="225" y="405" type="line" smooth="yes"/>
      <point x="160" y="440"/>
      <point x="145" y="474"/>
      <point x="145" y="522" type="curve" smooth="yes"/>
      <point x="145" y="589"/>
      <point x="188" y="644"/>
      <point x="266" y="644" type="curve" smooth="yes"/>
      <point x="336" y="644"/>
      <point x="368" y="610"/>
      <point x="386" y="610" type="curve" smooth="yes"/>
      <point x="396" y="610"/>
      <point x="401" y="614"/>
      <point x="401" y="623" type="curve" smooth="yes"/>
      <point x="401" y="635"/>
      <point x="335" y="675"/>
      <point x="265" y="675" type="curve" smooth="yes"/>
      <point x="157" y="675"/>
      <point x="56" y="627"/>
      <point x="56" y="507" type="curve" smooth="yes"/>
      <point x="56" y="403"/>
      <point x="121" y="363"/>
      <point x="189" y="343" type="curve" smooth="yes"/>
      <point x="299" y="311" type="line" smooth="yes"/>
      <point x="368" y="291"/>
      <point x="394" y="243"/>
      <point x="394" y="193" type="curve" smooth="yes"/>
      <point x="394" y="108"/>
      <point x="335" y="62"/>
      <point x="233" y="62" type="curve" smooth="yes"/>
      <point x="141" y="62"/>
      <point x="83" y="113"/>
      <point x="64" y="113" type="curve" smooth="yes"/>
      <point x="57" y="113"/>
      <point x="54" y="108"/>
      <point x="54" y="99" type="curve" smooth="yes"/>
      <point x="54" y="84"/>
      <point x="145" y="31"/>
    </contour>
    <contour>
      <point x="264" y="375" type="curve" smooth="yes"/>
      <point x="299" y="751" type="line" smooth="yes"/>
      <point x="301" y="771"/>
      <point x="277" y="773"/>
      <point x="275" y="754" type="curve" smooth="yes"/>
      <point x="242" y="379" type="line" smooth="yes"/>
      <point x="240" y="358"/>
      <point x="262" y="355"/>
    </contour>
    <contour>
      <point x="240" y="352" type="curve" smooth="yes"/>
      <point x="199" y="-87" type="line" smooth="yes"/>
      <point x="197" y="-105"/>
      <point x="221" y="-108"/>
      <point x="223" y="-91" type="curve" smooth="yes"/>
      <point x="263" y="348" type="line" smooth="yes"/>
      <point x="265" y="366"/>
      <point x="242" y="370"/>
    </contour>
    <contour>
      <point x="106" y="527" type="curve" smooth="yes"/>
      <point x="93" y="527"/>
      <point x="82" y="538"/>
      <point x="82" y="551" type="curve" smooth="yes"/>
      <point x="82" y="564"/>
      <point x="93" y="575"/>
      <point x="106" y="575" type="curve" smooth="yes"/>
      <point x="119" y="575"/>
      <point x="130" y="564"/>
      <point x="130" y="551" type="curve" smooth="yes"/>
      <point x="130" y="538"/>
      <point x="119" y="527"/>
    </contour>
    <contour>
      <point x="108" y="451" type="curve" smooth="yes"/>
      <point x="93" y="451"/>
      <point x="81" y="463"/>
      <point x="81" y="478" type="curve" smooth="yes"/>
      <point x="81" y="492"/>
      <point x="93" y="504"/>
      <point x="108" y="504" type="curve" smooth="yes"/>
      <point x="122" y="504"/>
      <point x="134" y="492"/>
      <point x="134" y="478" type="curve" smooth="yes"/>
      <point x="134" y="463"/>
      <point x="122" y="451"/>
    </contour>
    <contour>
      <point x="329" y="-52" type="line" smooth="yes"/>
      <point x="335" y="-70"/>
      <point x="361" y="-62"/>
      <point x="354" y="-43" type="curve" smooth="yes"/>
      <point x="320" y="54" type="line" smooth="yes"/>
      <point x="315" y="68"/>
      <point x="294" y="62"/>
      <point x="299" y="47" type="curve" smooth="yes"/>
    </contour>
    <contour>
      <point x="95" y="-22" type="line" smooth="yes"/>
      <point x="89" y="-38"/>
      <point x="111" y="-46"/>
      <point x="117" y="-30" type="curve" smooth="yes"/>
      <point x="149" y="56" type="line"/>
      <point x="127" y="65" type="line"/>
    </contour>
  </outline>
</glyph>
<glyph name="percent" format="2">
  <advance width="663"/>
  <unicode hex="0025"/>
  <outline>
    <contour>
      <point x="171" y="401" type="curve" smooth="yes"/>
      <point x="247" y="401"/>
      <point x="290" y="450"/>
      <point x="290" y="550" type="curve" smooth="yes"/>
      <point x="290" y="648"/>
      <point x="254" y="701"/>
      <point x="187" y="701" type="curve" smooth="yes"/>
      <point x="109" y="701"/>
      <point x="66" y="646"/>
      <point x="66" y="543" type="curve" smooth="yes"/>
      <point x="66" y="453"/>
      <point x="100" y="401"/>
    </contour>
    <contour>
      <point x="176" y="464" type="curve" smooth="yes"/>
      <point x="123" y="464"/>
      <point x="97" y="496"/>
      <point x="97" y="552" type="curve" smooth="yes"/>
      <point x="97" y="630"/>
      <point x="125" y="673"/>
      <point x="182" y="673" type="curve" smooth="yes"/>
      <point x="233" y="673"/>
      <point x="262" y="636"/>
      <point x="262" y="570" type="curve" smooth="yes"/>
      <point x="262" y="502"/>
      <point x="235" y="464"/>
    </contour>
    <contour>
      <point x="615" y="615" type="curve" smooth="yes"/>
      <point x="59" y="127" type="line" smooth="yes"/>
      <point x="44" y="113"/>
      <point x="57" y="93"/>
      <point x="75" y="108" type="curve" smooth="yes"/>
      <point x="635" y="590" type="line" smooth="yes"/>
      <point x="655" y="607"/>
      <point x="634" y="632"/>
    </contour>
    <contour>
      <point x="478" y="-9" type="curve" smooth="yes"/>
      <point x="560" y="-9"/>
      <point x="604" y="36"/>
      <point x="604" y="126" type="curve" smooth="yes"/>
      <point x="604" y="231"/>
      <point x="568" y="284"/>
      <point x="494" y="284" type="curve" smooth="yes"/>
      <point x="430" y="284"/>
      <point x="377" y="233"/>
      <point x="377" y="130" type="curve" smooth="yes"/>
      <point x="377" y="36"/>
      <point x="417" y="-9"/>
    </contour>
    <contour>
      <point x="482" y="20" type="curve" smooth="yes"/>
      <point x="432" y="20"/>
      <point x="407" y="59"/>
      <point x="407" y="119" type="curve" smooth="yes"/>
      <point x="407" y="184"/>
      <point x="433" y="220"/>
      <point x="490" y="220" type="curve" smooth="yes"/>
      <point x="546" y="220"/>
      <point x="575" y="181"/>
      <point x="575" y="111" type="curve" smooth="yes"/>
      <point x="575" y="52"/>
      <point x="540" y="20"/>
    </contour>
    <contour>
      <point x="563" y="-106" type="line" smooth="yes"/>
      <point x="573" y="-132"/>
      <point x="600" y="-122"/>
      <point x="590" y="-92" type="curve" smooth="yes"/>
      <point x="549" y="29" type="line"/>
      <point x="520" y="10" type="line"/>
    </contour>
    <contour>
      <point x="357" y="-27" type="line" smooth="yes"/>
      <point x="339" y="-52"/>
      <point x="362" y="-73"/>
      <point x="382" y="-47" type="curve" smooth="yes"/>
      <point x="430" y="15" type="line"/>
      <point x="408" y="42" type="line"/>
    </contour>
    <contour>
      <point x="128" y="773" type="line" smooth="yes"/>
      <point x="123" y="798"/>
      <point x="90" y="787"/>
      <point x="98" y="763" type="curve" smooth="yes"/>
      <point x="128" y="673" type="line"/>
      <point x="147" y="683" type="line"/>
    </contour>
    <contour>
      <point x="412" y="655" type="line" smooth="yes"/>
      <point x="429" y="663"/>
      <point x="419" y="687"/>
      <point x="401" y="680" type="curve" smooth="yes"/>
      <point x="269" y="626" type="line"/>
      <point x="279" y="595" type="line"/>
    </contour>
    <contour>
      <point x="77" y="343" type="line" smooth="yes"/>
      <point x="68" y="322"/>
      <point x="91" y="310"/>
      <point x="102" y="332" type="curve" smooth="yes"/>
      <point x="146" y="425" type="line"/>
      <point x="118" y="439" type="line"/>
    </contour>
  </outline>
</glyph>
<glyph name="ampersand" format="2">
  <advance width="541"/>
  <unicode hex="0026"/>
  <outline>
    <contour>
      <point x="231" y="-24" type="curve" smooth="yes"/>
      <point x="363" y="-24"/>
      <point x="453" y="30"/>
      <point x="435" y="189" type="curve" smooth="yes"/>
      <point x="421" y="316" type="line" smooth="yes"/>
      <point x="419" y="334"/>
      <point x="423" y="347"/>
      <point x="444" y="348" type="curve" smooth="yes"/>
      <point x="487" y="351" type="line" smooth="yes"/>
      <point x="543" y="355"/>
      <point x="528" y="444"/>
      <point x="479" y="436" type="curve" smooth="yes"/>
      <point x="212" y="393" type="line" smooth="yes"/>
      <point x="167" y="386"/>
      <point x="117" y="442"/>
      <point x="117" y="517" type="curve" smooth="yes"/>
      <point x="117" y="612"/>
      <point x="176" y="674"/>
      <point x="306" y="674" type="curve" smooth="yes"/>
      <point x="363" y="674"/>
      <point x="404" y="655"/>
      <point x="416" y="659" type="curve" smooth="yes"/>
      <point x="428" y="663"/>
      <point x="432" y="677"/>
      <point x="424" y="688" type="curve" smooth="yes"/>
      <point x="415" y="700"/>
      <point x="366" y="711"/>
      <point x="306" y="711" type="curve" smooth="yes"/>
      <point x="166" y="711"/>
      <point x="89" y="639"/>
      <point x="89" y="524" type="curve" smooth="yes"/>
      <point x="89" y="438"/>
      <point x="131" y="391"/>
      <point x="171" y="370" type="curve" smooth="yes"/>
      <point x="180" y="365"/>
      <point x="181" y="359"/>
      <point x="171" y="356" type="curve" smooth="yes"/>
      <point x="97" y="334"/>
      <point x="24" y="277"/>
      <point x="24" y="165" type="curve" smooth="yes"/>
      <point x="24" y="45"/>
      <point x="83" y="-24"/>
    </contour>
    <contour>
      <point x="269" y="13" type="curve" smooth="yes"/>
      <point x="182" y="13"/>
      <point x="119" y="108"/>
      <point x="119" y="208" type="curve" smooth="yes"/>
      <point x="119" y="297"/>
      <point x="155" y="330"/>
      <point x="199" y="333" type="curve" smooth="yes"/>
      <point x="368" y="343" type="line" smooth="yes"/>
      <point x="382" y="344"/>
      <point x="393" y="336"/>
      <point x="395" y="321" type="curve" smooth="yes"/>
      <point x="410" y="191" type="line" smooth="yes"/>
      <point x="425" y="62"/>
      <point x="352" y="13"/>
    </contour>
    <contour>
      <point x="75" y="165" type="curve" smooth="yes"/>
      <point x="62" y="165"/>
      <point x="52" y="175"/>
      <point x="52" y="188" type="curve" smooth="yes"/>
      <point x="52" y="201"/>
      <point x="62" y="211"/>
      <point x="75" y="211" type="curve" smooth="yes"/>
      <point x="87" y="211"/>
      <point x="98" y="201"/>
      <point x="98" y="188" type="curve" smooth="yes"/>
      <point x="98" y="175"/>
      <point x="87" y="165"/>
    </contour>
    <contour>
      <point x="82" y="90" type="curve" smooth="yes"/>
      <point x="67" y="90"/>
      <point x="55" y="102"/>
      <point x="55" y="117" type="curve" smooth="yes"/>
      <point x="55" y="132"/>
      <point x="67" y="143"/>
      <point x="82" y="143" type="curve" smooth="yes"/>
      <point x="97" y="143"/>
      <point x="108" y="132"/>
      <point x="108" y="117" type="curve" smooth="yes"/>
      <point x="108" y="102"/>
      <point x="97" y="90"/>
    </contour>
    <contour>
      <point x="115" y="33" type="curve" smooth="yes"/>
      <point x="102" y="33"/>
      <point x="91" y="43"/>
      <point x="91" y="56" type="curve" smooth="yes"/>
      <point x="91" y="68"/>
      <point x="102" y="79"/>
      <point x="115" y="79" type="curve" smooth="yes"/>
      <point x="127" y="79"/>
      <point x="137" y="68"/>
      <point x="137" y="56" type="curve" smooth="yes"/>
      <point x="137" y="43"/>
      <point x="127" y="33"/>
    </contour>
    <contour>
      <point x="338" y="381" type="curve" smooth="yes"/>
      <point x="336" y="413" type="line"/>
      <point x="372" y="419" type="line"/>
      <point x="378" y="388" type="line" smooth="yes"/>
      <point x="382" y="365"/>
      <point x="339" y="362"/>
    </contour>
    <contour>
      <point x="408" y="388" type="curve" smooth="yes"/>
      <point x="402" y="424" type="line"/>
      <point x="446" y="431" type="line"/>
      <point x="449" y="395" type="line" smooth="yes"/>
      <point x="451" y="373"/>
      <point x="411" y="367"/>
    </contour>
  </outline>
</glyph>
<glyph name="quotesingle" format="2">
  <advance width="152"/>
  <unicode hex="0027"/>
  <outline>
    <contour>
      <point x="67" y="459" type="line" smooth="yes"/>
      <point x="69" y="440"/>
      <point x="91" y="440"/>
      <point x="92" y="459" type="curve" smooth="yes"/>
      <point x="105" y="679" type="line" smooth="yes"/>
      <point x="107" y="716"/>
      <point x="44" y="717"/>
      <point x="47" y="679" type="curve" smooth="yes"/>
    </contour>
    <contour>
      <point x="49" y="658" type="line"/>
      <point x="49" y="658" type="line"/>
      <point x="49" y="658"/>
      <point x="53" y="614"/>
      <point x="53" y="614" type="curve"/>
      <point x="53" y="614" type="line"/>
    </contour>
  </outline>
</glyph>
<glyph name="parenleft" format="2">
  <advance width="328"/>
  <unicode hex="0028"/>
  <outline>
    <contour>
      <point x="50" y="322" type="curve" smooth="yes"/>
      <point x="50" y="108"/>
      <point x="134" y="-31"/>
      <point x="269" y="-143" type="curve" smooth="yes"/>
      <point x="290" y="-161"/>
      <point x="318" y="-137"/>
      <point x="286" y="-112" type="curve" smooth="yes"/>
      <point x="157" y="-11"/>
      <point x="81" y="108"/>
      <point x="81" y="326" type="curve" smooth="yes"/>
      <point x="81" y="526"/>
      <point x="177" y="661"/>
      <point x="293" y="731" type="curve" smooth="yes"/>
      <point x="358" y="770"/>
      <point x="308" y="872"/>
      <point x="228" y="810" type="curve" smooth="yes"/>
      <point x="137" y="739"/>
      <point x="50" y="583"/>
    </contour>
    <contour>
      <point x="22" y="73" type="line" smooth="yes"/>
      <point x="7" y="65"/>
      <point x="16" y="45"/>
      <point x="33" y="54" type="curve" smooth="yes"/>
      <point x="214" y="148" type="line" smooth="yes"/>
      <point x="234" y="158"/>
      <point x="222" y="183"/>
      <point x="202" y="172" type="curve" smooth="yes"/>
    </contour>
  </outline>
</glyph>
<glyph name="parenright" format="2">
  <advance width="353"/>
  <unicode hex="0029"/>
  <outline>
    <contour>
      <point x="296" y="340" type="curve" smooth="yes"/>
      <point x="296" y="586"/>
      <point x="209" y="728"/>
      <point x="75" y="828" type="curve" smooth="yes"/>
      <point x="51" y="846"/>
      <point x="35" y="819"/>
      <point x="52" y="806" type="curve" smooth="yes"/>
      <point x="207" y="691"/>
      <point x="266" y="541"/>
      <point x="266" y="321" type="curve" smooth="yes"/>
      <point x="266" y="134"/>
      <point x="174" y="15"/>
      <point x="39" y="-71" type="curve" smooth="yes"/>
      <point x="-37" y="-119"/>
      <point x="35" y="-204"/>
      <point x="99" y="-155" type="curve" smooth="yes"/>
      <point x="211" y="-68"/>
      <point x="296" y="89"/>
    </contour>
    <contour>
      <point x="103" y="531" type="line" smooth="yes"/>
      <point x="78" y="522"/>
      <point x="88" y="492"/>
      <point x="113" y="501" type="curve" smooth="yes"/>
      <point x="326" y="581" type="line" smooth="yes"/>
      <point x="344" y="588"/>
      <point x="337" y="615"/>
      <point x="317" y="608" type="curve" smooth="yes"/>
    </contour>
    <contour>
      <point x="122" y="332" type="line" smooth="yes"/>
      <point x="107" y="333"/>
      <point x="103" y="306"/>
      <point x="121" y="305" type="curve" smooth="yes"/>
      <point x="278" y="292" type="line"/>
      <point x="280" y="322" type="line"/>
    </contour>
  </outline>
</glyph>
<glyph name="asterisk" format="2">
  <advance width="431"/>
  <unicode hex="002A"/>
  <outline>
    <contour>
      <point x="202" y="702" type="curve" smooth="yes"/>
      <point x="212" y="546" type="line" smooth="yes"/>
      <point x="213" y="535"/>
      <point x="210" y="530"/>
      <point x="197" y="535" type="curve" smooth="yes"/>
      <point x="57" y="590" type="line" smooth="yes"/>
      <point x="22" y="604"/>
      <point x="4" y="549"/>
      <point x="40" y="541" type="curve" smooth="yes"/>
      <point x="193" y="508" type="line" smooth="yes"/>
      <point x="201" y="506"/>
      <point x="204" y="501"/>
      <point x="197" y="493" type="curve" smooth="yes"/>
      <point x="138" y="425" type="line" smooth="yes"/>
      <point x="107" y="389"/>
      <point x="174" y="353"/>
      <point x="190" y="397" type="curve" smooth="yes"/>
      <point x="219" y="477" type="line" smooth="yes"/>
      <point x="222" y="486"/>
      <point x="231" y="486"/>
      <point x="235" y="478" type="curve" smooth="yes"/>
      <point x="322" y="319" type="line" smooth="yes"/>
      <point x="342" y="283"/>
      <point x="393" y="313"/>
      <point x="368" y="346" type="curve" smooth="yes"/>
      <point x="256" y="494" type="line" smooth="yes"/>
      <point x="251" y="501"/>
      <point x="252" y="509"/>
      <point x="262" y="509" type="curve" smooth="yes"/>
      <point x="378" y="504" type="line" smooth="yes"/>
      <point x="427" y="502"/>
      <point x="419" y="583"/>
      <point x="372" y="569" type="curve" smooth="yes"/>
      <point x="253" y="534" type="line" smooth="yes"/>
      <point x="243" y="531"/>
      <point x="238" y="534"/>
      <point x="240" y="546" type="curve" smooth="yes"/>
      <point x="261" y="702" type="line" smooth="yes"/>
      <point x="267" y="745"/>
      <point x="199" y="745"/>
    </contour>
  </outline>
</glyph>
<glyph name="plus" format="2">
  <advance width="413"/>
  <unicode hex="002B"/>
  <outline>
    <contour>
      <point x="167" y="110" type="line" smooth="yes"/>
      <point x="166" y="88"/>
      <point x="196" y="87"/>
      <point x="197" y="110" type="curve" smooth="yes"/>
      <point x="205" y="281" type="line" smooth="yes"/>
      <point x="206" y="292"/>
      <point x="210" y="297"/>
      <point x="222" y="298" type="curve" smooth="yes"/>
      <point x="381" y="309" type="line" smooth="yes"/>
      <point x="404" y="311"/>
      <point x="404" y="345"/>
      <point x="381" y="343" type="curve" smooth="yes"/>
      <point x="224" y="331" type="line" smooth="yes"/>
      <point x="215" y="330"/>
      <point x="210" y="332"/>
      <point x="210" y="341" type="curve" smooth="yes"/>
      <point x="218" y="487" type="line" smooth="yes"/>
      <point x="219" y="507"/>
      <point x="197" y="509"/>
      <point x="196" y="489" type="curve" smooth="yes"/>
      <point x="185" y="341" type="line" smooth="yes"/>
      <point x="184" y="333"/>
      <point x="180" y="327"/>
      <point x="170" y="326" type="curve" smooth="yes"/>
      <point x="28" y="313" type="line" smooth="yes"/>
      <point x="13" y="312"/>
      <point x="14" y="287"/>
      <point x="28" y="288" type="curve" smooth="yes"/>
      <point x="163" y="294" type="line" smooth="yes"/>
      <point x="174" y="294"/>
      <point x="179" y="289"/>
      <point x="178" y="278" type="curve" smooth="yes"/>
    </contour>
  </outline>
</glyph>
<glyph name="comma" format="2">
  <advance width="233"/>
  <unicode hex="002C"/>
  <outline>
    <contour>
      <point x="35" y="-173" type="curve" smooth="yes"/>
      <point x="15" y="-190"/>
      <point x="39" y="-211"/>
      <point x="58" y="-195" type="curve" smooth="yes"/>
      <point x="135" y="-127"/>
      <point x="191" y="-44"/>
      <point x="191" y="37" type="curve" smooth="yes"/>
      <point x="191" y="85"/>
      <point x="162" y="118"/>
      <point x="120" y="118" type="curve" smooth="yes"/>
      <point x="80" y="118"/>
      <point x="58" y="95"/>
      <point x="58" y="64" type="curve" smooth="yes"/>
      <point x="58" y="33"/>
      <point x="75" y="16"/>
      <point x="103" y="12" type="curve" smooth="yes"/>
      <point x="138" y="7"/>
      <point x="145" y="-3"/>
      <point x="145" y="-18" type="curve" smooth="yes"/>
      <point x="145" y="-57"/>
      <point x="100" y="-118"/>
    </contour>
    <contour>
      <point x="165" y="-29" type="line"/>
      <point x="154" y="-53" type="line"/>
      <point x="205" y="-65" type="line" smooth="yes"/>
      <point x="220" y="-69"/>
      <point x="227" y="-48"/>
      <point x="211" y="-43" type="curve" smooth="yes"/>
    </contour>
    <contour>
      <point x="29" y="-97" type="line" smooth="yes"/>
      <point x="14" y="-87"/>
      <point x="3" y="-105"/>
      <point x="16" y="-114" type="curve" smooth="yes"/>
      <point x="138" y="-203" type="line" smooth="yes"/>
      <point x="154" y="-214"/>
      <point x="169" y="-191"/>
      <point x="154" y="-181" type="curve" smooth="yes"/>
    </contour>
    <contour>
      <point x="179" y="-128" type="line" smooth="yes"/>
      <point x="195" y="-135"/>
      <point x="203" y="-116"/>
      <point x="189" y="-109" type="curve" smooth="yes"/>
      <point x="79" y="-54" type="line" smooth="yes"/>
      <point x="67" y="-48"/>
      <point x="54" y="-69"/>
      <point x="69" y="-76" type="curve" smooth="yes"/>
    </contour>
  </outline>
</glyph>
<glyph name="hyphen" format="2">
  <advance width="333"/>
  <unicode hex="002D"/>
  <outline>
    <contour>
      <point x="65" y="359" type="line" smooth="yes"/>
      <point x="42" y="357"/>
      <point x="41" y="330"/>
      <point x="68" y="330" type="curve" smooth="yes"/>
      <point x="260" y="329" type="line" smooth="yes"/>
      <point x="291" y="329"/>
      <point x="292" y="374"/>
      <point x="260" y="372" type="curve" smooth="yes"/>
    </contour>
  </outline>
</glyph>
<glyph name="period" format="2">
  <advance width="174"/>
  <unicode hex="002E"/>
  <outline>
    <contour>
      <point x="85" y="-19" type="curve" smooth="yes"/>
      <point x="123" y="-19"/>
      <point x="154" y="11"/>
      <point x="154" y="50" type="curve" smooth="yes"/>
      <point x="154" y="92"/>
      <point x="129" y="126"/>
      <point x="88" y="126" type="curve" smooth="yes"/>
      <point x="51" y="126"/>
      <point x="20" y="96"/>
      <point x="20" y="52" type="curve" smooth="yes"/>
      <point x="20" y="11"/>
      <point x="46" y="-19"/>
    </contour>
    <contour>
      <point x="90" y="23" type="curve" smooth="yes"/>
      <point x="71" y="23"/>
      <point x="56" y="37"/>
      <point x="56" y="56" type="curve" smooth="yes"/>
      <point x="56" y="75"/>
      <point x="71" y="90"/>
      <point x="90" y="90" type="curve" smooth="yes"/>
      <point x="108" y="90"/>
      <point x="124" y="75"/>
      <point x="124" y="56" type="curve" smooth="yes"/>
      <point x="124" y="37"/>
      <point x="108" y="23"/>
    </contour>
  </outline>
</glyph>
<glyph name="slash" format="2">
  <advance width="359"/>
  <unicode hex="002F"/>
  <outline>
    <contour>
      <point x="319" y="820" type="curve" smooth="yes"/>
      <point x="12" y="-59" type="line" smooth="yes"/>
      <point x="-1" y="-97"/>
      <point x="41" y="-114"/>
      <point x="54" y="-75" type="curve" smooth="yes"/>
      <point x="347" y="810" type="line" smooth="yes"/>
      <point x="356" y="836"/>
      <point x="328" y="846"/>
    </contour>
  </outline>
</glyph>
<glyph name="zero" format="2">
  <advance width="680"/>
  <unicode hex="0030"/>
  <outline>
    <contour>
      <point x="352" y="-14" type="curve" smooth="yes"/>
      <point x="524" y="-11"/>
      <point x="641" y="126"/>
      <point x="641" y="367" type="curve" smooth="yes"/>
      <point x="641" y="565"/>
      <point x="537" y="714"/>
      <point x="365" y="714" type="curve" smooth="yes"/>
      <point x="211" y="714"/>
      <point x="75" y="578"/>
      <point x="75" y="314" type="curve" smooth="yes"/>
      <point x="75" y="114"/>
      <point x="189" y="-17"/>
    </contour>
    <contour>
      <point x="365" y="685" type="curve" smooth="yes"/>
      <point x="528" y="685"/>
      <point x="580" y="549"/>
      <point x="580" y="444" type="curve" smooth="yes"/>
      <point x="580" y="237"/>
      <point x="478" y="60"/>
      <point x="300" y="60" type="curve" smooth="yes"/>
      <point x="192" y="60"/>
      <point x="105" y="164"/>
      <point x="105" y="318" type="curve" smooth="yes"/>
      <point x="105" y="543"/>
      <point x="211" y="685"/>
    </contour>
    <contour>
      <point x="380" y="284" type="curve" smooth="yes"/>
      <point x="426" y="284"/>
      <point x="463" y="321"/>
      <point x="463" y="368" type="curve" smooth="yes"/>
      <point x="463" y="412"/>
      <point x="426" y="451"/>
      <point x="380" y="451" type="curve" smooth="yes"/>
      <point x="335" y="451"/>
      <point x="296" y="412"/>
      <point x="296" y="368" type="curve" smooth="yes"/>
      <point x="296" y="321"/>
      <point x="335" y="284"/>
    </contour>
    <contour>
      <point x="501" y="166" type="curve"/>
      <point x="523" y="142" type="line" smooth="yes"/>
      <point x="546" y="116"/>
      <point x="513" y="77"/>
      <point x="490" y="100" type="curve" smooth="yes"/>
      <point x="465" y="125" type="line"/>
      <point x="481" y="141"/>
      <point x="488" y="149"/>
    </contour>
    <contour>
      <point x="542" y="240" type="curve"/>
      <point x="574" y="216" type="line" smooth="yes"/>
      <point x="597" y="199"/>
      <point x="570" y="163"/>
      <point x="547" y="180" type="curve" smooth="yes"/>
      <point x="522" y="199" type="line"/>
      <point x="527" y="208"/>
      <point x="535" y="223"/>
    </contour>
    <contour>
      <point x="108" y="660" type="line" smooth="yes"/>
      <point x="81" y="679"/>
      <point x="59" y="644"/>
      <point x="86" y="627" type="curve" smooth="yes"/>
      <point x="264" y="519" type="line" smooth="yes"/>
      <point x="285" y="506"/>
      <point x="297" y="529"/>
      <point x="277" y="543" type="curve" smooth="yes"/>
    </contour>
    <contour>
      <point x="60" y="82" type="line" smooth="yes"/>
      <point x="42" y="67"/>
      <point x="61" y="39"/>
      <point x="83" y="58" type="curve" smooth="yes"/>
      <point x="245" y="198" type="line" smooth="yes"/>
      <point x="262" y="213"/>
      <point x="246" y="237"/>
      <point x="227" y="221" type="curve" smooth="yes"/>
    </contour>
    <contour>
      <point x="45" y="507" type="line" smooth="yes"/>
      <point x="14" y="516"/>
      <point x="6" y="482"/>
      <point x="32" y="475" type="curve" smooth="yes"/>
      <point x="186" y="435" type="line" smooth="yes"/>
      <point x="213" y="428"/>
      <point x="220" y="458"/>
      <point x="195" y="465" type="curve" smooth="yes"/>
    </contour>
    <contour>
      <point x="582" y="678" type="line" smooth="yes"/>
      <point x="599" y="697"/>
      <point x="574" y="720"/>
      <point x="557" y="700" type="curve" smooth="yes"/>
      <point x="451" y="576" type="line" smooth="yes"/>
      <point x="436" y="558"/>
      <point x="458" y="542"/>
      <point x="471" y="557" type="curve" smooth="yes"/>
    </contour>
    <contour>
      <point x="380" y="319" type="curve" smooth="yes"/>
      <point x="357" y="319"/>
      <point x="338" y="338"/>
      <point x="338" y="361" type="curve" smooth="yes"/>
      <point x="338" y="384"/>
      <point x="357" y="403"/>
      <point x="380" y="403" type="curve" smooth="yes"/>
      <point x="403" y="403"/>
      <point x="422" y="384"/>
      <point x="422" y="361" type="curve" smooth="yes"/>
      <point x="422" y="338"/>
      <point x="403" y="319"/>
    </contour>
    <contour>
      <point x="438" y="103" type="curve"/>
      <point x="449" y="69" type="line" smooth="yes"/>
      <point x="459" y="37"/>
      <point x="417" y="23"/>
      <point x="406" y="51" type="curve" smooth="yes"/>
      <point x="395" y="79" type="line"/>
      <point x="409" y="85"/>
      <point x="424" y="93"/>
    </contour>
  </outline>
</glyph>
<glyph name="one" format="2">
  <advance width="265"/>
  <unicode hex="0031"/>
  <outline>
    <contour>
      <point x="38" y="641" type="curve" smooth="yes"/>
      <point x="119" y="669" type="line" smooth="yes"/>
      <point x="137" y="675"/>
      <point x="149" y="664"/>
      <point x="147" y="636" type="curve" smooth="yes"/>
      <point x="94" y="31" type="line" smooth="yes"/>
      <point x="87" y="-54"/>
      <point x="219" y="-50"/>
      <point x="213" y="35" type="curve" smooth="yes"/>
      <point x="171" y="648" type="line" smooth="yes"/>
      <point x="168" y="692"/>
      <point x="146" y="705"/>
      <point x="109" y="692" type="curve" smooth="yes"/>
      <point x="30" y="664" type="line" smooth="yes"/>
      <point x="9" y="656"/>
      <point x="18" y="634"/>
    </contour>
    <contour>
      <point x="207" y="115" type="line"/>
      <point x="210" y="73" type="line"/>
      <point x="168" y="68" type="line" smooth="yes"/>
      <point x="137" y="64"/>
      <point x="128" y="113"/>
      <point x="159" y="114" type="curve" smooth="yes"/>
    </contour>
    <contour>
      <point x="202" y="187" type="line"/>
      <point x="205" y="143" type="line"/>
      <point x="155" y="148" type="line" smooth="yes"/>
      <point x="124" y="151"/>
      <point x="124" y="185"/>
      <point x="153" y="186" type="curve" smooth="yes"/>
    </contour>
    <contour>
      <point x="197" y="267" type="line"/>
      <point x="200" y="228" type="line"/>
      <point x="168" y="223" type="line" smooth="yes"/>
      <point x="140" y="219"/>
      <point x="132" y="256"/>
      <point x="161" y="261" type="curve" smooth="yes"/>
    </contour>
  </outline>
</glyph>
<glyph name="two" format="2">
  <advance width="458"/>
  <unicode hex="0032"/>
  <outline>
    <contour>
      <point x="422" y="602" type="curve" smooth="yes"/>
      <point x="422" y="669"/>
      <point x="367" y="714"/>
      <point x="252" y="714" type="curve" smooth="yes"/>
      <point x="153" y="714"/>
      <point x="67" y="665"/>
      <point x="67" y="643" type="curve" smooth="yes"/>
      <point x="67" y="635"/>
      <point x="71" y="633"/>
      <point x="78" y="633" type="curve" smooth="yes"/>
      <point x="94" y="633"/>
      <point x="135" y="673"/>
      <point x="208" y="673" type="curve" smooth="yes"/>
      <point x="259" y="673"/>
      <point x="311" y="638"/>
      <point x="312" y="562" type="curve" smooth="yes"/>
      <point x="313" y="483"/>
      <point x="295" y="410"/>
      <point x="235" y="334" type="curve" smooth="yes"/>
      <point x="46" y="94" type="line" smooth="yes"/>
      <point x="-4" y="30"/>
      <point x="40" y="-15"/>
      <point x="93" y="-10" type="curve" smooth="yes"/>
      <point x="436" y="21" type="line" smooth="yes"/>
      <point x="463" y="23"/>
      <point x="459" y="50"/>
      <point x="434" y="48" type="curve" smooth="yes"/>
      <point x="96" y="15" type="line" smooth="yes"/>
      <point x="57" y="11"/>
      <point x="32" y="40"/>
      <point x="65" y="80" type="curve" smooth="yes"/>
      <point x="267" y="321" type="line" smooth="yes"/>
      <point x="397" y="476"/>
      <point x="422" y="526"/>
    </contour>
    <contour>
      <point x="325" y="635" type="curve" smooth="yes"/>
      <point x="314" y="635"/>
      <point x="305" y="643"/>
      <point x="305" y="654" type="curve" smooth="yes"/>
      <point x="305" y="664"/>
      <point x="314" y="673"/>
      <point x="325" y="673" type="curve" smooth="yes"/>
      <point x="335" y="673"/>
      <point x="343" y="664"/>
      <point x="343" y="654" type="curve" smooth="yes"/>
      <point x="343" y="643"/>
      <point x="335" y="635"/>
    </contour>
    <contour>
      <point x="363" y="584" type="curve" smooth="yes"/>
      <point x="350" y="584"/>
      <point x="340" y="595"/>
      <point x="340" y="608" type="curve" smooth="yes"/>
      <point x="340" y="621"/>
      <point x="350" y="631"/>
      <point x="363" y="631" type="curve" smooth="yes"/>
      <point x="376" y="631"/>
      <point x="387" y="621"/>
      <point x="387" y="608" type="curve" smooth="yes"/>
      <point x="387" y="595"/>
      <point x="376" y="584"/>
    </contour>
    <contour>
      <point x="360" y="519" type="curve" smooth="yes"/>
      <point x="348" y="519"/>
      <point x="339" y="529"/>
      <point x="339" y="540" type="curve" smooth="yes"/>
      <point x="339" y="552"/>
      <point x="348" y="561"/>
      <point x="360" y="561" type="curve" smooth="yes"/>
      <point x="372" y="561"/>
      <point x="381" y="552"/>
      <point x="381" y="540" type="curve" smooth="yes"/>
      <point x="381" y="529"/>
      <point x="372" y="519"/>
    </contour>
    <contour>
      <point x="373" y="162" type="line" smooth="yes"/>
      <point x="373" y="183"/>
      <point x="351" y="180"/>
      <point x="351" y="162" type="curve" smooth="yes"/>
      <point x="350" y="-57" type="line" smooth="yes"/>
      <point x="350" y="-76"/>
      <point x="373" y="-82"/>
      <point x="373" y="-55" type="curve" smooth="yes"/>
    </contour>
    <contour>
      <point x="201" y="7" type="line" smooth="yes"/>
      <point x="202" y="19"/>
      <point x="178" y="19"/>
      <point x="177" y="7" type="curve" smooth="yes"/>
      <point x="170" y="-98" type="line" smooth="yes"/>
      <point x="169" y="-116"/>
      <point x="194" y="-122"/>
      <point x="195" y="-98" type="curve" smooth="yes"/>
    </contour>
    <contour>
      <point x="277" y="175" type="line" smooth="yes"/>
      <point x="275" y="194"/>
      <point x="252" y="190"/>
      <point x="254" y="171" type="curve" smooth="yes"/>
      <point x="280" y="-149" type="line" smooth="yes"/>
      <point x="281" y="-165"/>
      <point x="305" y="-168"/>
      <point x="303" y="-144" type="curve" smooth="yes"/>
    </contour>
    <contour>
      <point x="152" y="394" type="line" smooth="yes"/>
      <point x="137" y="402"/>
      <point x="126" y="381"/>
      <point x="143" y="372" type="curve" smooth="yes"/>
      <point x="356" y="259" type="line" smooth="yes"/>
      <point x="370" y="251"/>
      <point x="383" y="272"/>
      <point x="362" y="283" type="curve" smooth="yes"/>
    </contour>
    <contour>
      <point x="196" y="510" type="curve" smooth="yes"/>
      <point x="216" y="510"/>
      <point x="232" y="526"/>
      <point x="232" y="546" type="curve" smooth="yes"/>
      <point x="232" y="566"/>
      <point x="216" y="582"/>
      <point x="196" y="582" type="curve" smooth="yes"/>
      <point x="176" y="582"/>
      <point x="160" y="566"/>
      <point x="160" y="546" type="curve" smooth="yes"/>
      <point x="160" y="526"/>
      <point x="176" y="510"/>
    </contour>
  </outline>
</glyph>
<glyph name="three" format="2">
  <advance width="435"/>
  <unicode hex="0033"/>
  <outline>
    <contour>
      <point x="139" y="0" type="curve" smooth="yes"/>
      <point x="298" y="0"/>
      <point x="399" y="79"/>
      <point x="399" y="220" type="curve" smooth="yes"/>
      <point x="399" y="313"/>
      <point x="338" y="353"/>
      <point x="185" y="389" type="curve" smooth="yes"/>
      <point x="168" y="393"/>
      <point x="168" y="405"/>
      <point x="186" y="418" type="curve" smooth="yes"/>
      <point x="372" y="556" type="line" smooth="yes"/>
      <point x="413" y="587"/>
      <point x="406" y="645"/>
      <point x="362" y="656" type="curve" smooth="yes"/>
      <point x="75" y="729" type="line" smooth="yes"/>
      <point x="14" y="745"/>
      <point x="-11" y="641"/>
      <point x="59" y="631" type="curve" smooth="yes"/>
      <point x="339" y="593" type="line" smooth="yes"/>
      <point x="359" y="590"/>
      <point x="360" y="579"/>
      <point x="348" y="570" type="curve" smooth="yes"/>
      <point x="160" y="430" type="line" smooth="yes"/>
      <point x="130" y="408"/>
      <point x="134" y="374"/>
      <point x="167" y="366" type="curve" smooth="yes"/>
      <point x="192" y="360" type="line" smooth="yes"/>
      <point x="355" y="321"/>
      <point x="372" y="275"/>
      <point x="372" y="220" type="curve" smooth="yes"/>
      <point x="372" y="116"/>
      <point x="295" y="86"/>
      <point x="222" y="86" type="curve" smooth="yes"/>
      <point x="167" y="86"/>
      <point x="127" y="109"/>
      <point x="75" y="109" type="curve" smooth="yes"/>
      <point x="38" y="109"/>
      <point x="20" y="90"/>
      <point x="20" y="60" type="curve" smooth="yes"/>
      <point x="20" y="20"/>
      <point x="66" y="0"/>
    </contour>
    <contour>
      <point x="79" y="39" type="curve" smooth="yes"/>
      <point x="67" y="39"/>
      <point x="58" y="48"/>
      <point x="58" y="60" type="curve" smooth="yes"/>
      <point x="58" y="72"/>
      <point x="67" y="81"/>
      <point x="79" y="81" type="curve" smooth="yes"/>
      <point x="90" y="81"/>
      <point x="100" y="72"/>
      <point x="100" y="60" type="curve" smooth="yes"/>
      <point x="100" y="48"/>
      <point x="90" y="39"/>
    </contour>
    <contour>
      <point x="135" y="35" type="curve" smooth="yes"/>
      <point x="124" y="35"/>
      <point x="116" y="43"/>
      <point x="116" y="54" type="curve" smooth="yes"/>
      <point x="116" y="65"/>
      <point x="124" y="73"/>
      <point x="135" y="73" type="curve" smooth="yes"/>
      <point x="146" y="73"/>
      <point x="154" y="65"/>
      <point x="154" y="54" type="curve" smooth="yes"/>
      <point x="154" y="43"/>
      <point x="146" y="35"/>
    </contour>
    <contour>
      <point x="118" y="718" type="line"/>
      <point x="159" y="708" type="line"/>
      <point x="151" y="667" type="line" smooth="yes"/>
      <point x="146" y="643"/>
      <point x="107" y="647"/>
      <point x="112" y="678" type="curve" smooth="yes"/>
    </contour>
    <contour>
      <point x="194" y="699" type="line"/>
      <point x="229" y="690" type="line"/>
      <point x="215" y="653" type="line" smooth="yes"/>
      <point x="205" y="627"/>
      <point x="175" y="638"/>
      <point x="182" y="660" type="curve" smooth="yes"/>
    </contour>
    <contour>
      <point x="205" y="169" type="curve" smooth="yes"/>
      <point x="232" y="169"/>
      <point x="254" y="191"/>
      <point x="254" y="219" type="curve" smooth="yes"/>
      <point x="254" y="246"/>
      <point x="232" y="268"/>
      <point x="205" y="268" type="curve" smooth="yes"/>
      <point x="177" y="268"/>
      <point x="155" y="246"/>
      <point x="155" y="219" type="curve" smooth="yes"/>
      <point x="155" y="191"/>
      <point x="177" y="169"/>
    </contour>
    <contour>
      <point x="277" y="355" type="line" smooth="yes"/>
      <point x="271" y="343"/>
      <point x="289" y="333"/>
      <point x="295" y="345" type="curve" smooth="yes"/>
      <point x="328" y="412" type="line" smooth="yes"/>
      <point x="333" y="423"/>
      <point x="316" y="433"/>
      <point x="310" y="421" type="curve" smooth="yes"/>
    </contour>
    <contour>
      <point x="163" y="535" type="line" smooth="yes"/>
      <point x="150" y="543"/>
      <point x="137" y="524"/>
      <point x="150" y="516" type="curve" smooth="yes"/>
      <point x="230" y="466" type="line" smooth="yes"/>
      <point x="239" y="460"/>
      <point x="252" y="480"/>
      <point x="242" y="486" type="curve" smooth="yes"/>
    </contour>
    <contour>
      <point x="298" y="277" type="line" smooth="yes"/>
      <point x="290" y="268"/>
      <point x="302" y="256"/>
      <point x="311" y="265" type="curve" smooth="yes"/>
      <point x="386" y="346" type="line" smooth="yes"/>
      <point x="397" y="357"/>
      <point x="381" y="375"/>
      <point x="369" y="361" type="curve" smooth="yes"/>
    </contour>
    <contour>
      <point x="326" y="534" type="line" smooth="yes"/>
      <point x="316" y="547"/>
      <point x="297" y="529"/>
      <point x="308" y="519" type="curve" smooth="yes"/>
      <point x="349" y="479" type="line" smooth="yes"/>
      <point x="357" y="472"/>
      <point x="368" y="483"/>
      <point x="361" y="492" type="curve" smooth="yes"/>
    </contour>
  </outline>
</glyph>
<glyph name="four" format="2">
  <advance width="521"/>
  <unicode hex="0034"/>
  <outline>
    <contour>
      <point x="73" y="169" type="curve" smooth="yes"/>
      <point x="490" y="217" type="line" smooth="yes"/>
      <point x="510" y="219"/>
      <point x="507" y="244"/>
      <point x="486" y="242" type="curve" smooth="yes"/>
      <point x="98" y="198" type="line" smooth="yes"/>
      <point x="83" y="196"/>
      <point x="73" y="210"/>
      <point x="86" y="228" type="curve" smooth="yes"/>
      <point x="368" y="616" type="line" smooth="yes"/>
      <point x="378" y="629"/>
      <point x="395" y="622"/>
      <point x="394" y="608" type="curve" smooth="yes"/>
      <point x="360" y="-23" type="line" smooth="yes"/>
      <point x="359" y="-47"/>
      <point x="385" y="-48"/>
      <point x="387" y="-22" type="curve" smooth="yes"/>
      <point x="428" y="646" type="line" smooth="yes"/>
      <point x="433" y="729"/>
      <point x="321" y="739"/>
      <point x="279" y="668" type="curve" smooth="yes"/>
      <point x="25" y="239" type="line" smooth="yes"/>
      <point x="-1" y="196"/>
      <point x="26" y="164"/>
    </contour>
    <contour>
      <point x="461" y="63" type="line" smooth="yes"/>
      <point x="486" y="64"/>
      <point x="484" y="93"/>
      <point x="461" y="91" type="curve" smooth="yes"/>
      <point x="274" y="78" type="line" smooth="yes"/>
      <point x="254" y="77"/>
      <point x="256" y="51"/>
      <point x="277" y="52" type="curve" smooth="yes"/>
    </contour>
    <contour>
      <point x="237" y="597" type="line"/>
      <point x="254" y="626" type="line"/>
      <point x="297" y="613" type="line" smooth="yes"/>
      <point x="329" y="603"/>
      <point x="306" y="563"/>
      <point x="280" y="576" type="curve" smooth="yes"/>
    </contour>
    <contour>
      <point x="198" y="531" type="line"/>
      <point x="218" y="565" type="line"/>
      <point x="247" y="539" type="line" smooth="yes"/>
      <point x="265" y="523"/>
      <point x="249" y="499"/>
      <point x="230" y="511" type="curve" smooth="yes"/>
    </contour>
    <contour>
      <point x="481" y="314" type="line" smooth="yes"/>
      <point x="506" y="314"/>
      <point x="504" y="340"/>
      <point x="481" y="340" type="curve" smooth="yes"/>
      <point x="324" y="339" type="line" smooth="yes"/>
      <point x="307" y="339"/>
      <point x="306" y="315"/>
      <point x="327" y="315" type="curve" smooth="yes"/>
    </contour>
    <contour>
      <point x="468" y="396" type="line" smooth="yes"/>
      <point x="493" y="398"/>
      <point x="491" y="426"/>
      <point x="468" y="424" type="curve" smooth="yes"/>
      <point x="405" y="418" type="line" smooth="yes"/>
      <point x="385" y="416"/>
      <point x="387" y="391"/>
      <point x="408" y="392" type="curve" smooth="yes"/>
    </contour>
    <contour>
      <point x="483" y="463" type="line" smooth="yes"/>
      <point x="508" y="460"/>
      <point x="506" y="489"/>
      <point x="483" y="491" type="curve" smooth="yes"/>
      <point x="413" y="497" type="line"/>
      <point x="408" y="471" type="line"/>
    </contour>
    <contour>
      <point x="243" y="444" type="line"/>
      <point x="219" y="411" type="line"/>
      <point x="200" y="427" type="line" smooth="yes"/>
      <point x="180" y="444"/>
      <point x="196" y="478"/>
      <point x="222" y="459" type="curve" smooth="yes"/>
    </contour>
  </outline>
</glyph>
<glyph name="five" format="2">
  <advance width="459"/>
  <unicode hex="0035"/>
  <outline>
    <contour>
      <point x="57" y="391" type="line" smooth="yes"/>
      <point x="63" y="357"/>
      <point x="91" y="339"/>
      <point x="130" y="347" type="curve" smooth="yes"/>
      <point x="238" y="368" type="line" smooth="yes"/>
      <point x="369" y="393"/>
      <point x="406" y="303"/>
      <point x="406" y="221" type="curve" smooth="yes"/>
      <point x="406" y="104"/>
      <point x="349" y="17"/>
      <point x="234" y="17" type="curve" smooth="yes"/>
      <point x="100" y="17"/>
      <point x="63" y="90"/>
      <point x="42" y="90" type="curve" smooth="yes"/>
      <point x="34" y="90"/>
      <point x="31" y="87"/>
      <point x="31" y="80" type="curve" smooth="yes"/>
      <point x="31" y="66"/>
      <point x="101" y="-8"/>
      <point x="229" y="-8" type="curve" smooth="yes"/>
      <point x="341" y="-8"/>
      <point x="431" y="63"/>
      <point x="431" y="220" type="curve" smooth="yes"/>
      <point x="431" y="339"/>
      <point x="369" y="416"/>
      <point x="236" y="392" type="curve" smooth="yes"/>
      <point x="153" y="377" type="line" smooth="yes"/>
      <point x="125" y="372"/>
      <point x="113" y="383"/>
      <point x="116" y="417" type="curve" smooth="yes"/>
      <point x="132" y="579" type="line" smooth="yes"/>
      <point x="135" y="613"/>
      <point x="150" y="630"/>
      <point x="180" y="637" type="curve" smooth="yes"/>
      <point x="371" y="679" type="line" smooth="yes"/>
      <point x="392" y="684"/>
      <point x="387" y="707"/>
      <point x="369" y="704" type="curve" smooth="yes"/>
      <point x="59" y="657" type="line" smooth="yes"/>
      <point x="26" y="652"/>
      <point x="17" y="631"/>
      <point x="23" y="593" type="curve" smooth="yes"/>
    </contour>
    <contour>
      <point x="81" y="565" type="curve" smooth="yes"/>
      <point x="68" y="565"/>
      <point x="58" y="575"/>
      <point x="58" y="588" type="curve" smooth="yes"/>
      <point x="58" y="601"/>
      <point x="68" y="611"/>
      <point x="81" y="611" type="curve" smooth="yes"/>
      <point x="94" y="611"/>
      <point x="104" y="601"/>
      <point x="104" y="588" type="curve" smooth="yes"/>
      <point x="104" y="575"/>
      <point x="94" y="565"/>
    </contour>
    <contour>
      <point x="84" y="499" type="curve" smooth="yes"/>
      <point x="73" y="499"/>
      <point x="64" y="508"/>
      <point x="64" y="519" type="curve" smooth="yes"/>
      <point x="64" y="530"/>
      <point x="73" y="539"/>
      <point x="84" y="539" type="curve" smooth="yes"/>
      <point x="95" y="539"/>
      <point x="104" y="530"/>
      <point x="104" y="519" type="curve" smooth="yes"/>
      <point x="104" y="508"/>
      <point x="95" y="499"/>
    </contour>
    <contour>
      <point x="444" y="31" type="line" smooth="yes"/>
      <point x="464" y="16"/>
      <point x="480" y="37"/>
      <point x="461" y="52" type="curve" smooth="yes"/>
      <point x="328" y="156" type="line" smooth="yes"/>
      <point x="312" y="169"/>
      <point x="294" y="149"/>
      <point x="312" y="135" type="curve" smooth="yes"/>
    </contour>
    <contour>
      <point x="141" y="-63" type="line" smooth="yes"/>
      <point x="137" y="-83"/>
      <point x="163" y="-87"/>
      <point x="166" y="-69" type="curve" smooth="yes"/>
      <point x="208" y="160" type="line" smooth="yes"/>
      <point x="211" y="179"/>
      <point x="188" y="185"/>
      <point x="184" y="165" type="curve" smooth="yes"/>
    </contour>
    <contour>
      <point x="310" y="-71" type="line" smooth="yes"/>
      <point x="318" y="-94"/>
      <point x="345" y="-82"/>
      <point x="337" y="-62" type="curve" smooth="yes"/>
      <point x="310" y="9" type="line" smooth="yes"/>
      <point x="303" y="27"/>
      <point x="280" y="19"/>
      <point x="285" y="4" type="curve" smooth="yes"/>
    </contour>
    <contour>
      <point x="318" y="592" type="line" smooth="yes"/>
      <point x="323" y="574"/>
      <point x="344" y="582"/>
      <point x="339" y="600" type="curve" smooth="yes"/>
      <point x="306" y="727" type="line" smooth="yes"/>
      <point x="301" y="745"/>
      <point x="279" y="736"/>
      <point x="283" y="721" type="curve" smooth="yes"/>
    </contour>
    <contour>
      <point x="211" y="507" type="line" smooth="yes"/>
      <point x="211" y="489"/>
      <point x="232" y="491"/>
      <point x="232" y="509" type="curve" smooth="yes"/>
      <point x="234" y="659" type="line" smooth="yes"/>
      <point x="234" y="677"/>
      <point x="211" y="675"/>
      <point x="211" y="660" type="curve" smooth="yes"/>
    </contour>
    <contour>
      <point x="301" y="388" type="line"/>
      <point x="320" y="379" type="line"/>
      <point x="360" y="489" type="line" smooth="yes"/>
      <point x="366" y="505"/>
      <point x="349" y="512"/>
      <point x="343" y="497" type="curve" smooth="yes"/>
    </contour>
    <contour>
      <point x="352" y="376" type="line"/>
      <point x="368" y="362" type="line"/>
      <point x="410" y="415" type="line" smooth="yes"/>
      <point x="421" y="429"/>
      <point x="402" y="442"/>
      <point x="392" y="429" type="curve" smooth="yes"/>
    </contour>
    <contour>
      <point x="148" y="661" type="line"/>
      <point x="167" y="664" type="line"/>
      <point x="164" y="730" type="line" smooth="yes"/>
      <point x="163" y="748"/>
      <point x="139" y="743"/>
      <point x="141" y="728" type="curve" smooth="yes"/>
    </contour>
  </outline>
</glyph>
<glyph name="six" format="2">
  <advance width="506"/>
  <unicode hex="0036"/>
  <outline>
    <contour>
      <point x="197" y="87" type="curve" smooth="yes"/>
      <point x="98" y="87"/>
      <point x="66" y="136"/>
      <point x="66" y="210" type="curve" smooth="yes"/>
      <point x="66" y="367"/>
      <point x="133" y="408"/>
      <point x="278" y="408" type="curve" smooth="yes"/>
      <point x="392" y="408"/>
      <point x="458" y="370"/>
      <point x="458" y="236" type="curve" smooth="yes"/>
      <point x="458" y="142"/>
      <point x="296" y="87"/>
    </contour>
    <contour>
      <point x="236" y="-15" type="curve" smooth="yes"/>
      <point x="385" y="-15"/>
      <point x="486" y="40"/>
      <point x="486" y="235" type="curve" smooth="yes"/>
      <point x="486" y="370"/>
      <point x="410" y="433"/>
      <point x="286" y="433" type="curve" smooth="yes"/>
      <point x="249" y="433"/>
      <point x="205" y="428"/>
      <point x="167" y="418" type="curve" smooth="yes"/>
      <point x="146" y="412"/>
      <point x="131" y="429"/>
      <point x="154" y="451" type="curve" smooth="yes"/>
      <point x="425" y="717" type="line" smooth="yes"/>
      <point x="443" y="735"/>
      <point x="423" y="755"/>
      <point x="405" y="737" type="curve" smooth="yes"/>
      <point x="145" y="471" type="line" smooth="yes"/>
      <point x="92" y="417"/>
      <point x="35" y="339"/>
      <point x="35" y="212" type="curve" smooth="yes"/>
      <point x="35" y="75"/>
      <point x="91" y="-15"/>
    </contour>
    <contour>
      <point x="303" y="17" type="curve" smooth="yes"/>
      <point x="287" y="17"/>
      <point x="274" y="30"/>
      <point x="274" y="47" type="curve" smooth="yes"/>
      <point x="274" y="63"/>
      <point x="287" y="76"/>
      <point x="303" y="76" type="curve" smooth="yes"/>
      <point x="320" y="76"/>
      <point x="333" y="63"/>
      <point x="333" y="47" type="curve" smooth="yes"/>
      <point x="333" y="30"/>
      <point x="320" y="17"/>
    </contour>
    <contour>
      <point x="224" y="12" type="curve" smooth="yes"/>
      <point x="210" y="12"/>
      <point x="199" y="23"/>
      <point x="199" y="37" type="curve" smooth="yes"/>
      <point x="199" y="51"/>
      <point x="210" y="62"/>
      <point x="224" y="62" type="curve" smooth="yes"/>
      <point x="238" y="62"/>
      <point x="249" y="51"/>
      <point x="249" y="37" type="curve" smooth="yes"/>
      <point x="249" y="23"/>
      <point x="238" y="12"/>
    </contour>
    <contour>
      <point x="379" y="52" type="curve" smooth="yes"/>
      <point x="366" y="52"/>
      <point x="355" y="63"/>
      <point x="355" y="78" type="curve" smooth="yes"/>
      <point x="355" y="91"/>
      <point x="366" y="102"/>
      <point x="379" y="102" type="curve" smooth="yes"/>
      <point x="392" y="102"/>
      <point x="403" y="91"/>
      <point x="403" y="78" type="curve" smooth="yes"/>
      <point x="403" y="63"/>
      <point x="392" y="52"/>
    </contour>
    <contour>
      <point x="463" y="562" type="line" smooth="yes"/>
      <point x="480" y="546"/>
      <point x="497" y="570"/>
      <point x="481" y="585" type="curve" smooth="yes"/>
      <point x="321" y="734" type="line" smooth="yes"/>
      <point x="305" y="749"/>
      <point x="287" y="732"/>
      <point x="305" y="715" type="curve" smooth="yes"/>
    </contour>
    <contour>
      <point x="357" y="477" type="line" smooth="yes"/>
      <point x="377" y="463"/>
      <point x="391" y="482"/>
      <point x="371" y="497" type="curve" smooth="yes"/>
      <point x="161" y="651" type="line" smooth="yes"/>
      <point x="140" y="667"/>
      <point x="117" y="642"/>
      <point x="141" y="626" type="curve" smooth="yes"/>
    </contour>
    <contour>
      <point x="253" y="217" type="curve" smooth="yes"/>
      <point x="276" y="217"/>
      <point x="295" y="236"/>
      <point x="295" y="260" type="curve" smooth="yes"/>
      <point x="295" y="283"/>
      <point x="276" y="302"/>
      <point x="253" y="302" type="curve" smooth="yes"/>
      <point x="229" y="302"/>
      <point x="210" y="283"/>
      <point x="210" y="260" type="curve" smooth="yes"/>
      <point x="210" y="236"/>
      <point x="229" y="217"/>
    </contour>
    <contour>
      <point x="170" y="488" type="line"/>
      <point x="187" y="504" type="line"/>
      <point x="139" y="565" type="line" smooth="yes"/>
      <point x="125" y="583"/>
      <point x="105" y="567"/>
      <point x="119" y="550" type="curve" smooth="yes"/>
    </contour>
    <contour>
      <point x="291" y="611" type="line"/>
      <point x="308" y="627" type="line"/>
      <point x="216" y="734" type="line" smooth="yes"/>
      <point x="201" y="751"/>
      <point x="182" y="734"/>
      <point x="196" y="719" type="curve" smooth="yes"/>
    </contour>
    <contour>
      <point x="396" y="399" type="line"/>
      <point x="346" y="325" type="line" smooth="yes"/>
      <point x="336" y="310"/>
      <point x="354" y="296"/>
      <point x="364" y="311" type="curve" smooth="yes"/>
      <point x="413" y="386" type="line"/>
    </contour>
    <contour>
      <point x="460" y="300" type="line"/>
      <point x="398" y="283" type="line" smooth="yes"/>
      <point x="384" y="279"/>
      <point x="390" y="260"/>
      <point x="402" y="263" type="curve" smooth="yes"/>
      <point x="465" y="277" type="line"/>
    </contour>
    <contour>
      <point x="89" y="101" type="line"/>
      <point x="170" y="177" type="line" smooth="yes"/>
      <point x="183" y="189"/>
      <point x="166" y="206"/>
      <point x="154" y="195" type="curve" smooth="yes"/>
      <point x="72" y="115" type="line"/>
    </contour>
  </outline>
</glyph>
<glyph name="seven" format="2">
  <advance width="424"/>
  <unicode hex="0037"/>
  <outline>
    <contour>
      <point x="178" y="39" type="curve" smooth="yes"/>
      <point x="393" y="542" type="line" smooth="yes"/>
      <point x="416" y="595"/>
      <point x="397" y="637"/>
      <point x="354" y="648" type="curve" smooth="yes"/>
      <point x="68" y="718" type="line" smooth="yes"/>
      <point x="-25" y="741"/>
      <point x="-54" y="581"/>
      <point x="58" y="579" type="curve" smooth="yes"/>
      <point x="331" y="573" type="line" smooth="yes"/>
      <point x="359" y="572"/>
      <point x="373" y="554"/>
      <point x="358" y="521" type="curve" smooth="yes"/>
      <point x="149" y="51" type="line" smooth="yes"/>
      <point x="139" y="29"/>
      <point x="167" y="14"/>
    </contour>
    <contour>
      <point x="321" y="143" type="line" smooth="yes"/>
      <point x="337" y="132"/>
      <point x="357" y="154"/>
      <point x="333" y="171" type="curve" smooth="yes"/>
      <point x="179" y="279" type="line" smooth="yes"/>
      <point x="162" y="291"/>
      <point x="145" y="270"/>
      <point x="163" y="257" type="curve" smooth="yes"/>
    </contour>
    <contour>
      <point x="382" y="316" type="line" smooth="yes"/>
      <point x="402" y="310"/>
      <point x="412" y="339"/>
      <point x="391" y="344" type="curve" smooth="yes"/>
      <point x="161" y="403" type="line" smooth="yes"/>
      <point x="144" y="407"/>
      <point x="137" y="385"/>
      <point x="154" y="380" type="curve" smooth="yes"/>
    </contour>
    <contour>
      <point x="165" y="694" type="line"/>
      <point x="206" y="684" type="line"/>
      <point x="202" y="641" type="line" smooth="yes"/>
      <point x="199" y="614"/>
      <point x="149" y="618"/>
      <point x="156" y="650" type="curve" smooth="yes"/>
    </contour>
    <contour>
      <point x="84" y="714" type="line"/>
      <point x="129" y="703" type="line"/>
      <point x="109" y="641" type="line" smooth="yes"/>
      <point x="100" y="614"/>
      <point x="68" y="624"/>
      <point x="73" y="652" type="curve" smooth="yes"/>
    </contour>
    <contour>
      <point x="203" y="128" type="line"/>
      <point x="213" y="153" type="line"/>
      <point x="90" y="185" type="line" smooth="yes"/>
      <point x="70" y="190"/>
      <point x="63" y="167"/>
      <point x="84" y="161" type="curve" smooth="yes"/>
    </contour>
    <contour>
      <point x="382" y="427" type="line" smooth="yes"/>
      <point x="399" y="421"/>
      <point x="409" y="446"/>
      <point x="392" y="452" type="curve" smooth="yes"/>
      <point x="268" y="494" type="line" smooth="yes"/>
      <point x="250" y="500"/>
      <point x="243" y="477"/>
      <point x="262" y="470" type="curve" smooth="yes"/>
    </contour>
    <contour>
      <point x="244" y="675" type="line"/>
      <point x="284" y="665" type="line"/>
      <point x="273" y="614" type="line" smooth="yes"/>
      <point x="269" y="594"/>
      <point x="233" y="598"/>
      <point x="236" y="620" type="curve" smooth="yes"/>
    </contour>
  </outline>
</glyph>
<glyph name="eight" format="2">
  <advance width="543"/>
  <unicode hex="0038"/>
  <outline>
    <contour>
      <point x="296" y="306" type="curve" smooth="yes"/>
      <point x="402" y="306"/>
      <point x="530" y="350"/>
      <point x="530" y="509" type="curve" smooth="yes"/>
      <point x="530" y="649"/>
      <point x="441" y="720"/>
      <point x="296" y="720" type="curve" smooth="yes"/>
      <point x="166" y="720"/>
      <point x="38" y="649"/>
      <point x="38" y="516" type="curve" smooth="yes"/>
      <point x="38" y="360"/>
      <point x="138" y="306"/>
    </contour>
    <contour>
      <point x="291" y="5" type="curve" smooth="yes"/>
      <point x="430" y="5"/>
      <point x="504" y="69"/>
      <point x="504" y="188" type="curve" smooth="yes"/>
      <point x="504" y="291"/>
      <point x="410" y="331"/>
      <point x="306" y="331" type="curve" smooth="yes"/>
      <point x="163" y="331"/>
      <point x="74" y="280"/>
      <point x="74" y="165" type="curve" smooth="yes"/>
      <point x="74" y="51"/>
      <point x="142" y="5"/>
    </contour>
    <contour>
      <point x="212" y="404" type="curve" smooth="yes"/>
      <point x="121" y="404"/>
      <point x="65" y="438"/>
      <point x="65" y="523" type="curve" smooth="yes"/>
      <point x="65" y="637"/>
      <point x="189" y="692"/>
      <point x="293" y="692" type="curve" smooth="yes"/>
      <point x="411" y="692"/>
      <point x="492" y="638"/>
      <point x="492" y="561" type="curve" smooth="yes"/>
      <point x="492" y="461"/>
      <point x="386" y="404"/>
    </contour>
    <contour>
      <point x="294" y="33" type="curve" smooth="yes"/>
      <point x="139" y="33"/>
      <point x="101" y="83"/>
      <point x="101" y="166" type="curve" smooth="yes"/>
      <point x="101" y="260"/>
      <point x="171" y="298"/>
      <point x="305" y="298" type="curve" smooth="yes"/>
      <point x="397" y="298"/>
      <point x="471" y="274"/>
      <point x="471" y="190" type="curve" smooth="yes"/>
      <point x="471" y="91"/>
      <point x="419" y="33"/>
    </contour>
    <contour>
      <point x="170" y="31" type="line" smooth="yes"/>
      <point x="179" y="44"/>
      <point x="162" y="57"/>
      <point x="153" y="46" type="curve" smooth="yes"/>
      <point x="92" y="-31" type="line" smooth="yes"/>
      <point x="78" y="-49"/>
      <point x="101" y="-69"/>
      <point x="116" y="-47" type="curve" smooth="yes"/>
    </contour>
    <contour>
      <point x="269" y="117" type="line" smooth="yes"/>
      <point x="268" y="131"/>
      <point x="246" y="127"/>
      <point x="247" y="115" type="curve" smooth="yes"/>
      <point x="267" y="-139" type="line" smooth="yes"/>
      <point x="268" y="-157"/>
      <point x="298" y="-156"/>
      <point x="296" y="-137" type="curve" smooth="yes"/>
    </contour>
    <contour>
      <point x="384" y="107" type="line" smooth="yes"/>
      <point x="377" y="122"/>
      <point x="357" y="113"/>
      <point x="363" y="100" type="curve" smooth="yes"/>
      <point x="435" y="-72" type="line" smooth="yes"/>
      <point x="442" y="-89"/>
      <point x="470" y="-76"/>
      <point x="463" y="-62" type="curve" smooth="yes"/>
    </contour>
    <contour>
      <point x="286" y="382" type="curve" smooth="yes"/>
      <point x="299" y="382"/>
      <point x="309" y="372"/>
      <point x="309" y="359" type="curve" smooth="yes"/>
      <point x="309" y="347"/>
      <point x="299" y="337"/>
      <point x="286" y="337" type="curve" smooth="yes"/>
      <point x="274" y="337"/>
      <point x="264" y="347"/>
      <point x="264" y="359" type="curve" smooth="yes"/>
      <point x="264" y="372"/>
      <point x="274" y="382"/>
    </contour>
    <contour>
      <point x="355" y="393" type="curve" smooth="yes"/>
      <point x="369" y="393"/>
      <point x="380" y="382"/>
      <point x="380" y="368" type="curve" smooth="yes"/>
      <point x="380" y="354"/>
      <point x="369" y="343"/>
      <point x="355" y="343" type="curve" smooth="yes"/>
      <point x="341" y="343"/>
      <point x="330" y="354"/>
      <point x="330" y="368" type="curve" smooth="yes"/>
      <point x="330" y="382"/>
      <point x="341" y="393"/>
    </contour>
    <contour>
      <point x="423" y="412" type="curve" smooth="yes"/>
      <point x="435" y="412"/>
      <point x="444" y="402"/>
      <point x="444" y="390" type="curve" smooth="yes"/>
      <point x="444" y="379"/>
      <point x="435" y="369"/>
      <point x="423" y="369" type="curve" smooth="yes"/>
      <point x="411" y="369"/>
      <point x="401" y="379"/>
      <point x="401" y="390" type="curve" smooth="yes"/>
      <point x="401" y="402"/>
      <point x="411" y="412"/>
    </contour>
    <contour>
      <point x="283" y="491" type="curve" smooth="yes"/>
      <point x="311" y="491"/>
      <point x="334" y="514"/>
      <point x="334" y="543" type="curve" smooth="yes"/>
      <point x="334" y="571"/>
      <point x="311" y="594"/>
      <point x="283" y="594" type="curve" smooth="yes"/>
      <point x="254" y="594"/>
      <point x="231" y="571"/>
      <point x="231" y="543" type="curve" smooth="yes"/>
      <point x="231" y="514"/>
      <point x="254" y="491"/>
    </contour>
    <contour>
      <point x="339" y="215" type="line" smooth="yes"/>
      <point x="322" y="219"/>
      <point x="317" y="198"/>
      <point x="333" y="194" type="curve" smooth="yes"/>
      <point x="480" y="158" type="line" smooth="yes"/>
      <point x="497" y="154"/>
      <point x="503" y="177"/>
      <point x="487" y="181" type="curve" smooth="yes"/>
    </contour>
    <contour>
      <point x="98" y="120" type="line"/>
      <point x="104" y="100" type="line"/>
      <point x="188" y="125" type="line" smooth="yes"/>
      <point x="205" y="130"/>
      <point x="197" y="153"/>
      <point x="183" y="148" type="curve" smooth="yes"/>
    </contour>
    <contour>
      <point x="153" y="280" type="line"/>
      <point x="139" y="267" type="line"/>
      <point x="202" y="194" type="line" smooth="yes"/>
      <point x="214" y="180"/>
      <point x="233" y="198"/>
      <point x="221" y="210" type="curve" smooth="yes"/>
    </contour>
    <contour>
      <point x="92" y="727" type="line" smooth="yes"/>
      <point x="83" y="739"/>
      <point x="66" y="724"/>
      <point x="74" y="713" type="curve" smooth="yes"/>
      <point x="172" y="588" type="line" smooth="yes"/>
      <point x="183" y="574"/>
      <point x="202" y="589"/>
      <point x="193" y="601" type="curve" smooth="yes"/>
    </contour>
    <contour>
      <point x="438" y="747" type="line" smooth="yes"/>
      <point x="445" y="761"/>
      <point x="424" y="772"/>
      <point x="417" y="759" type="curve" smooth="yes"/>
      <point x="390" y="704" type="line" smooth="yes"/>
      <point x="383" y="689"/>
      <point x="403" y="679"/>
      <point x="410" y="693" type="curve" smooth="yes"/>
    </contour>
    <contour>
      <point x="529" y="721" type="line" smooth="yes"/>
      <point x="542" y="733"/>
      <point x="523" y="750"/>
      <point x="512" y="738" type="curve" smooth="yes"/>
      <point x="408" y="633" type="line" smooth="yes"/>
      <point x="394" y="619"/>
      <point x="411" y="606"/>
      <point x="423" y="618" type="curve" smooth="yes"/>
    </contour>
    <contour>
      <point x="75" y="449" type="line"/>
      <point x="90" y="432" type="line"/>
      <point x="153" y="495" type="line" smooth="yes"/>
      <point x="164" y="506"/>
      <point x="148" y="520"/>
      <point x="139" y="511" type="curve" smooth="yes"/>
    </contour>
    <contour>
      <point x="500" y="524" type="line"/>
      <point x="411" y="551" type="line" smooth="yes"/>
      <point x="399" y="555"/>
      <point x="391" y="536"/>
      <point x="405" y="531" type="curve" smooth="yes"/>
      <point x="493" y="502" type="line"/>
    </contour>
  </outline>
</glyph>
<glyph name="nine" format="2">
  <advance width="497"/>
  <unicode hex="0039"/>
  <outline>
    <contour>
      <point x="43" y="496" type="curve" smooth="yes"/>
      <point x="43" y="359"/>
      <point x="133" y="315"/>
      <point x="228" y="315" type="curve" smooth="yes"/>
      <point x="311" y="315"/>
      <point x="333" y="331"/>
      <point x="349" y="331" type="curve" smooth="yes"/>
      <point x="356" y="331"/>
      <point x="359" y="328"/>
      <point x="359" y="323" type="curve" smooth="yes"/>
      <point x="359" y="315"/>
      <point x="352" y="301"/>
      <point x="341" y="285" type="curve" smooth="yes"/>
      <point x="195" y="74" type="line" smooth="yes"/>
      <point x="138" y="-8"/>
      <point x="266" y="-70"/>
      <point x="300" y="6" type="curve" smooth="yes"/>
      <point x="432" y="304" type="line" smooth="yes"/>
      <point x="459" y="365"/>
      <point x="489" y="434"/>
      <point x="489" y="506" type="curve" smooth="yes"/>
      <point x="489" y="626"/>
      <point x="409" y="711"/>
      <point x="262" y="711" type="curve" smooth="yes"/>
      <point x="126" y="711"/>
      <point x="43" y="626"/>
    </contour>
    <contour>
      <point x="73" y="500" type="curve" smooth="yes"/>
      <point x="73" y="614"/>
      <point x="144" y="685"/>
      <point x="262" y="685" type="curve" smooth="yes"/>
      <point x="375" y="685"/>
      <point x="456" y="625"/>
      <point x="456" y="510" type="curve" smooth="yes"/>
      <point x="456" y="397"/>
      <point x="345" y="340"/>
      <point x="238" y="340" type="curve" smooth="yes"/>
      <point x="104" y="340"/>
      <point x="73" y="409"/>
    </contour>
    <contour>
      <point x="327" y="67" type="line"/>
      <point x="306" y="20" type="line"/>
      <point x="270" y="31" type="line" smooth="yes"/>
      <point x="242" y="40"/>
      <point x="259" y="84"/>
      <point x="286" y="77" type="curve" smooth="yes"/>
    </contour>
    <contour>
      <point x="384" y="196" type="line"/>
      <point x="365" y="153" type="line"/>
      <point x="330" y="173" type="line" smooth="yes"/>
      <point x="308" y="185"/>
      <point x="326" y="216"/>
      <point x="350" y="208" type="curve" smooth="yes"/>
    </contour>
    <contour>
      <point x="248" y="441" type="curve" smooth="yes"/>
      <point x="280" y="441"/>
      <point x="305" y="466"/>
      <point x="305" y="497" type="curve" smooth="yes"/>
      <point x="305" y="529"/>
      <point x="280" y="554"/>
      <point x="248" y="554" type="curve" smooth="yes"/>
      <point x="217" y="554"/>
      <point x="192" y="529"/>
      <point x="192" y="497" type="curve" smooth="yes"/>
      <point x="192" y="466"/>
      <point x="217" y="441"/>
    </contour>
    <contour>
      <point x="240" y="139" type="line"/>
      <point x="265" y="175" type="line"/>
      <point x="305" y="149" type="line" smooth="yes"/>
      <point x="328" y="134"/>
      <point x="314" y="107"/>
      <point x="289" y="118" type="curve" smooth="yes"/>
    </contour>
    <contour>
      <point x="175" y="781" type="line" smooth="yes"/>
      <point x="170" y="795"/>
      <point x="148" y="787"/>
      <point x="153" y="773" type="curve" smooth="yes"/>
      <point x="182" y="694" type="line" smooth="yes"/>
      <point x="187" y="681"/>
      <point x="209" y="688"/>
      <point x="205" y="700" type="curve" smooth="yes"/>
    </contour>
    <contour>
      <point x="291" y="759" type="line" smooth="yes"/>
      <point x="292" y="776"/>
      <point x="268" y="777"/>
      <point x="268" y="760" type="curve" smooth="yes"/>
      <point x="266" y="632" type="line" smooth="yes"/>
      <point x="266" y="619"/>
      <point x="284" y="619"/>
      <point x="285" y="631" type="curve" smooth="yes"/>
    </contour>
    <contour>
      <point x="28" y="409" type="line" smooth="yes"/>
      <point x="14" y="403"/>
      <point x="23" y="383"/>
      <point x="37" y="389" type="curve" smooth="yes"/>
      <point x="137" y="434" type="line" smooth="yes"/>
      <point x="151" y="440"/>
      <point x="141" y="460"/>
      <point x="129" y="455" type="curve" smooth="yes"/>
    </contour>
    <contour>
      <point x="329" y="584" type="line" smooth="yes"/>
      <point x="318" y="574"/>
      <point x="332" y="560"/>
      <point x="342" y="569" type="curve" smooth="yes"/>
      <point x="488" y="695" type="line" smooth="yes"/>
      <point x="500" y="706"/>
      <point x="484" y="722"/>
      <point x="473" y="712" type="curve" smooth="yes"/>
    </contour>
    <contour>
      <point x="396" y="539" type="line" smooth="yes"/>
      <point x="383" y="542"/>
      <point x="377" y="525"/>
      <point x="390" y="521" type="curve" smooth="yes"/>
      <point x="468" y="499" type="line"/>
      <point x="473" y="522" type="line"/>
    </contour>
    <contour>
      <point x="71" y="295" type="line" smooth="yes"/>
      <point x="65" y="282"/>
      <point x="83" y="274"/>
      <point x="89" y="286" type="curve" smooth="yes"/>
      <point x="122" y="353" type="line"/>
      <point x="101" y="365" type="line"/>
    </contour>
    <contour>
      <point x="112" y="241" type="line" smooth="yes"/>
      <point x="104" y="227"/>
      <point x="124" y="219"/>
      <point x="131" y="232" type="curve" smooth="yes"/>
      <point x="185" y="331" type="line"/>
      <point x="168" y="338" type="line"/>
    </contour>
    <contour>
      <point x="213" y="243" type="line" smooth="yes"/>
      <point x="215" y="227"/>
      <point x="236" y="228"/>
      <point x="234" y="243" type="curve" smooth="yes"/>
      <point x="222" y="325" type="line"/>
      <point x="204" y="323" type="line"/>
    </contour>
  </outline>
</glyph>
<glyph name="colon" format="2">
  <advance width="228"/>
  <unicode hex="003A"/>
  <outline>
    <contour>
      <point x="104" y="-13" type="curve" smooth="yes"/>
      <point x="140" y="-13"/>
      <point x="168" y="16"/>
      <point x="168" y="53" type="curve" smooth="yes"/>
      <point x="168" y="91"/>
      <point x="146" y="122"/>
      <point x="108" y="122" type="curve" smooth="yes"/>
      <point x="73" y="122"/>
      <point x="45" y="94"/>
      <point x="45" y="58" type="curve" smooth="yes"/>
      <point x="45" y="14"/>
      <point x="69" y="-13"/>
    </contour>
    <contour>
      <point x="115" y="385" type="curve" smooth="yes"/>
      <point x="157" y="385"/>
      <point x="190" y="418"/>
      <point x="190" y="458" type="curve" smooth="yes"/>
      <point x="190" y="502"/>
      <point x="164" y="537"/>
      <point x="119" y="537" type="curve" smooth="yes"/>
      <point x="78" y="537"/>
      <point x="45" y="505"/>
      <point x="45" y="465" type="curve" smooth="yes"/>
      <point x="45" y="416"/>
      <point x="73" y="385"/>
    </contour>
    <contour>
      <point x="115" y="438" type="curve" smooth="yes"/>
      <point x="98" y="438"/>
      <point x="85" y="451"/>
      <point x="85" y="467" type="curve" smooth="yes"/>
      <point x="85" y="483"/>
      <point x="98" y="496"/>
      <point x="115" y="496" type="curve" smooth="yes"/>
      <point x="132" y="496"/>
      <point x="146" y="483"/>
      <point x="146" y="467" type="curve" smooth="yes"/>
      <point x="146" y="451"/>
      <point x="132" y="438"/>
    </contour>
  </outline>
</glyph>
<glyph name="semicolon" format="2">
  <advance width="226"/>
  <unicode hex="003B"/>
  <outline>
    <contour>
      <point x="117" y="387" type="curve" smooth="yes"/>
      <point x="157" y="387"/>
      <point x="188" y="419"/>
      <point x="188" y="460" type="curve" smooth="yes"/>
      <point x="188" y="502"/>
      <point x="163" y="537"/>
      <point x="121" y="537" type="curve" smooth="yes"/>
      <point x="81" y="537"/>
      <point x="50" y="505"/>
      <point x="50" y="466" type="curve" smooth="yes"/>
      <point x="50" y="418"/>
      <point x="77" y="387"/>
    </contour>
    <contour>
      <point x="37" y="-171" type="curve" smooth="yes"/>
      <point x="16" y="-179"/>
      <point x="25" y="-206"/>
      <point x="47" y="-199" type="curve" smooth="yes"/>
      <point x="120" y="-174"/>
      <point x="183" y="-112"/>
      <point x="183" y="25" type="curve" smooth="yes"/>
      <point x="183" y="80"/>
      <point x="160" y="111"/>
      <point x="108" y="111" type="curve" smooth="yes"/>
      <point x="68" y="111"/>
      <point x="40" y="86"/>
      <point x="40" y="47" type="curve" smooth="yes"/>
      <point x="40" y="11"/>
      <point x="61" y="-12"/>
      <point x="90" y="-19" type="curve" smooth="yes"/>
      <point x="125" y="-26"/>
      <point x="136" y="-39"/>
      <point x="136" y="-59" type="curve" smooth="yes"/>
      <point x="136" y="-94"/>
      <point x="101" y="-148"/>
    </contour>
    <contour>
      <point x="111" y="15" type="curve" smooth="yes"/>
      <point x="95" y="15"/>
      <point x="82" y="28"/>
      <point x="82" y="44" type="curve" smooth="yes"/>
      <point x="82" y="59"/>
      <point x="95" y="72"/>
      <point x="111" y="72" type="curve" smooth="yes"/>
      <point x="126" y="72"/>
      <point x="139" y="59"/>
      <point x="139" y="44" type="curve" smooth="yes"/>
      <point x="139" y="28"/>
      <point x="126" y="15"/>
    </contour>
  </outline>
</glyph>
<glyph name="less" format="2">
  <advance width="343"/>
  <unicode hex="003C"/>
  <outline>
    <contour>
      <point x="275" y="108" type="line" smooth="yes"/>
      <point x="297" y="86"/>
      <point x="328" y="125"/>
      <point x="304" y="146" type="curve" smooth="yes"/>
      <point x="83" y="335" type="line" smooth="yes"/>
      <point x="67" y="348"/>
      <point x="71" y="364"/>
      <point x="87" y="375" type="curve" smooth="yes"/>
      <point x="309" y="537" type="line" smooth="yes"/>
      <point x="325" y="549"/>
      <point x="312" y="568"/>
      <point x="296" y="558" type="curve" smooth="yes"/>
      <point x="52" y="398" type="line" smooth="yes"/>
      <point x="28" y="382"/>
      <point x="25" y="355"/>
      <point x="45" y="336" type="curve" smooth="yes"/>
    </contour>
  </outline>
</glyph>
<glyph name="equal" format="2">
  <advance width="438"/>
  <unicode hex="003D"/>
  <outline>
    <contour>
      <point x="53" y="423" type="line" smooth="yes"/>
      <point x="31" y="423"/>
      <point x="30" y="396"/>
      <point x="52" y="395" type="curve" smooth="yes"/>
      <point x="371" y="381" type="line" smooth="yes"/>
      <point x="399" y="380"/>
      <point x="398" y="418"/>
      <point x="372" y="418" type="curve" smooth="yes"/>
    </contour>
    <contour>
      <point x="60" y="278" type="line" smooth="yes"/>
      <point x="31" y="277"/>
      <point x="34" y="237"/>
      <point x="62" y="239" type="curve" smooth="yes"/>
      <point x="398" y="268" type="line" smooth="yes"/>
      <point x="418" y="270"/>
      <point x="415" y="295"/>
      <point x="396" y="294" type="curve" smooth="yes"/>
    </contour>
  </outline>
</glyph>
<glyph name="greater" format="2">
  <advance width="327"/>
  <unicode hex="003E"/>
  <outline>
    <contour>
      <point x="80" y="44" type="curve" smooth="yes"/>
      <point x="284" y="301" type="line" smooth="yes"/>
      <point x="304" y="326"/>
      <point x="306" y="362"/>
      <point x="283" y="381" type="curve" smooth="yes"/>
      <point x="81" y="554" type="line" smooth="yes"/>
      <point x="56" y="576"/>
      <point x="24" y="537"/>
      <point x="50" y="518" type="curve" smooth="yes"/>
      <point x="259" y="368" type="line" smooth="yes"/>
      <point x="278" y="354"/>
      <point x="277" y="334"/>
      <point x="265" y="321" type="curve" smooth="yes"/>
      <point x="42" y="77" type="line" smooth="yes"/>
      <point x="17" y="50"/>
      <point x="58" y="16"/>
    </contour>
  </outline>
</glyph>
<glyph name="question" format="2">
  <advance width="462"/>
  <unicode hex="003F"/>
  <outline>
    <contour>
      <point x="173" y="-23" type="curve" smooth="yes"/>
      <point x="208" y="-23"/>
      <point x="238" y="6"/>
      <point x="238" y="44" type="curve" smooth="yes"/>
      <point x="238" y="80"/>
      <point x="208" y="109"/>
      <point x="173" y="109" type="curve" smooth="yes"/>
      <point x="135" y="109"/>
      <point x="105" y="80"/>
      <point x="105" y="44" type="curve" smooth="yes"/>
      <point x="105" y="6"/>
      <point x="135" y="-23"/>
    </contour>
    <contour>
      <point x="149" y="198" type="curve" smooth="yes"/>
      <point x="166" y="198"/>
      <point x="191" y="203"/>
      <point x="212" y="213" type="curve" smooth="yes"/>
      <point x="304" y="255"/>
      <point x="404" y="360"/>
      <point x="404" y="480" type="curve" smooth="yes"/>
      <point x="404" y="603"/>
      <point x="314" y="662"/>
      <point x="219" y="662" type="curve" smooth="yes"/>
      <point x="108" y="662"/>
      <point x="25" y="581"/>
      <point x="25" y="565" type="curve" smooth="yes"/>
      <point x="25" y="557"/>
      <point x="29" y="554"/>
      <point x="36" y="554" type="curve" smooth="yes"/>
      <point x="50" y="554"/>
      <point x="101" y="633"/>
      <point x="217" y="633" type="curve" smooth="yes"/>
      <point x="315" y="633"/>
      <point x="366" y="572"/>
      <point x="366" y="491" type="curve" smooth="yes"/>
      <point x="366" y="402"/>
      <point x="266" y="340"/>
      <point x="150" y="306" type="curve" smooth="yes"/>
      <point x="113" y="295"/>
      <point x="97" y="279"/>
      <point x="97" y="248" type="curve" smooth="yes"/>
      <point x="97" y="217"/>
      <point x="121" y="198"/>
    </contour>
    <contour>
      <point x="66" y="697" type="line" smooth="yes"/>
      <point x="57" y="713"/>
      <point x="34" y="703"/>
      <point x="43" y="686" type="curve" smooth="yes"/>
      <point x="84" y="603" type="line"/>
      <point x="108" y="619" type="line"/>
    </contour>
    <contour>
      <point x="256" y="734" type="line" smooth="yes"/>
      <point x="258" y="754"/>
      <point x="227" y="756"/>
      <point x="226" y="734" type="curve" smooth="yes"/>
      <point x="223" y="651" type="line"/>
      <point x="248" y="648" type="line"/>
    </contour>
    <contour>
      <point x="408" y="650" type="line" smooth="yes"/>
      <point x="421" y="663"/>
      <point x="398" y="686"/>
      <point x="383" y="668" type="curve" smooth="yes"/>
      <point x="337" y="615" type="line"/>
      <point x="356" y="599" type="line"/>
    </contour>
    <contour>
      <point x="388" y="463" type="line"/>
      <point x="384" y="434" type="line"/>
      <point x="444" y="427" type="line" smooth="yes"/>
      <point x="467" y="424"/>
      <point x="468" y="455"/>
      <point x="446" y="457" type="curve" smooth="yes"/>
    </contour>
    <contour>
      <point x="319" y="343" type="line"/>
      <point x="298" y="321" type="line"/>
      <point x="363" y="262" type="line" smooth="yes"/>
      <point x="381" y="246"/>
      <point x="404" y="271"/>
      <point x="384" y="288" type="curve" smooth="yes"/>
    </contour>
    <contour>
      <point x="155" y="225" type="curve" smooth="yes"/>
      <point x="141" y="225"/>
      <point x="129" y="237"/>
      <point x="129" y="251" type="curve" smooth="yes"/>
      <point x="129" y="265"/>
      <point x="141" y="277"/>
      <point x="155" y="277" type="curve" smooth="yes"/>
      <point x="169" y="277"/>
      <point x="181" y="265"/>
      <point x="181" y="251" type="curve" smooth="yes"/>
      <point x="181" y="237"/>
      <point x="169" y="225"/>
    </contour>
    <contour>
      <point x="224" y="257" type="curve" smooth="yes"/>
      <point x="213" y="257"/>
      <point x="202" y="268"/>
      <point x="202" y="281" type="curve" smooth="yes"/>
      <point x="202" y="293"/>
      <point x="213" y="303"/>
      <point x="224" y="303" type="curve" smooth="yes"/>
      <point x="238" y="303"/>
      <point x="248" y="293"/>
      <point x="248" y="281" type="curve" smooth="yes"/>
      <point x="248" y="268"/>
      <point x="238" y="257"/>
    </contour>
    <contour>
      <point x="149" y="741" type="line" smooth="yes"/>
      <point x="145" y="757"/>
      <point x="119" y="750"/>
      <point x="123" y="733" type="curve" smooth="yes"/>
      <point x="175" y="514" type="line" smooth="yes"/>
      <point x="179" y="496"/>
      <point x="204" y="503"/>
      <point x="200" y="520" type="curve" smooth="yes"/>
    </contour>
    <contour>
      <point x="432" y="550" type="line" smooth="yes"/>
      <point x="450" y="558"/>
      <point x="438" y="583"/>
      <point x="419" y="575" type="curve" smooth="yes"/>
      <point x="296" y="521" type="line" smooth="yes"/>
      <point x="278" y="513"/>
      <point x="289" y="489"/>
      <point x="306" y="496" type="curve" smooth="yes"/>
    </contour>
  </outline>
</glyph>
<glyph name="at" format="2">
  <advance width="710"/>
  <unicode hex="0040"/>
  <outline>
    <contour>
      <point x="323" y="-54" type="curve" smooth="yes"/>
      <point x="411" y="-54"/>
      <point x="521" y="-14"/>
      <point x="581" y="23" type="curve" smooth="yes"/>
      <point x="612" y="42"/>
      <point x="592" y="70"/>
      <point x="568" y="55" type="curve" smooth="yes"/>
      <point x="506" y="17"/>
      <point x="416" y="-24"/>
      <point x="324" y="-24" type="curve" smooth="yes"/>
      <point x="139" y="-24"/>
      <point x="84" y="171"/>
      <point x="84" y="365" type="curve" smooth="yes"/>
      <point x="84" y="684"/>
      <point x="217" y="754"/>
      <point x="359" y="754" type="curve" smooth="yes"/>
      <point x="533" y="754"/>
      <point x="642" y="669"/>
      <point x="642" y="450" type="curve" smooth="yes"/>
      <point x="642" y="273"/>
      <point x="615" y="198"/>
      <point x="546" y="198" type="curve" smooth="yes"/>
      <point x="510" y="198"/>
      <point x="470" y="229"/>
      <point x="478" y="270" type="curve" smooth="yes"/>
      <point x="506" y="421" type="line" smooth="yes"/>
      <point x="525" y="522"/>
      <point x="473" y="624"/>
      <point x="373" y="624" type="curve" smooth="yes"/>
      <point x="277" y="624"/>
      <point x="208" y="548"/>
      <point x="208" y="355" type="curve" smooth="yes"/>
      <point x="208" y="218"/>
      <point x="271" y="163"/>
      <point x="348" y="163" type="curve" smooth="yes"/>
      <point x="395" y="163"/>
      <point x="426" y="181"/>
      <point x="452" y="219" type="curve" smooth="yes"/>
      <point x="455" y="224"/>
      <point x="460" y="224"/>
      <point x="463" y="219" type="curve" smooth="yes"/>
      <point x="480" y="187"/>
      <point x="510" y="167"/>
      <point x="542" y="167" type="curve" smooth="yes"/>
      <point x="626" y="167"/>
      <point x="675" y="238"/>
      <point x="675" y="457" type="curve" smooth="yes"/>
      <point x="675" y="687"/>
      <point x="555" y="787"/>
      <point x="359" y="787" type="curve" smooth="yes"/>
      <point x="208" y="787"/>
      <point x="50" y="710"/>
      <point x="50" y="374" type="curve" smooth="yes"/>
      <point x="50" y="143"/>
      <point x="121" y="-54"/>
    </contour>
    <contour>
      <point x="250" y="325" type="curve" smooth="yes"/>
      <point x="250" y="432"/>
      <point x="324" y="498"/>
      <point x="403" y="498" type="curve" smooth="yes"/>
      <point x="454" y="498"/>
      <point x="486" y="469"/>
      <point x="471" y="386" type="curve" smooth="yes"/>
      <point x="452" y="282" type="line" smooth="yes"/>
      <point x="441" y="223"/>
      <point x="407" y="195"/>
      <point x="353" y="195" type="curve" smooth="yes"/>
      <point x="289" y="195"/>
      <point x="250" y="219"/>
    </contour>
    <contour>
      <point x="443" y="91" type="line" smooth="yes"/>
      <point x="439" y="112"/>
      <point x="414" y="109"/>
      <point x="418" y="84" type="curve" smooth="yes"/>
      <point x="450" y="-113" type="line" smooth="yes"/>
      <point x="453" y="-133"/>
      <point x="484" y="-128"/>
      <point x="479" y="-101" type="curve" smooth="yes"/>
    </contour>
    <contour>
      <point x="345" y="41" type="line" smooth="yes"/>
      <point x="349" y="68"/>
      <point x="320" y="75"/>
      <point x="316" y="45" type="curve" smooth="yes"/>
      <point x="296" y="-93" type="line" smooth="yes"/>
      <point x="293" y="-111"/>
      <point x="320" y="-120"/>
      <point x="324" y="-93" type="curve" smooth="yes"/>
    </contour>
    <contour>
      <point x="380" y="530" type="curve" smooth="yes"/>
      <point x="365" y="530"/>
      <point x="354" y="541"/>
      <point x="354" y="556" type="curve" smooth="yes"/>
      <point x="354" y="570"/>
      <point x="365" y="580"/>
      <point x="380" y="580" type="curve" smooth="yes"/>
      <point x="394" y="580"/>
      <point x="404" y="570"/>
      <point x="404" y="556" type="curve" smooth="yes"/>
      <point x="404" y="541"/>
      <point x="394" y="530"/>
    </contour>
    <contour>
      <point x="311" y="503" type="curve" smooth="yes"/>
      <point x="297" y="503"/>
      <point x="286" y="514"/>
      <point x="286" y="528" type="curve" smooth="yes"/>
      <point x="286" y="542"/>
      <point x="297" y="553"/>
      <point x="311" y="553" type="curve" smooth="yes"/>
      <point x="325" y="553"/>
      <point x="336" y="542"/>
      <point x="336" y="528" type="curve" smooth="yes"/>
      <point x="336" y="514"/>
      <point x="325" y="503"/>
    </contour>
    <contour>
      <point x="567" y="782" type="line" smooth="yes"/>
      <point x="579" y="802"/>
      <point x="555" y="816"/>
      <point x="542" y="795" type="curve" smooth="yes"/>
      <point x="474" y="681" type="line" smooth="yes"/>
      <point x="462" y="662"/>
      <point x="485" y="651"/>
      <point x="496" y="668" type="curve" smooth="yes"/>
    </contour>
    <contour>
      <point x="685" y="750" type="line" smooth="yes"/>
      <point x="700" y="764"/>
      <point x="681" y="783"/>
      <point x="665" y="768" type="curve" smooth="yes"/>
      <point x="515" y="623" type="line" smooth="yes"/>
      <point x="501" y="609"/>
      <point x="520" y="591"/>
      <point x="532" y="603" type="curve" smooth="yes"/>
    </contour>
    <contour>
      <point x="105" y="766" type="line" smooth="yes"/>
      <point x="89" y="781"/>
      <point x="66" y="759"/>
      <point x="83" y="744" type="curve" smooth="yes"/>
      <point x="192" y="644" type="line" smooth="yes"/>
      <point x="206" y="631"/>
      <point x="223" y="650"/>
      <point x="210" y="662" type="curve" smooth="yes"/>
    </contour>
  </outline>
</glyph>
<glyph name="A" format="2">
  <advance width="550"/>
  <unicode hex="0041"/>
  <anchor x="540" y="-68" name="ogonek"/>
  <anchor x="348" y="672" name="top"/>
  <outline>
    <contour>
      <point x="510" y="-33" type="line" smooth="yes"/>
      <point x="515" y="-55"/>
      <point x="537" y="-44"/>
      <point x="535" y="-25" type="curve" smooth="yes"/>
      <point x="458" y="577" type="line" smooth="yes"/>
      <point x="447" y="660"/>
      <point x="396" y="686"/>
      <point x="354" y="687" type="curve" smooth="yes"/>
      <point x="302" y="688"/>
      <point x="258" y="662"/>
      <point x="237" y="606" type="curve" smooth="yes"/>
      <point x="35" y="75" type="line" smooth="yes"/>
      <point x="27" y="54"/>
      <point x="53" y="42"/>
      <point x="61" y="65" type="curve" smooth="yes"/>
      <point x="231" y="542" type="line" smooth="yes"/>
      <point x="250" y="594"/>
      <point x="276" y="614"/>
      <point x="305" y="614" type="curve" smooth="yes"/>
      <point x="341" y="614"/>
      <point x="354" y="593"/>
      <point x="365" y="547" type="curve" smooth="yes"/>
    </contour>
    <contour>
      <point x="176" y="400" type="line"/>
      <point x="410" y="387" type="line" smooth="yes"/>
      <point x="424" y="386"/>
      <point x="427" y="410"/>
      <point x="410" y="411" type="curve" smooth="yes"/>
      <point x="184" y="418" type="line"/>
    </contour>
    <contour>
      <point x="435" y="315" type="line"/>
      <point x="428" y="337" type="line"/>
      <point x="149" y="339" type="line" smooth="yes"/>
      <point x="130" y="339"/>
      <point x="129" y="315"/>
      <point x="147" y="315" type="curve" smooth="yes"/>
    </contour>
    <contour>
      <point x="117" y="250" type="line"/>
      <point x="462" y="221" type="line"/>
      <point x="457" y="246" type="line"/>
      <point x="126" y="271" type="line"/>
    </contour>
    <contour>
      <point x="96" y="166" type="line"/>
      <point x="469" y="145" type="line" smooth="yes"/>
      <point x="487" y="144"/>
      <point x="487" y="168"/>
      <point x="468" y="169" type="curve" smooth="yes"/>
      <point x="97" y="188" type="line"/>
    </contour>
    <contour>
      <point x="201" y="487" type="line"/>
      <point x="217" y="522" type="line"/>
      <point x="126" y="562" type="line" smooth="yes"/>
      <point x="102" y="572"/>
      <point x="88" y="542"/>
      <point x="110" y="531" type="curve" smooth="yes"/>
    </contour>
    <contour>
      <point x="178" y="417" type="line"/>
      <point x="187" y="444" type="line"/>
      <point x="115" y="467" type="line" smooth="yes"/>
      <point x="90" y="475"/>
      <point x="79" y="432"/>
      <point x="107" y="428" type="curve" smooth="yes"/>
    </contour>
    <contour>
      <point x="145" y="338" type="line"/>
      <point x="154" y="369" type="line"/>
      <point x="82" y="389" type="line" smooth="yes"/>
      <point x="56" y="396"/>
      <point x="49" y="363"/>
      <point x="75" y="356" type="curve" smooth="yes"/>
    </contour>
    <contour>
      <point x="451" y="437" type="line" smooth="yes"/>
      <point x="421" y="427"/>
      <point x="411" y="472"/>
      <point x="442" y="478" type="curve" smooth="yes"/>
      <point x="470" y="483" type="line"/>
      <point x="475" y="445" type="line"/>
    </contour>
    <contour>
      <point x="425" y="518" type="line" smooth="yes"/>
      <point x="394" y="520"/>
      <point x="392" y="548"/>
      <point x="420" y="553" type="curve" smooth="yes"/>
      <point x="460" y="560" type="line"/>
      <point x="466" y="515" type="line"/>
    </contour>
  </outline>
</glyph>
<glyph name="B" format="2">
  <advance width="553"/>
  <unicode hex="0042"/>
  <anchor x="278" y="0" name="bottom"/>
  <anchor x="275" y="733" name="top"/>
  <outline>
    <contour>
      <point x="93" y="115" type="line" smooth="yes"/>
      <point x="102" y="30"/>
      <point x="138" y="-12"/>
      <point x="252" y="-12" type="curve" smooth="yes"/>
      <point x="252" y="-12" type="line" smooth="yes"/>
      <point x="400" y="-12"/>
      <point x="517" y="66"/>
      <point x="517" y="214" type="curve" smooth="yes"/>
      <point x="517" y="340"/>
      <point x="425" y="390"/>
      <point x="332" y="402" type="curve" smooth="yes"/>
      <point x="315" y="404"/>
      <point x="314" y="414"/>
      <point x="328" y="422" type="curve" smooth="yes"/>
      <point x="376" y="448"/>
      <point x="414" y="478"/>
      <point x="414" y="531" type="curve" smooth="yes"/>
      <point x="414" y="612"/>
      <point x="349" y="659"/>
      <point x="287" y="653" type="curve" smooth="yes"/>
      <point x="121" y="637" type="line" smooth="yes"/>
      <point x="66" y="632"/>
      <point x="42" y="611"/>
      <point x="49" y="545" type="curve" smooth="yes"/>
    </contour>
    <contour>
      <point x="280" y="627" type="line" smooth="yes"/>
      <point x="352" y="633"/>
      <point x="389" y="584"/>
      <point x="389" y="532" type="curve" smooth="yes"/>
      <point x="389" y="490"/>
      <point x="359" y="456"/>
      <point x="288" y="429" type="curve" smooth="yes"/>
      <point x="249" y="414" type="line" smooth="yes"/>
      <point x="160" y="380"/>
      <point x="111" y="387"/>
      <point x="109" y="442" type="curve" smooth="yes"/>
      <point x="106" y="542" type="line" smooth="yes"/>
      <point x="104" y="595"/>
      <point x="130" y="614"/>
      <point x="179" y="618" type="curve" smooth="yes"/>
    </contour>
    <contour>
      <point x="115" y="120" type="curve" smooth="yes"/>
      <point x="104" y="252" type="line" smooth="yes"/>
      <point x="96" y="353"/>
      <point x="138" y="381"/>
      <point x="296" y="381" type="curve"/>
      <point x="296" y="381" type="line"/>
      <point x="442" y="381"/>
      <point x="484" y="310"/>
      <point x="395" y="161" type="curve" smooth="yes"/>
      <point x="316" y="29"/>
      <point x="258" y="19"/>
      <point x="211" y="17" type="curve" smooth="yes"/>
      <point x="211" y="17" type="line" smooth="yes"/>
      <point x="173" y="17"/>
      <point x="122" y="33"/>
    </contour>
    <contour>
      <point x="463" y="170" type="curve" smooth="yes"/>
      <point x="452" y="170"/>
      <point x="441" y="180"/>
      <point x="441" y="192" type="curve" smooth="yes"/>
      <point x="441" y="203"/>
      <point x="452" y="214"/>
      <point x="463" y="214" type="curve" smooth="yes"/>
      <point x="475" y="214"/>
      <point x="485" y="203"/>
      <point x="485" y="192" type="curve" smooth="yes"/>
      <point x="485" y="180"/>
      <point x="475" y="170"/>
    </contour>
    <contour>
      <point x="439" y="103" type="curve" smooth="yes"/>
      <point x="424" y="103"/>
      <point x="414" y="113"/>
      <point x="414" y="128" type="curve" smooth="yes"/>
      <point x="414" y="141"/>
      <point x="424" y="152"/>
      <point x="439" y="152" type="curve" smooth="yes"/>
      <point x="454" y="152"/>
      <point x="465" y="141"/>
      <point x="465" y="128" type="curve" smooth="yes"/>
      <point x="465" y="113"/>
      <point x="454" y="103"/>
    </contour>
    <contour>
      <point x="397" y="56" type="curve" smooth="yes"/>
      <point x="385" y="56"/>
      <point x="375" y="66"/>
      <point x="375" y="78" type="curve" smooth="yes"/>
      <point x="375" y="89"/>
      <point x="385" y="100"/>
      <point x="397" y="100" type="curve" smooth="yes"/>
      <point x="408" y="100"/>
      <point x="418" y="89"/>
      <point x="418" y="78" type="curve" smooth="yes"/>
      <point x="418" y="66"/>
      <point x="408" y="56"/>
    </contour>
    <contour>
      <point x="127" y="711" type="line" smooth="yes"/>
      <point x="123" y="739"/>
      <point x="88" y="734"/>
      <point x="93" y="710" type="curve" smooth="yes"/>
      <point x="111" y="625" type="line"/>
      <point x="137" y="631" type="line"/>
    </contour>
    <contour>
      <point x="196" y="697" type="line" smooth="yes"/>
      <point x="192" y="720"/>
      <point x="169" y="715"/>
      <point x="172" y="693" type="curve" smooth="yes"/>
      <point x="186" y="587" type="line" smooth="yes"/>
      <point x="189" y="565"/>
      <point x="218" y="571"/>
      <point x="214" y="593" type="curve" smooth="yes"/>
    </contour>
    <contour>
      <point x="297" y="744" type="line" smooth="yes"/>
      <point x="301" y="768"/>
      <point x="269" y="773"/>
      <point x="266" y="746" type="curve" smooth="yes"/>
      <point x="255" y="640" type="line"/>
      <point x="278" y="638" type="line"/>
    </contour>
    <contour>
      <point x="374" y="700" type="line" smooth="yes"/>
      <point x="382" y="728"/>
      <point x="348" y="738"/>
      <point x="343" y="712" type="curve" smooth="yes"/>
      <point x="330" y="640" type="line"/>
      <point x="354" y="632" type="line"/>
    </contour>
    <contour>
      <point x="464" y="652" type="line" smooth="yes"/>
      <point x="487" y="666"/>
      <point x="462" y="702"/>
      <point x="438" y="680" type="curve" smooth="yes"/>
      <point x="367" y="615" type="line"/>
      <point x="380" y="601" type="line"/>
    </contour>
    <contour>
      <point x="518" y="563" type="line" smooth="yes"/>
      <point x="539" y="566"/>
      <point x="533" y="592"/>
      <point x="510" y="588" type="curve" smooth="yes"/>
      <point x="262" y="548" type="line" smooth="yes"/>
      <point x="242" y="545"/>
      <point x="248" y="523"/>
      <point x="266" y="526" type="curve" smooth="yes"/>
    </contour>
    <contour>
      <point x="476" y="462" type="line" smooth="yes"/>
      <point x="500" y="455"/>
      <point x="505" y="493"/>
      <point x="481" y="497" type="curve" smooth="yes"/>
      <point x="399" y="509" type="line"/>
      <point x="390" y="486" type="line"/>
    </contour>
    <contour>
      <point x="163" y="128" type="line" smooth="yes"/>
      <point x="179" y="136"/>
      <point x="168" y="159"/>
      <point x="151" y="151" type="curve" smooth="yes"/>
      <point x="44" y="103" type="line" smooth="yes"/>
      <point x="24" y="94"/>
      <point x="35" y="66"/>
      <point x="54" y="75" type="curve" smooth="yes"/>
    </contour>
    <contour>
      <point x="226" y="96" type="line" smooth="yes"/>
      <point x="237" y="114"/>
      <point x="213" y="128"/>
      <point x="202" y="110" type="curve" smooth="yes"/>
      <point x="114" y="-41" type="line" smooth="yes"/>
      <point x="104" y="-59"/>
      <point x="124" y="-72"/>
      <point x="134" y="-56" type="curve" smooth="yes"/>
    </contour>
    <contour>
      <point x="275" y="200" type="curve" smooth="yes"/>
      <point x="298" y="200"/>
      <point x="317" y="219"/>
      <point x="317" y="242" type="curve" smooth="yes"/>
      <point x="317" y="266"/>
      <point x="298" y="286"/>
      <point x="275" y="286" type="curve" smooth="yes"/>
      <point x="251" y="286"/>
      <point x="231" y="266"/>
      <point x="231" y="242" type="curve" smooth="yes"/>
      <point x="231" y="219"/>
      <point x="251" y="200"/>
    </contour>
  </outline>
</glyph>
<glyph name="C" format="2">
  <advance width="472"/>
  <unicode hex="0043"/>
  <anchor x="241" y="0" name="cedilla"/>
  <anchor x="311" y="778" name="top"/>
  <outline>
    <contour>
      <point x="39" y="326" type="curve" smooth="yes"/>
      <point x="39" y="115"/>
      <point x="141" y="-2"/>
      <point x="284" y="-2" type="curve" smooth="yes"/>
      <point x="356" y="-2"/>
      <point x="403" y="23"/>
      <point x="434" y="56" type="curve" smooth="yes"/>
      <point x="458" y="82"/>
      <point x="445" y="137"/>
      <point x="410" y="137" type="curve" smooth="yes"/>
      <point x="367" y="137"/>
      <point x="332" y="107"/>
      <point x="254" y="107" type="curve" smooth="yes"/>
      <point x="138" y="107"/>
      <point x="66" y="165"/>
      <point x="66" y="335" type="curve" smooth="yes"/>
      <point x="66" y="500"/>
      <point x="172" y="682"/>
      <point x="340" y="682" type="curve" smooth="yes"/>
      <point x="395" y="682"/>
      <point x="426" y="650"/>
      <point x="443" y="650" type="curve" smooth="yes"/>
      <point x="459" y="650"/>
      <point x="465" y="664"/>
      <point x="456" y="673" type="curve" smooth="yes"/>
      <point x="442" y="687"/>
      <point x="397" y="707"/>
      <point x="342" y="707" type="curve" smooth="yes"/>
      <point x="167" y="707"/>
      <point x="39" y="528"/>
    </contour>
    <contour>
      <point x="258" y="247" type="curve" smooth="yes"/>
      <point x="299" y="247"/>
      <point x="334" y="282"/>
      <point x="334" y="326" type="curve" smooth="yes"/>
      <point x="334" y="367"/>
      <point x="299" y="402"/>
      <point x="258" y="402" type="curve" smooth="yes"/>
      <point x="214" y="402"/>
      <point x="179" y="367"/>
      <point x="179" y="326" type="curve" smooth="yes"/>
      <point x="179" y="282"/>
      <point x="214" y="247"/>
    </contour>
    <contour>
      <point x="251" y="285" type="curve" smooth="yes"/>
      <point x="231" y="285"/>
      <point x="214" y="301"/>
      <point x="214" y="322" type="curve" smooth="yes"/>
      <point x="214" y="340"/>
      <point x="231" y="356"/>
      <point x="251" y="356" type="curve" smooth="yes"/>
      <point x="269" y="356"/>
      <point x="286" y="340"/>
      <point x="286" y="322" type="curve" smooth="yes"/>
      <point x="286" y="301"/>
      <point x="269" y="285"/>
    </contour>
    <contour>
      <point x="252" y="69" type="line" smooth="yes"/>
      <point x="252" y="40"/>
      <point x="212" y="50"/>
      <point x="215" y="76" type="curve" smooth="yes"/>
      <point x="219" y="109" type="line"/>
      <point x="230" y="108"/>
      <point x="238" y="107"/>
      <point x="252" y="107" type="curve"/>
    </contour>
    <contour>
      <point x="321" y="47" type="line" smooth="yes"/>
      <point x="324" y="26"/>
      <point x="290" y="20"/>
      <point x="290" y="43" type="curve" smooth="yes"/>
      <point x="289" y="109" type="line"/>
      <point x="295" y="110"/>
      <point x="303" y="111"/>
      <point x="312" y="113" type="curve"/>
    </contour>
    <contour>
      <point x="386" y="85" type="line" smooth="yes"/>
      <point x="396" y="62"/>
      <point x="362" y="55"/>
      <point x="357" y="72" type="curve" smooth="yes"/>
      <point x="342" y="121" type="line"/>
      <point x="351" y="124"/>
      <point x="357" y="126"/>
      <point x="367" y="129" type="curve"/>
    </contour>
    <contour>
      <point x="110" y="630" type="line" smooth="yes"/>
      <point x="93" y="647"/>
      <point x="71" y="623"/>
      <point x="90" y="606" type="curve" smooth="yes"/>
      <point x="182" y="521" type="line" smooth="yes"/>
      <point x="195" y="509"/>
      <point x="211" y="526"/>
      <point x="199" y="539" type="curve" smooth="yes"/>
    </contour>
    <contour>
      <point x="207" y="655" type="line"/>
      <point x="228" y="667" type="line"/>
      <point x="176" y="775" type="line" smooth="yes"/>
      <point x="165" y="798"/>
      <point x="134" y="781"/>
      <point x="146" y="760" type="curve" smooth="yes"/>
    </contour>
    <contour>
      <point x="319" y="771" type="line" smooth="yes"/>
      <point x="315" y="799"/>
      <point x="278" y="791"/>
      <point x="283" y="767" type="curve" smooth="yes"/>
      <point x="330" y="531" type="line" smooth="yes"/>
      <point x="334" y="511"/>
      <point x="357" y="517"/>
      <point x="354" y="534" type="curve" smooth="yes"/>
    </contour>
  </outline>
</glyph>
<glyph name="D" format="2">
  <advance width="598"/>
  <unicode hex="0044"/>
  <anchor x="278" y="0" name="bottom"/>
  <anchor x="300" y="681" name="top"/>
  <outline>
    <contour>
      <point x="119" y="79" type="line" smooth="yes"/>
      <point x="123" y="11"/>
      <point x="153" y="-10"/>
      <point x="234" y="-10" type="curve" smooth="yes"/>
      <point x="249" y="-10" type="line" smooth="yes"/>
      <point x="418" y="-10"/>
      <point x="589" y="117"/>
      <point x="540" y="446" type="curve" smooth="yes"/>
      <point x="515" y="617"/>
      <point x="422" y="680"/>
      <point x="270" y="703" type="curve" smooth="yes"/>
      <point x="257" y="705" type="line" smooth="yes"/>
      <point x="128" y="725"/>
      <point x="80" y="683"/>
      <point x="85" y="603" type="curve" smooth="yes"/>
    </contour>
    <contour>
      <point x="144" y="81" type="curve" smooth="yes"/>
      <point x="111" y="589" type="line" smooth="yes"/>
      <point x="105" y="681"/>
      <point x="160" y="696"/>
      <point x="262" y="679" type="curve" smooth="yes"/>
      <point x="268" y="678" type="line" smooth="yes"/>
      <point x="452" y="647"/>
      <point x="587" y="542"/>
      <point x="417" y="214" type="curve" smooth="yes"/>
      <point x="333" y="51"/>
      <point x="278" y="15"/>
      <point x="221" y="15" type="curve" smooth="yes"/>
      <point x="213" y="15" type="line" smooth="yes"/>
      <point x="173" y="15"/>
      <point x="147" y="32"/>
    </contour>
    <contour>
      <point x="471" y="163" type="curve" smooth="yes"/>
      <point x="455" y="163"/>
      <point x="442" y="176"/>
      <point x="442" y="192" type="curve" smooth="yes"/>
      <point x="442" y="206"/>
      <point x="455" y="220"/>
      <point x="471" y="220" type="curve" smooth="yes"/>
      <point x="486" y="220"/>
      <point x="499" y="206"/>
      <point x="499" y="192" type="curve" smooth="yes"/>
      <point x="499" y="176"/>
      <point x="486" y="163"/>
    </contour>
    <contour>
      <point x="435" y="108" type="curve" smooth="yes"/>
      <point x="423" y="108"/>
      <point x="412" y="119"/>
      <point x="412" y="132" type="curve" smooth="yes"/>
      <point x="412" y="144"/>
      <point x="423" y="154"/>
      <point x="435" y="154" type="curve" smooth="yes"/>
      <point x="448" y="154"/>
      <point x="457" y="144"/>
      <point x="457" y="132" type="curve" smooth="yes"/>
      <point x="457" y="119"/>
      <point x="448" y="108"/>
    </contour>
    <contour>
      <point x="495" y="238" type="curve" smooth="yes"/>
      <point x="483" y="238"/>
      <point x="473" y="250"/>
      <point x="473" y="260" type="curve" smooth="yes"/>
      <point x="473" y="274"/>
      <point x="483" y="284"/>
      <point x="495" y="284" type="curve" smooth="yes"/>
      <point x="509" y="284"/>
      <point x="517" y="274"/>
      <point x="517" y="260" type="curve" smooth="yes"/>
      <point x="517" y="250"/>
      <point x="509" y="238"/>
    </contour>
    <contour>
      <point x="48" y="523" type="line" smooth="yes"/>
      <point x="20" y="526"/>
      <point x="16" y="486"/>
      <point x="42" y="485" type="curve" smooth="yes"/>
      <point x="238" y="476" type="line" smooth="yes"/>
      <point x="258" y="475"/>
      <point x="262" y="504"/>
      <point x="236" y="506" type="curve" smooth="yes"/>
    </contour>
    <contour>
      <point x="16" y="369" type="line" smooth="yes"/>
      <point x="-2" y="367"/>
      <point x="2" y="340"/>
      <point x="19" y="342" type="curve" smooth="yes"/>
      <point x="218" y="363" type="line" smooth="yes"/>
      <point x="237" y="365"/>
      <point x="234" y="399"/>
      <point x="211" y="396" type="curve" smooth="yes"/>
    </contour>
    <contour>
      <point x="170" y="247" type="line" smooth="yes"/>
      <point x="191" y="247"/>
      <point x="193" y="276"/>
      <point x="168" y="276" type="curve" smooth="yes"/>
      <point x="59" y="277" type="line" smooth="yes"/>
      <point x="35" y="277"/>
      <point x="35" y="248"/>
      <point x="58" y="248" type="curve" smooth="yes"/>
    </contour>
    <contour>
      <point x="395" y="549" type="line" smooth="yes"/>
      <point x="374" y="539"/>
      <point x="387" y="513"/>
      <point x="406" y="522" type="curve" smooth="yes"/>
      <point x="584" y="606" type="line" smooth="yes"/>
      <point x="602" y="615"/>
      <point x="593" y="645"/>
      <point x="570" y="634" type="curve" smooth="yes"/>
    </contour>
    <contour>
      <point x="404" y="637" type="line"/>
      <point x="442" y="615" type="line"/>
      <point x="489" y="673" type="line" smooth="yes"/>
      <point x="502" y="690"/>
      <point x="481" y="712"/>
      <point x="464" y="695" type="curve" smooth="yes"/>
    </contour>
  </outline>
</glyph>
<glyph name="E" format="2">
  <advance width="473"/>
  <unicode hex="0045"/>
  <anchor x="279" y="31" name="cedilla"/>
  <anchor x="429" y="57" name="ogonek"/>
  <anchor x="305" y="693" name="top"/>
  <outline>
    <contour>
      <point x="55" y="51" type="line" smooth="yes"/>
      <point x="50" y="7"/>
      <point x="71" y="-16"/>
      <point x="120" y="-13" type="curve" smooth="yes"/>
      <point x="443" y="7" type="line" smooth="yes"/>
      <point x="462" y="8"/>
      <point x="460" y="28"/>
      <point x="443" y="28" type="curve" smooth="yes"/>
      <point x="155" y="21" type="line" smooth="yes"/>
      <point x="131" y="20"/>
      <point x="118" y="32"/>
      <point x="115" y="64" type="curve" smooth="yes"/>
      <point x="104" y="187" type="line" smooth="yes"/>
      <point x="102" y="208"/>
      <point x="107" y="222"/>
      <point x="121" y="225" type="curve" smooth="yes"/>
      <point x="386" y="281" type="line" smooth="yes"/>
      <point x="408" y="286"/>
      <point x="398" y="312"/>
      <point x="379" y="308" type="curve" smooth="yes"/>
      <point x="126" y="249" type="line" smooth="yes"/>
      <point x="112" y="246"/>
      <point x="105" y="252"/>
      <point x="107" y="269" type="curve" smooth="yes"/>
      <point x="135" y="575" type="line" smooth="yes"/>
      <point x="137" y="602"/>
      <point x="146" y="610"/>
      <point x="173" y="607" type="curve" smooth="yes"/>
      <point x="426" y="581" type="line" smooth="yes"/>
      <point x="493" y="574"/>
      <point x="514" y="721"/>
      <point x="418" y="703" type="curve" smooth="yes"/>
      <point x="161" y="656" type="line" smooth="yes"/>
      <point x="136" y="651"/>
      <point x="120" y="636"/>
      <point x="116" y="601" type="curve" smooth="yes"/>
    </contour>
    <contour>
      <point x="298" y="391" type="curve" smooth="yes"/>
      <point x="322" y="391"/>
      <point x="341" y="410"/>
      <point x="341" y="435" type="curve" smooth="yes"/>
      <point x="341" y="457"/>
      <point x="322" y="477"/>
      <point x="298" y="477" type="curve" smooth="yes"/>
      <point x="273" y="477"/>
      <point x="254" y="457"/>
      <point x="254" y="435" type="curve" smooth="yes"/>
      <point x="254" y="410"/>
      <point x="273" y="391"/>
    </contour>
    <contour>
      <point x="358" y="588" type="line"/>
      <point x="372" y="644" type="line" smooth="yes"/>
      <point x="379" y="671"/>
      <point x="432" y="663"/>
      <point x="418" y="631" type="curve" smooth="yes"/>
      <point x="397" y="584" type="line"/>
    </contour>
    <contour>
      <point x="271" y="597" type="line"/>
      <point x="272" y="628" type="line" smooth="yes"/>
      <point x="273" y="654"/>
      <point x="314" y="650"/>
      <point x="316" y="628" type="curve" smooth="yes"/>
      <point x="319" y="592" type="line"/>
    </contour>
    <contour>
      <point x="348" y="-39" type="line" smooth="yes"/>
      <point x="346" y="-67"/>
      <point x="378" y="-66"/>
      <point x="380" y="-38" type="curve" smooth="yes"/>
      <point x="391" y="95" type="line" smooth="yes"/>
      <point x="393" y="120"/>
      <point x="360" y="119"/>
      <point x="358" y="97" type="curve" smooth="yes"/>
    </contour>
    <contour>
      <point x="257" y="-77" type="line" smooth="yes"/>
      <point x="259" y="-105"/>
      <point x="297" y="-97"/>
      <point x="294" y="-69" type="curve" smooth="yes"/>
      <point x="276" y="81" type="line" smooth="yes"/>
      <point x="273" y="104"/>
      <point x="242" y="97"/>
      <point x="244" y="77" type="curve" smooth="yes"/>
    </contour>
    <contour>
      <point x="48" y="535" type="line" smooth="yes"/>
      <point x="27" y="538"/>
      <point x="21" y="514"/>
      <point x="44" y="510" type="curve" smooth="yes"/>
      <point x="193" y="481" type="line" smooth="yes"/>
      <point x="215" y="477"/>
      <point x="223" y="510"/>
      <point x="200" y="513" type="curve" smooth="yes"/>
    </contour>
    <contour>
      <point x="61" y="460" type="line" smooth="yes"/>
      <point x="41" y="467"/>
      <point x="32" y="438"/>
      <point x="53" y="431" type="curve" smooth="yes"/>
      <point x="156" y="398" type="line" smooth="yes"/>
      <point x="173" y="392"/>
      <point x="183" y="418"/>
      <point x="163" y="425" type="curve" smooth="yes"/>
    </contour>
    <contour>
      <point x="279" y="269" type="line"/>
      <point x="250" y="261" type="line"/>
      <point x="269" y="203" type="line" smooth="yes"/>
      <point x="275" y="186"/>
      <point x="299" y="190"/>
      <point x="294" y="211" type="curve" smooth="yes"/>
    </contour>
    <contour>
      <point x="343" y="324" type="line" smooth="yes"/>
      <point x="339" y="346"/>
      <point x="310" y="341"/>
      <point x="313" y="321" type="curve" smooth="yes"/>
      <point x="332" y="197" type="line" smooth="yes"/>
      <point x="335" y="179"/>
      <point x="368" y="182"/>
      <point x="364" y="204" type="curve" smooth="yes"/>
    </contour>
  </outline>
</glyph>
<glyph name="G" format="2">
  <advance width="590"/>
  <unicode hex="0047"/>
  <anchor x="337" y="0" name="bottom"/>
  <anchor x="343" y="700" name="top"/>
  <outline>
    <contour>
      <point x="39" y="275" type="curve" smooth="yes"/>
      <point x="39" y="78"/>
      <point x="175" y="16"/>
      <point x="282" y="16" type="curve" smooth="yes"/>
      <point x="373" y="16"/>
      <point x="451" y="51"/>
      <point x="497" y="98" type="curve" smooth="yes"/>
      <point x="517" y="118"/>
      <point x="528" y="101"/>
      <point x="526" y="83" type="curve" smooth="yes"/>
      <point x="513" y="-37" type="line" smooth="yes"/>
      <point x="509" y="-78"/>
      <point x="593" y="-83"/>
      <point x="585" y="-26" type="curve" smooth="yes"/>
      <point x="545" y="265" type="line" smooth="yes"/>
      <point x="540" y="300"/>
      <point x="534" y="327"/>
      <point x="496" y="330" type="curve" smooth="yes"/>
      <point x="398" y="337" type="line" smooth="yes"/>
      <point x="375" y="339"/>
      <point x="373" y="307"/>
      <point x="397" y="306" type="curve" smooth="yes"/>
      <point x="485" y="304" type="line" smooth="yes"/>
      <point x="518" y="303"/>
      <point x="527" y="283"/>
      <point x="527" y="223" type="curve" smooth="yes"/>
      <point x="527" y="104"/>
      <point x="408" y="41"/>
      <point x="281" y="41" type="curve" smooth="yes"/>
      <point x="147" y="41"/>
      <point x="64" y="129"/>
      <point x="64" y="274" type="curve" smooth="yes"/>
      <point x="64" y="394"/>
      <point x="114" y="450"/>
      <point x="206" y="510" type="curve" smooth="yes"/>
      <point x="278" y="558"/>
      <point x="364" y="592"/>
      <point x="416" y="604" type="curve" smooth="yes"/>
      <point x="470" y="616"/>
      <point x="490" y="638"/>
      <point x="490" y="665" type="curve" smooth="yes"/>
      <point x="490" y="690"/>
      <point x="470" y="712"/>
      <point x="389" y="712" type="curve" smooth="yes"/>
      <point x="252" y="712"/>
      <point x="39" y="621"/>
    </contour>
    <contour>
      <point x="348" y="619" type="curve" smooth="yes"/>
      <point x="333" y="619"/>
      <point x="321" y="630"/>
      <point x="321" y="646" type="curve" smooth="yes"/>
      <point x="321" y="659"/>
      <point x="333" y="671"/>
      <point x="348" y="671" type="curve" smooth="yes"/>
      <point x="361" y="671"/>
      <point x="373" y="659"/>
      <point x="373" y="646" type="curve" smooth="yes"/>
      <point x="373" y="630"/>
      <point x="361" y="619"/>
    </contour>
    <contour>
      <point x="269" y="582" type="curve" smooth="yes"/>
      <point x="251" y="582"/>
      <point x="235" y="598"/>
      <point x="235" y="616" type="curve" smooth="yes"/>
      <point x="235" y="634"/>
      <point x="251" y="649"/>
      <point x="269" y="649" type="curve" smooth="yes"/>
      <point x="287" y="649"/>
      <point x="302" y="634"/>
      <point x="302" y="616" type="curve" smooth="yes"/>
      <point x="302" y="598"/>
      <point x="287" y="582"/>
    </contour>
    <contour>
      <point x="198" y="542" type="curve" smooth="yes"/>
      <point x="184" y="542"/>
      <point x="172" y="554"/>
      <point x="172" y="568" type="curve" smooth="yes"/>
      <point x="172" y="582"/>
      <point x="184" y="594"/>
      <point x="198" y="594" type="curve" smooth="yes"/>
      <point x="211" y="594"/>
      <point x="223" y="582"/>
      <point x="223" y="568" type="curve" smooth="yes"/>
      <point x="223" y="554"/>
      <point x="211" y="542"/>
    </contour>
    <contour>
      <point x="397" y="214" type="line" smooth="yes"/>
      <point x="417" y="215"/>
      <point x="416" y="240"/>
      <point x="397" y="240" type="curve" smooth="yes"/>
      <point x="243" y="243" type="line" smooth="yes"/>
      <point x="214" y="244"/>
      <point x="216" y="204"/>
      <point x="246" y="206" type="curve" smooth="yes"/>
    </contour>
    <contour>
      <point x="324" y="307" type="line" smooth="yes"/>
      <point x="344" y="307"/>
      <point x="346" y="339"/>
      <point x="327" y="340" type="curve" smooth="yes"/>
      <point x="279" y="343" type="line" smooth="yes"/>
      <point x="255" y="344"/>
      <point x="253" y="307"/>
      <point x="281" y="307" type="curve" smooth="yes"/>
    </contour>
    <contour>
      <point x="457" y="205" type="curve" smooth="yes"/>
      <point x="469" y="205"/>
      <point x="479" y="214"/>
      <point x="479" y="228" type="curve" smooth="yes"/>
      <point x="479" y="240"/>
      <point x="469" y="250"/>
      <point x="457" y="250" type="curve" smooth="yes"/>
      <point x="443" y="250"/>
      <point x="434" y="240"/>
      <point x="434" y="228" type="curve" smooth="yes"/>
      <point x="434" y="214"/>
      <point x="443" y="205"/>
    </contour>
    <contour>
      <point x="177" y="129" type="line" smooth="yes"/>
      <point x="192" y="151"/>
      <point x="167" y="170"/>
      <point x="152" y="148" type="curve" smooth="yes"/>
      <point x="70" y="25" type="line" smooth="yes"/>
      <point x="54" y="1"/>
      <point x="79" y="-15"/>
      <point x="96" y="10" type="curve" smooth="yes"/>
    </contour>
    <contour>
      <point x="255" y="135" type="line" smooth="yes"/>
      <point x="260" y="155"/>
      <point x="234" y="157"/>
      <point x="229" y="138" type="curve" smooth="yes"/>
      <point x="174" y="-65" type="line" smooth="yes"/>
      <point x="166" y="-94"/>
      <point x="201" y="-97"/>
      <point x="208" y="-67" type="curve" smooth="yes"/>
    </contour>
  </outline>
</glyph>
<glyph name="H" format="2">
  <advance width="567"/>
  <unicode hex="0048"/>
  <anchor x="236" y="-20" name="bottom"/>
  <anchor x="308" y="710" name="top"/>
  <outline>
    <contour>
      <point x="448" y="305" type="line" smooth="yes"/>
      <point x="458" y="305"/>
      <point x="463" y="301"/>
      <point x="463" y="291" type="curve" smooth="yes"/>
      <point x="455" y="-18" type="line" smooth="yes"/>
      <point x="454" y="-44"/>
      <point x="495" y="-44"/>
      <point x="494" y="-18" type="curve" smooth="yes"/>
      <point x="475" y="656" type="line" smooth="yes"/>
      <point x="474" y="675"/>
      <point x="456" y="675"/>
      <point x="455" y="656" type="curve" smooth="yes"/>
      <point x="448" y="440" type="line" smooth="yes"/>
      <point x="448" y="430"/>
      <point x="443" y="423"/>
      <point x="433" y="422" type="curve" smooth="yes"/>
      <point x="137" y="394" type="line" smooth="yes"/>
      <point x="127" y="393"/>
      <point x="122" y="402"/>
      <point x="122" y="412" type="curve" smooth="yes"/>
      <point x="132" y="711" type="line" smooth="yes"/>
      <point x="133" y="729"/>
      <point x="112" y="729"/>
      <point x="111" y="711" type="curve" smooth="yes"/>
      <point x="83" y="70" type="line" smooth="yes"/>
      <point x="82" y="48"/>
      <point x="107" y="48"/>
      <point x="108" y="70" type="curve" smooth="yes"/>
      <point x="116" y="306" type="line" smooth="yes"/>
      <point x="116" y="316"/>
      <point x="124" y="320"/>
      <point x="134" y="320" type="curve" smooth="yes"/>
    </contour>
    <contour>
      <point x="346" y="310" type="line"/>
      <point x="350" y="347" type="line" smooth="yes"/>
      <point x="353" y="374"/>
      <point x="388" y="373"/>
      <point x="388" y="346" type="curve" smooth="yes"/>
      <point x="388" y="308" type="line"/>
    </contour>
    <contour>
      <point x="263" y="314" type="line"/>
      <point x="262" y="354" type="line" smooth="yes"/>
      <point x="261" y="378"/>
      <point x="299" y="379"/>
      <point x="300" y="352" type="curve" smooth="yes"/>
      <point x="301" y="312" type="line"/>
    </contour>
    <contour>
      <point x="229" y="480" type="curve" smooth="yes"/>
      <point x="248" y="480"/>
      <point x="264" y="496"/>
      <point x="264" y="515" type="curve" smooth="yes"/>
      <point x="264" y="534"/>
      <point x="248" y="550"/>
      <point x="229" y="550" type="curve" smooth="yes"/>
      <point x="210" y="550"/>
      <point x="194" y="534"/>
      <point x="194" y="515" type="curve" smooth="yes"/>
      <point x="194" y="496"/>
      <point x="210" y="480"/>
    </contour>
    <contour>
      <point x="247" y="591" type="curve" smooth="yes"/>
      <point x="270" y="591"/>
      <point x="292" y="612"/>
      <point x="292" y="636" type="curve" smooth="yes"/>
      <point x="292" y="661"/>
      <point x="270" y="683"/>
      <point x="247" y="683" type="curve" smooth="yes"/>
      <point x="221" y="683"/>
      <point x="200" y="661"/>
      <point x="200" y="636" type="curve" smooth="yes"/>
      <point x="200" y="612"/>
      <point x="221" y="591"/>
    </contour>
    <contour>
      <point x="368" y="510" type="curve" smooth="yes"/>
      <point x="390" y="510"/>
      <point x="409" y="529"/>
      <point x="409" y="551" type="curve" smooth="yes"/>
      <point x="409" y="574"/>
      <point x="390" y="593"/>
      <point x="368" y="593" type="curve" smooth="yes"/>
      <point x="345" y="593"/>
      <point x="326" y="574"/>
      <point x="326" y="551" type="curve" smooth="yes"/>
      <point x="326" y="529"/>
      <point x="345" y="510"/>
    </contour>
    <contour>
      <point x="309" y="177" type="line" smooth="yes"/>
      <point x="288" y="178"/>
      <point x="287" y="152"/>
      <point x="304" y="151" type="curve" smooth="yes"/>
      <point x="520" y="142" type="line" smooth="yes"/>
      <point x="538" y="141"/>
      <point x="543" y="168"/>
      <point x="518" y="169" type="curve" smooth="yes"/>
    </contour>
    <contour>
      <point x="348" y="77" type="line" smooth="yes"/>
      <point x="320" y="76"/>
      <point x="326" y="43"/>
      <point x="350" y="45" type="curve" smooth="yes"/>
      <point x="532" y="57" type="line" smooth="yes"/>
      <point x="550" y="58"/>
      <point x="551" y="87"/>
      <point x="526" y="86" type="curve" smooth="yes"/>
    </contour>
    <contour>
      <point x="45" y="236" type="line" smooth="yes"/>
      <point x="24" y="238"/>
      <point x="22" y="214"/>
      <point x="40" y="212" type="curve" smooth="yes"/>
      <point x="177" y="197" type="line" smooth="yes"/>
      <point x="200" y="194"/>
      <point x="203" y="221"/>
      <point x="179" y="223" type="curve" smooth="yes"/>
    </contour>
  </outline>
</glyph>
<glyph name="I" format="2">
  <advance width="417"/>
  <unicode hex="0049"/>
  <anchor x="326" y="10" name="ogonek"/>
  <anchor x="240" y="715" name="top"/>
  <outline>
    <contour>
      <point x="69" y="-7" type="curve" smooth="yes"/>
      <point x="370" y="13" type="line" smooth="yes"/>
      <point x="421" y="16"/>
      <point x="410" y="103"/>
      <point x="360" y="96" type="curve" smooth="yes"/>
      <point x="268" y="84" type="line" smooth="yes"/>
      <point x="254" y="82"/>
      <point x="249" y="88"/>
      <point x="248" y="108" type="curve" smooth="yes"/>
      <point x="229" y="578" type="line" smooth="yes"/>
      <point x="228" y="598"/>
      <point x="235" y="607"/>
      <point x="258" y="607" type="curve" smooth="yes"/>
      <point x="365" y="606" type="line" smooth="yes"/>
      <point x="408" y="606"/>
      <point x="421" y="677"/>
      <point x="366" y="683" type="curve" smooth="yes"/>
      <point x="74" y="715" type="line" smooth="yes"/>
      <point x="9" y="722"/>
      <point x="3" y="616"/>
      <point x="66" y="613" type="curve" smooth="yes"/>
      <point x="172" y="608" type="line" smooth="yes"/>
      <point x="193" y="607"/>
      <point x="204" y="600"/>
      <point x="205" y="580" type="curve" smooth="yes"/>
      <point x="225" y="104" type="line" smooth="yes"/>
      <point x="226" y="86"/>
      <point x="222" y="78"/>
      <point x="204" y="75" type="curve" smooth="yes"/>
      <point x="63" y="53" type="line" smooth="yes"/>
      <point x="26" y="47"/>
      <point x="34" y="-9"/>
    </contour>
    <contour>
      <point x="222" y="517" type="line"/>
      <point x="224" y="490" type="line"/>
      <point x="303" y="497" type="line" smooth="yes"/>
      <point x="326" y="499"/>
      <point x="325" y="525"/>
      <point x="300" y="523" type="curve" smooth="yes"/>
    </contour>
    <contour>
      <point x="96" y="428" type="line" smooth="yes"/>
      <point x="72" y="429"/>
      <point x="72" y="404"/>
      <point x="94" y="403" type="curve" smooth="yes"/>
      <point x="332" y="387" type="line" smooth="yes"/>
      <point x="357" y="385"/>
      <point x="360" y="414"/>
      <point x="335" y="415" type="curve" smooth="yes"/>
    </contour>
    <contour>
      <point x="144" y="307" type="line" smooth="yes"/>
      <point x="124" y="306"/>
      <point x="128" y="278"/>
      <point x="146" y="280" type="curve" smooth="yes"/>
      <point x="230" y="289" type="line"/>
      <point x="227" y="313" type="line"/>
    </contour>
    <contour>
      <point x="107" y="202" type="line" smooth="yes"/>
      <point x="81" y="201"/>
      <point x="84" y="171"/>
      <point x="110" y="173" type="curve" smooth="yes"/>
      <point x="295" y="186" type="line" smooth="yes"/>
      <point x="316" y="187"/>
      <point x="312" y="211"/>
      <point x="292" y="210" type="curve" smooth="yes"/>
    </contour>
    <contour>
      <point x="138" y="708" type="line"/>
      <point x="165" y="705" type="line"/>
      <point x="161" y="661" type="line" smooth="yes"/>
      <point x="159" y="641"/>
      <point x="129" y="641"/>
      <point x="132" y="664" type="curve" smooth="yes"/>
    </contour>
    <contour>
      <point x="193" y="702" type="line"/>
      <point x="220" y="699" type="line"/>
      <point x="217" y="655" type="line" smooth="yes"/>
      <point x="216" y="636"/>
      <point x="195" y="634"/>
      <point x="194" y="657" type="curve" smooth="yes"/>
    </contour>
    <contour>
      <point x="249" y="696" type="line"/>
      <point x="275" y="693" type="line"/>
      <point x="275" y="653" type="line" smooth="yes"/>
      <point x="275" y="635"/>
      <point x="243" y="638"/>
      <point x="245" y="660" type="curve" smooth="yes"/>
    </contour>
    <contour>
      <point x="265" y="6" type="line"/>
      <point x="264" y="38" type="line" smooth="yes"/>
      <point x="264" y="53"/>
      <point x="283" y="57"/>
      <point x="287" y="42" type="curve" smooth="yes"/>
      <point x="296" y="8" type="line"/>
    </contour>
    <contour>
      <point x="324" y="10" type="line"/>
      <point x="318" y="54" type="line" smooth="yes"/>
      <point x="316" y="71"/>
      <point x="342" y="78"/>
      <point x="346" y="57" type="curve" smooth="yes"/>
      <point x="354" y="12" type="line"/>
    </contour>
  </outline>
</glyph>
<glyph name="J" format="2">
  <advance width="489"/>
  <unicode hex="004A"/>
  <anchor x="211" y="0" name="bottom"/>
  <anchor x="223" y="718" name="top"/>
  <outline>
    <contour>
      <point x="198" y="-17" type="curve" smooth="yes"/>
      <point x="319" y="-17"/>
      <point x="427" y="50"/>
      <point x="406" y="249" type="curve" smooth="yes"/>
      <point x="365" y="638" type="line" smooth="yes"/>
      <point x="361" y="674"/>
      <point x="343" y="690"/>
      <point x="317" y="691" type="curve" smooth="yes"/>
      <point x="89" y="703" type="line" smooth="yes"/>
      <point x="58" y="705"/>
      <point x="57" y="666"/>
      <point x="85" y="666" type="curve" smooth="yes"/>
      <point x="306" y="668" type="line" smooth="yes"/>
      <point x="326" y="668"/>
      <point x="338" y="662"/>
      <point x="341" y="633" type="curve" smooth="yes"/>
      <point x="380" y="258" type="line" smooth="yes"/>
      <point x="390" y="161"/>
      <point x="318" y="87"/>
      <point x="207" y="87" type="curve" smooth="yes"/>
      <point x="131" y="87"/>
      <point x="104" y="107"/>
      <point x="72" y="107" type="curve" smooth="yes"/>
      <point x="44" y="107"/>
      <point x="29" y="62"/>
      <point x="52" y="33" type="curve" smooth="yes"/>
      <point x="77" y="4"/>
      <point x="138" y="-17"/>
    </contour>
    <contour>
      <point x="436" y="626" type="line" smooth="yes"/>
      <point x="458" y="630"/>
      <point x="452" y="651"/>
      <point x="432" y="648" type="curve" smooth="yes"/>
      <point x="54" y="600" type="line" smooth="yes"/>
      <point x="24" y="596"/>
      <point x="31" y="562"/>
      <point x="59" y="566" type="curve" smooth="yes"/>
    </contour>
    <contour>
      <point x="357" y="538" type="line"/>
      <point x="354" y="568" type="line"/>
      <point x="297" y="563" type="line" smooth="yes"/>
      <point x="270" y="561"/>
      <point x="272" y="535"/>
      <point x="297" y="536" type="curve" smooth="yes"/>
    </contour>
    <contour>
      <point x="430" y="499" type="line" smooth="yes"/>
      <point x="455" y="502"/>
      <point x="448" y="528"/>
      <point x="425" y="525" type="curve" smooth="yes"/>
      <point x="241" y="503" type="line" smooth="yes"/>
      <point x="214" y="500"/>
      <point x="219" y="471"/>
      <point x="244" y="474" type="curve" smooth="yes"/>
    </contour>
    <contour>
      <point x="377" y="450" type="line"/>
      <point x="377" y="427" type="line"/>
      <point x="458" y="427" type="line" smooth="yes"/>
      <point x="482" y="427"/>
      <point x="481" y="459"/>
      <point x="459" y="457" type="curve" smooth="yes"/>
    </contour>
    <contour>
      <point x="196" y="245" type="curve" smooth="yes"/>
      <point x="232" y="245"/>
      <point x="263" y="276"/>
      <point x="263" y="312" type="curve" smooth="yes"/>
      <point x="263" y="349"/>
      <point x="232" y="379"/>
      <point x="196" y="379" type="curve" smooth="yes"/>
      <point x="159" y="379"/>
      <point x="129" y="349"/>
      <point x="129" y="312" type="curve" smooth="yes"/>
      <point x="129" y="276"/>
      <point x="159" y="245"/>
    </contour>
    <contour>
      <point x="191" y="271" type="curve" smooth="yes"/>
      <point x="172" y="271"/>
      <point x="157" y="287"/>
      <point x="157" y="305" type="curve" smooth="yes"/>
      <point x="157" y="324"/>
      <point x="172" y="339"/>
      <point x="191" y="339" type="curve" smooth="yes"/>
      <point x="209" y="339"/>
      <point x="225" y="324"/>
      <point x="225" y="305" type="curve" smooth="yes"/>
      <point x="225" y="287"/>
      <point x="209" y="271"/>
    </contour>
    <contour>
      <point x="131" y="28" type="curve" smooth="yes"/>
      <point x="120" y="28"/>
      <point x="111" y="36"/>
      <point x="111" y="47" type="curve" smooth="yes"/>
      <point x="111" y="59"/>
      <point x="120" y="67"/>
      <point x="131" y="67" type="curve" smooth="yes"/>
      <point x="143" y="67"/>
      <point x="151" y="59"/>
      <point x="151" y="47" type="curve" smooth="yes"/>
      <point x="151" y="36"/>
      <point x="143" y="28"/>
    </contour>
    <contour>
      <point x="194" y="10" type="curve" smooth="yes"/>
      <point x="180" y="10"/>
      <point x="169" y="21"/>
      <point x="169" y="35" type="curve" smooth="yes"/>
      <point x="169" y="49"/>
      <point x="180" y="60"/>
      <point x="194" y="60" type="curve" smooth="yes"/>
      <point x="208" y="60"/>
      <point x="219" y="49"/>
      <point x="219" y="35" type="curve" smooth="yes"/>
      <point x="219" y="21"/>
      <point x="208" y="10"/>
    </contour>
    <contour>
      <point x="257" y="27" type="curve" smooth="yes"/>
      <point x="245" y="27"/>
      <point x="235" y="36"/>
      <point x="235" y="49" type="curve" smooth="yes"/>
      <point x="235" y="61"/>
      <point x="245" y="70"/>
      <point x="257" y="70" type="curve" smooth="yes"/>
      <point x="270" y="70"/>
      <point x="279" y="61"/>
      <point x="279" y="49" type="curve" smooth="yes"/>
      <point x="279" y="36"/>
      <point x="270" y="27"/>
    </contour>
  </outline>
</glyph>
<glyph name="K" format="2">
  <advance width="567"/>
  <unicode hex="004B"/>
  <anchor x="280" y="-17" name="bottom"/>
  <anchor x="300" y="670" name="top"/>
  <outline>
    <contour>
      <point x="120" y="1" type="line" smooth="yes"/>
      <point x="121" y="-24"/>
      <point x="141" y="-17"/>
      <point x="140" y="7" type="curve" smooth="yes"/>
      <point x="134" y="253" type="line" smooth="yes"/>
      <point x="133" y="279"/>
      <point x="153" y="282"/>
      <point x="174" y="263" type="curve" smooth="yes"/>
      <point x="461" y="6" type="line" smooth="yes"/>
      <point x="522" y="-48"/>
      <point x="575" y="-4"/>
      <point x="575" y="38" type="curve" smooth="yes"/>
      <point x="575" y="59"/>
      <point x="567" y="73"/>
      <point x="551" y="82" type="curve" smooth="yes"/>
      <point x="496" y="115" type="line"/>
      <point x="464" y="68" type="line" smooth="yes"/>
      <point x="450" y="48"/>
      <point x="420" y="62"/>
      <point x="435" y="88" type="curve" smooth="yes"/>
      <point x="462" y="135" type="line"/>
      <point x="430" y="154" type="line"/>
      <point x="418" y="120" type="line" smooth="yes"/>
      <point x="410" y="97"/>
      <point x="371" y="115"/>
      <point x="382" y="139" type="curve" smooth="yes"/>
      <point x="398" y="173" type="line"/>
      <point x="181" y="302" type="line" smooth="yes"/>
      <point x="163" y="313"/>
      <point x="156" y="331"/>
      <point x="176" y="349" type="curve" smooth="yes"/>
      <point x="519" y="673" type="line" smooth="yes"/>
      <point x="537" y="690"/>
      <point x="519" y="708"/>
      <point x="502" y="692" type="curve" smooth="yes"/>
      <point x="170" y="375" type="line" smooth="yes"/>
      <point x="149" y="355"/>
      <point x="129" y="366"/>
      <point x="128" y="388" type="curve" smooth="yes"/>
      <point x="119" y="536" type="line" smooth="yes"/>
      <point x="117" y="561"/>
      <point x="87" y="561"/>
      <point x="89" y="533" type="curve" smooth="yes"/>
    </contour>
    <contour>
      <point x="427" y="324" type="curve" smooth="yes"/>
      <point x="457" y="324"/>
      <point x="482" y="349"/>
      <point x="482" y="380" type="curve" smooth="yes"/>
      <point x="482" y="410"/>
      <point x="457" y="435"/>
      <point x="427" y="435" type="curve" smooth="yes"/>
      <point x="396" y="435"/>
      <point x="371" y="410"/>
      <point x="371" y="380" type="curve" smooth="yes"/>
      <point x="371" y="349"/>
      <point x="396" y="324"/>
    </contour>
    <contour>
      <point x="361" y="664" type="line" smooth="yes"/>
      <point x="340" y="682"/>
      <point x="323" y="655"/>
      <point x="343" y="637" type="curve" smooth="yes"/>
      <point x="475" y="522" type="line" smooth="yes"/>
      <point x="497" y="502"/>
      <point x="519" y="533"/>
      <point x="494" y="554" type="curve" smooth="yes"/>
    </contour>
    <contour>
      <point x="262" y="593" type="line" smooth="yes"/>
      <point x="240" y="611"/>
      <point x="216" y="578"/>
      <point x="240" y="562" type="curve" smooth="yes"/>
      <point x="324" y="508" type="line" smooth="yes"/>
      <point x="335" y="501"/>
      <point x="356" y="515"/>
      <point x="336" y="531" type="curve" smooth="yes"/>
    </contour>
    <contour>
      <point x="83" y="178" type="line" smooth="yes"/>
      <point x="58" y="178"/>
      <point x="60" y="146"/>
      <point x="85" y="148" type="curve" smooth="yes"/>
      <point x="184" y="154" type="line" smooth="yes"/>
      <point x="201" y="155"/>
      <point x="201" y="178"/>
      <point x="180" y="178" type="curve" smooth="yes"/>
    </contour>
    <contour>
      <point x="66" y="80" type="line" smooth="yes"/>
      <point x="43" y="82"/>
      <point x="39" y="58"/>
      <point x="64" y="55" type="curve" smooth="yes"/>
      <point x="183" y="43" type="line" smooth="yes"/>
      <point x="207" y="41"/>
      <point x="207" y="71"/>
      <point x="186" y="72" type="curve" smooth="yes"/>
    </contour>
    <contour>
      <point x="101" y="578" type="curve" smooth="yes"/>
      <point x="118" y="578"/>
      <point x="133" y="593"/>
      <point x="133" y="611" type="curve" smooth="yes"/>
      <point x="133" y="628"/>
      <point x="118" y="643"/>
      <point x="101" y="643" type="curve" smooth="yes"/>
      <point x="83" y="643"/>
      <point x="68" y="628"/>
      <point x="68" y="611" type="curve" smooth="yes"/>
      <point x="68" y="593"/>
      <point x="83" y="578"/>
    </contour>
    <contour>
      <point x="96" y="665" type="curve" smooth="yes"/>
      <point x="113" y="665"/>
      <point x="127" y="679"/>
      <point x="127" y="697" type="curve" smooth="yes"/>
      <point x="127" y="714"/>
      <point x="113" y="728"/>
      <point x="96" y="728" type="curve" smooth="yes"/>
      <point x="78" y="728"/>
      <point x="64" y="714"/>
      <point x="64" y="697" type="curve" smooth="yes"/>
      <point x="64" y="679"/>
      <point x="78" y="665"/>
    </contour>
  </outline>
</glyph>
<glyph name="L" format="2">
  <advance width="440"/>
  <unicode hex="004C"/>
  <anchor x="254" y="0" name="bottom"/>
  <anchor x="181" y="720" name="top"/>
  <outline>
    <contour>
      <point x="56" y="48" type="line" smooth="yes"/>
      <point x="51" y="3"/>
      <point x="75" y="-18"/>
      <point x="127" y="-13" type="curve" smooth="yes"/>
      <point x="395" y="14" type="line" smooth="yes"/>
      <point x="470" y="22"/>
      <point x="453" y="160"/>
      <point x="381" y="136" type="curve" smooth="yes"/>
      <point x="130" y="52" type="line" smooth="yes"/>
      <point x="96" y="41"/>
      <point x="77" y="57"/>
      <point x="81" y="88" type="curve" smooth="yes"/>
      <point x="154" y="691" type="line" smooth="yes"/>
      <point x="157" y="717"/>
      <point x="133" y="720"/>
      <point x="130" y="697" type="curve" smooth="yes"/>
    </contour>
    <contour>
      <point x="135" y="598" type="line"/>
      <point x="139" y="637" type="line"/>
      <point x="65" y="644" type="line" smooth="yes"/>
      <point x="41" y="646"/>
      <point x="37" y="610"/>
      <point x="62" y="607" type="curve" smooth="yes"/>
    </contour>
    <contour>
      <point x="66" y="553" type="line" smooth="yes"/>
      <point x="44" y="549"/>
      <point x="49" y="521"/>
      <point x="69" y="525" type="curve" smooth="yes"/>
      <point x="258" y="560" type="line" smooth="yes"/>
      <point x="285" y="565"/>
      <point x="277" y="596"/>
      <point x="253" y="591" type="curve" smooth="yes"/>
    </contour>
    <contour>
      <point x="122" y="469" type="line"/>
      <point x="119" y="438" type="line"/>
      <point x="213" y="430" type="line" smooth="yes"/>
      <point x="241" y="428"/>
      <point x="242" y="468"/>
      <point x="217" y="468" type="curve" smooth="yes"/>
    </contour>
    <contour>
      <point x="102" y="310" type="line"/>
      <point x="185" y="319" type="line" smooth="yes"/>
      <point x="210" y="322"/>
      <point x="206" y="356"/>
      <point x="182" y="354" type="curve" smooth="yes"/>
      <point x="104" y="347" type="line"/>
    </contour>
    <contour>
      <point x="226" y="84" type="line"/>
      <point x="235" y="53" type="line" smooth="yes"/>
      <point x="242" y="30"/>
      <point x="204" y="21"/>
      <point x="198" y="42" type="curve" smooth="yes"/>
      <point x="189" y="72" type="line"/>
    </contour>
    <contour>
      <point x="292" y="106" type="line"/>
      <point x="303" y="54" type="line" smooth="yes"/>
      <point x="308" y="30"/>
      <point x="268" y="24"/>
      <point x="265" y="50" type="curve" smooth="yes"/>
      <point x="259" y="95" type="line"/>
    </contour>
    <contour>
      <point x="348" y="125" type="line"/>
      <point x="367" y="85" type="line" smooth="yes"/>
      <point x="380" y="58"/>
      <point x="334" y="42"/>
      <point x="325" y="72" type="curve" smooth="yes"/>
      <point x="312" y="113" type="line"/>
    </contour>
  </outline>
</glyph>
<glyph name="M" format="2">
  <advance width="791"/>
  <unicode hex="004D"/>
  <anchor x="415" y="0" name="bottom"/>
  <anchor x="427" y="700" name="top"/>
  <outline>
    <contour>
      <point x="63" y="64" type="line" smooth="yes"/>
      <point x="60" y="38"/>
      <point x="89" y="32"/>
      <point x="92" y="61" type="curve" smooth="yes"/>
      <point x="139" y="495" type="line" smooth="yes"/>
      <point x="142" y="523"/>
      <point x="178" y="531"/>
      <point x="194" y="502" type="curve" smooth="yes"/>
      <point x="340" y="236" type="line" smooth="yes"/>
      <point x="367" y="186"/>
      <point x="419" y="195"/>
      <point x="441" y="231" type="curve" smooth="yes"/>
      <point x="619" y="522" type="line" smooth="yes"/>
      <point x="636" y="549"/>
      <point x="660" y="540"/>
      <point x="662" y="508" type="curve" smooth="yes"/>
      <point x="695" y="30" type="line" smooth="yes"/>
      <point x="697" y="-4"/>
      <point x="736" y="6"/>
      <point x="733" y="38" type="curve" smooth="yes"/>
      <point x="670" y="632" type="line" smooth="yes"/>
      <point x="664" y="693"/>
      <point x="594" y="703"/>
      <point x="571" y="646" type="curve" smooth="yes"/>
      <point x="421" y="268" type="line" smooth="yes"/>
      <point x="406" y="230"/>
      <point x="370" y="232"/>
      <point x="358" y="272" type="curve" smooth="yes"/>
      <point x="241" y="655" type="line" smooth="yes"/>
      <point x="225" y="706"/>
      <point x="142" y="706"/>
      <point x="135" y="646" type="curve" smooth="yes"/>
    </contour>
    <contour>
      <point x="252" y="618" type="line"/>
      <point x="264" y="580" type="line"/>
      <point x="202" y="571" type="line" smooth="yes"/>
      <point x="184" y="568"/>
      <point x="178" y="593"/>
      <point x="196" y="599" type="curve" smooth="yes"/>
    </contour>
    <contour>
      <point x="271" y="556" type="line"/>
      <point x="280" y="527" type="line"/>
      <point x="242" y="512" type="line" smooth="yes"/>
      <point x="215" y="501"/>
      <point x="200" y="544"/>
      <point x="228" y="549" type="curve" smooth="yes"/>
    </contour>
    <contour>
      <point x="605" y="564" type="curve" smooth="yes"/>
      <point x="589" y="564"/>
      <point x="577" y="576"/>
      <point x="577" y="592" type="curve" smooth="yes"/>
      <point x="577" y="607"/>
      <point x="589" y="619"/>
      <point x="605" y="619" type="curve" smooth="yes"/>
      <point x="620" y="619"/>
      <point x="632" y="607"/>
      <point x="632" y="592" type="curve" smooth="yes"/>
      <point x="632" y="576"/>
      <point x="620" y="564"/>
    </contour>
    <contour>
      <point x="386" y="66" type="curve" smooth="yes"/>
      <point x="408" y="66"/>
      <point x="428" y="85"/>
      <point x="428" y="110" type="curve" smooth="yes"/>
      <point x="428" y="134"/>
      <point x="408" y="154"/>
      <point x="386" y="154" type="curve" smooth="yes"/>
      <point x="359" y="154"/>
      <point x="340" y="134"/>
      <point x="340" y="110" type="curve" smooth="yes"/>
      <point x="340" y="85"/>
      <point x="359" y="66"/>
    </contour>
    <contour>
      <point x="762" y="138" type="line" smooth="yes"/>
      <point x="793" y="140"/>
      <point x="787" y="178"/>
      <point x="761" y="175" type="curve" smooth="yes"/>
      <point x="592" y="154" type="line" smooth="yes"/>
      <point x="566" y="151"/>
      <point x="568" y="125"/>
      <point x="593" y="127" type="curve" smooth="yes"/>
    </contour>
    <contour>
      <point x="610" y="237" type="curve" smooth="yes"/>
      <point x="749" y="226" type="line" smooth="yes"/>
      <point x="774" y="224"/>
      <point x="776" y="249"/>
      <point x="750" y="252" type="curve" smooth="yes"/>
      <point x="611" y="269" type="line" smooth="yes"/>
      <point x="585" y="272"/>
      <point x="579" y="239"/>
    </contour>
    <contour>
      <point x="221" y="140" type="line" smooth="yes"/>
      <point x="252" y="142"/>
      <point x="247" y="180"/>
      <point x="221" y="177" type="curve" smooth="yes"/>
      <point x="99" y="162" type="line" smooth="yes"/>
      <point x="74" y="159"/>
      <point x="76" y="129"/>
      <point x="100" y="131" type="curve" smooth="yes"/>
    </contour>
    <contour>
      <point x="45" y="268" type="curve" smooth="yes"/>
      <point x="201" y="272" type="line" smooth="yes"/>
      <point x="226" y="273"/>
      <point x="228" y="304"/>
      <point x="202" y="303" type="curve" smooth="yes"/>
      <point x="44" y="299" type="line" smooth="yes"/>
      <point x="24" y="298"/>
      <point x="20" y="267"/>
    </contour>
    <contour>
      <point x="586" y="468" type="line"/>
      <point x="557" y="479" type="line" smooth="yes"/>
      <point x="535" y="487"/>
      <point x="544" y="516"/>
      <point x="565" y="511" type="curve" smooth="yes"/>
      <point x="606" y="501" type="line"/>
    </contour>
  </outline>
</glyph>
<glyph name="N" format="2">
  <advance width="633"/>
  <unicode hex="004E"/>
  <anchor x="384" y="73" name="bottom"/>
  <anchor x="354" y="700" name="top"/>
  <outline>
    <contour>
      <point x="69" y="43" type="line" smooth="yes"/>
      <point x="62" y="-55"/>
      <point x="200" y="-46"/>
      <point x="194" y="47" type="curve" smooth="yes"/>
      <point x="154" y="664" type="line" smooth="yes"/>
      <point x="151" y="706"/>
      <point x="206" y="715"/>
      <point x="222" y="672" type="curve" smooth="yes"/>
      <point x="416" y="156" type="line" smooth="yes"/>
      <point x="440" y="93"/>
      <point x="510" y="102"/>
      <point x="514" y="171" type="curve" smooth="yes"/>
      <point x="546" y="719" type="line" smooth="yes"/>
      <point x="547" y="740"/>
      <point x="522" y="743"/>
      <point x="521" y="720" type="curve" smooth="yes"/>
      <point x="490" y="180" type="line" smooth="yes"/>
      <point x="488" y="137"/>
      <point x="454" y="134"/>
      <point x="437" y="178" type="curve" smooth="yes"/>
      <point x="243" y="697" type="line" smooth="yes"/>
      <point x="218" y="763"/>
      <point x="118" y="753"/>
      <point x="112" y="667" type="curve" smooth="yes"/>
    </contour>
    <contour>
      <point x="535" y="624" type="line" smooth="yes"/>
      <point x="515" y="624"/>
      <point x="514" y="584"/>
      <point x="534" y="585" type="curve" smooth="yes"/>
      <point x="617" y="590" type="line" smooth="yes"/>
      <point x="639" y="591"/>
      <point x="641" y="621"/>
      <point x="618" y="622" type="curve" smooth="yes"/>
    </contour>
    <contour>
      <point x="436" y="518" type="line" smooth="yes"/>
      <point x="415" y="517"/>
      <point x="415" y="494"/>
      <point x="436" y="494" type="curve" smooth="yes"/>
      <point x="624" y="496" type="line" smooth="yes"/>
      <point x="648" y="496"/>
      <point x="650" y="526"/>
      <point x="622" y="525" type="curve" smooth="yes"/>
    </contour>
    <contour>
      <point x="464" y="402" type="line" smooth="yes"/>
      <point x="444" y="401"/>
      <point x="443" y="374"/>
      <point x="463" y="374" type="curve" smooth="yes"/>
      <point x="590" y="375" type="line" smooth="yes"/>
      <point x="615" y="375"/>
      <point x="615" y="409"/>
      <point x="589" y="408" type="curve" smooth="yes"/>
    </contour>
    <contour>
      <point x="87" y="303" type="line"/>
      <point x="128" y="294" type="line" smooth="yes"/>
      <point x="157" y="288"/>
      <point x="149" y="252"/>
      <point x="118" y="254" type="curve" smooth="yes"/>
      <point x="84" y="256" type="line"/>
    </contour>
    <contour>
      <point x="80" y="201" type="line"/>
      <point x="128" y="200" type="line" smooth="yes"/>
      <point x="155" y="199"/>
      <point x="155" y="162"/>
      <point x="126" y="161" type="curve" smooth="yes"/>
      <point x="77" y="160" type="line"/>
    </contour>
    <contour>
      <point x="74" y="115" type="line"/>
      <point x="139" y="104" type="line" smooth="yes"/>
      <point x="170" y="99"/>
      <point x="162" y="49"/>
      <point x="132" y="56" type="curve" smooth="yes"/>
      <point x="71" y="70" type="line"/>
    </contour>
    <contour>
      <point x="410" y="579" type="curve" smooth="yes"/>
      <point x="433" y="579"/>
      <point x="454" y="600"/>
      <point x="454" y="625" type="curve" smooth="yes"/>
      <point x="454" y="648"/>
      <point x="433" y="669"/>
      <point x="410" y="669" type="curve" smooth="yes"/>
      <point x="385" y="669"/>
      <point x="364" y="648"/>
      <point x="364" y="625" type="curve" smooth="yes"/>
      <point x="364" y="600"/>
      <point x="385" y="579"/>
    </contour>
    <contour>
      <point x="297" y="172" type="curve" smooth="yes"/>
      <point x="319" y="172"/>
      <point x="338" y="191"/>
      <point x="338" y="214" type="curve" smooth="yes"/>
      <point x="338" y="236"/>
      <point x="319" y="255"/>
      <point x="297" y="255" type="curve" smooth="yes"/>
      <point x="274" y="255"/>
      <point x="255" y="236"/>
      <point x="255" y="214" type="curve" smooth="yes"/>
      <point x="255" y="191"/>
      <point x="274" y="172"/>
    </contour>
    <contour>
      <point x="254" y="434" type="line" smooth="yes"/>
      <point x="239" y="425"/>
      <point x="252" y="405"/>
      <point x="266" y="411" type="curve" smooth="yes"/>
      <point x="324" y="437" type="line"/>
      <point x="310" y="466" type="line"/>
    </contour>
    <contour>
      <point x="266" y="338" type="line" smooth="yes"/>
      <point x="251" y="327"/>
      <point x="268" y="301"/>
      <point x="283" y="312" type="curve" smooth="yes"/>
      <point x="404" y="403" type="line" smooth="yes"/>
      <point x="415" y="411"/>
      <point x="401" y="433"/>
      <point x="388" y="424" type="curve" smooth="yes"/>
    </contour>
  </outline>
</glyph>
<glyph name="O" format="2">
  <advance width="621"/>
  <unicode hex="004F"/>
  <anchor x="307" y="0" name="bottom"/>
  <anchor x="320" y="700" name="top"/>
  <outline>
    <contour>
      <point x="297" y="-12" type="curve" smooth="yes"/>
      <point x="482" y="-12"/>
      <point x="582" y="165"/>
      <point x="582" y="354" type="curve" smooth="yes"/>
      <point x="583" y="570"/>
      <point x="482" y="718"/>
      <point x="327" y="718" type="curve" smooth="yes"/>
      <point x="167" y="718"/>
      <point x="39" y="533"/>
      <point x="39" y="326" type="curve" smooth="yes"/>
      <point x="39" y="141"/>
      <point x="131" y="-12"/>
    </contour>
    <contour>
      <point x="294" y="94" type="curve" smooth="yes"/>
      <point x="134" y="94"/>
      <point x="66" y="190"/>
      <point x="66" y="333" type="curve" smooth="yes"/>
      <point x="66" y="510"/>
      <point x="177" y="693"/>
      <point x="326" y="693" type="curve" smooth="yes"/>
      <point x="463" y="693"/>
      <point x="552" y="551"/>
      <point x="552" y="400" type="curve" smooth="yes"/>
      <point x="552" y="200"/>
      <point x="408" y="94"/>
    </contour>
    <contour>
      <point x="442" y="116" type="curve" smooth="yes"/>
      <point x="456" y="116"/>
      <point x="467" y="106"/>
      <point x="467" y="91" type="curve" smooth="yes"/>
      <point x="467" y="78"/>
      <point x="456" y="67"/>
      <point x="442" y="67" type="curve" smooth="yes"/>
      <point x="428" y="67"/>
      <point x="418" y="78"/>
      <point x="418" y="91" type="curve" smooth="yes"/>
      <point x="418" y="106"/>
      <point x="428" y="116"/>
    </contour>
    <contour>
      <point x="372" y="83" type="curve" smooth="yes"/>
      <point x="388" y="83"/>
      <point x="400" y="70"/>
      <point x="400" y="54" type="curve" smooth="yes"/>
      <point x="400" y="37"/>
      <point x="388" y="26"/>
      <point x="372" y="26" type="curve" smooth="yes"/>
      <point x="355" y="26"/>
      <point x="343" y="37"/>
      <point x="343" y="54" type="curve" smooth="yes"/>
      <point x="343" y="70"/>
      <point x="355" y="83"/>
    </contour>
    <contour>
      <point x="288" y="65" type="curve" smooth="yes"/>
      <point x="303" y="65"/>
      <point x="314" y="54"/>
      <point x="314" y="39" type="curve" smooth="yes"/>
      <point x="314" y="25"/>
      <point x="303" y="13"/>
      <point x="288" y="13" type="curve" smooth="yes"/>
      <point x="274" y="13"/>
      <point x="262" y="25"/>
      <point x="262" y="39" type="curve" smooth="yes"/>
      <point x="262" y="54"/>
      <point x="274" y="65"/>
    </contour>
    <contour>
      <point x="434" y="668" type="line" smooth="yes"/>
      <point x="439" y="681"/>
      <point x="417" y="692"/>
      <point x="411" y="679" type="curve" smooth="yes"/>
      <point x="366" y="586" type="line" smooth="yes"/>
      <point x="355" y="564"/>
      <point x="387" y="553"/>
      <point x="396" y="575" type="curve" smooth="yes"/>
    </contour>
    <contour>
      <point x="187" y="643" type="line" smooth="yes"/>
      <point x="176" y="654"/>
      <point x="156" y="633"/>
      <point x="166" y="621" type="curve" smooth="yes"/>
      <point x="235" y="539" type="line" smooth="yes"/>
      <point x="248" y="523"/>
      <point x="272" y="550"/>
      <point x="257" y="567" type="curve" smooth="yes"/>
    </contour>
    <contour>
      <point x="88" y="478" type="line" smooth="yes"/>
      <point x="71" y="483"/>
      <point x="65" y="447"/>
      <point x="80" y="444" type="curve" smooth="yes"/>
      <point x="186" y="423" type="line" smooth="yes"/>
      <point x="204" y="419"/>
      <point x="209" y="444"/>
      <point x="188" y="450" type="curve" smooth="yes"/>
    </contour>
    <contour>
      <point x="67" y="264" type="line" smooth="yes"/>
      <point x="49" y="256"/>
      <point x="59" y="227"/>
      <point x="77" y="234" type="curve" smooth="yes"/>
      <point x="158" y="267" type="line" smooth="yes"/>
      <point x="183" y="277"/>
      <point x="170" y="310"/>
      <point x="147" y="300" type="curve" smooth="yes"/>
    </contour>
    <contour>
      <point x="201" y="91" type="line" smooth="yes"/>
      <point x="193" y="68"/>
      <point x="226" y="58"/>
      <point x="233" y="79" type="curve" smooth="yes"/>
      <point x="272" y="196" type="line" smooth="yes"/>
      <point x="280" y="219"/>
      <point x="250" y="231"/>
      <point x="242" y="209" type="curve" smooth="yes"/>
    </contour>
    <contour>
      <point x="407" y="247" type="line" smooth="yes"/>
      <point x="390" y="264"/>
      <point x="370" y="241"/>
      <point x="383" y="226" type="curve" smooth="yes"/>
      <point x="460" y="137" type="line" smooth="yes"/>
      <point x="477" y="118"/>
      <point x="505" y="149"/>
      <point x="486" y="168" type="curve" smooth="yes"/>
    </contour>
    <contour>
      <point x="443" y="374" type="line" smooth="yes"/>
      <point x="425" y="381"/>
      <point x="417" y="353"/>
      <point x="434" y="346" type="curve" smooth="yes"/>
      <point x="546" y="298" type="line" smooth="yes"/>
      <point x="568" y="288"/>
      <point x="577" y="321"/>
      <point x="557" y="329" type="curve" smooth="yes"/>
    </contour>
    <contour>
      <point x="395" y="481" type="line" smooth="yes"/>
      <point x="376" y="476"/>
      <point x="382" y="449"/>
      <point x="399" y="453" type="curve" smooth="yes"/>
      <point x="545" y="487" type="line" smooth="yes"/>
      <point x="559" y="490"/>
      <point x="557" y="523"/>
      <point x="537" y="518" type="curve" smooth="yes"/>
    </contour>
    <contour>
      <point x="296" y="418" type="curve" smooth="yes"/>
      <point x="271" y="418"/>
      <point x="252" y="398"/>
      <point x="252" y="374" type="curve" smooth="yes"/>
      <point x="252" y="349"/>
      <point x="271" y="332"/>
      <point x="296" y="332" type="curve" smooth="yes"/>
      <point x="320" y="332"/>
      <point x="338" y="349"/>
      <point x="338" y="374" type="curve" smooth="yes"/>
      <point x="338" y="398"/>
      <point x="320" y="418"/>
    </contour>
  </outline>
</glyph>
<glyph name="P" format="2">
  <advance width="526"/>
  <unicode hex="0050"/>
  <anchor x="130" y="0" name="bottom"/>
  <anchor x="264" y="701" name="top"/>
  <outline>
    <contour>
      <point x="135" y="646"/>
      <point x="157" y="666"/>
      <point x="184" y="667" type="curve" smooth="yes"/>
      <point x="281" y="672" type="line" smooth="yes"/>
      <point x="388" y="678"/>
      <point x="450" y="601"/>
      <point x="450" y="486" type="curve" smooth="yes"/>
      <point x="450" y="363"/>
      <point x="370" y="319"/>
      <point x="274" y="319" type="curve" smooth="yes"/>
      <point x="179" y="319" type="line" smooth="yes"/>
      <point x="133" y="319"/>
      <point x="101" y="336"/>
      <point x="106" y="381" type="curve" smooth="yes"/>
      <point x="130" y="597" type="line" smooth="yes"/>
    </contour>
    <contour>
      <point x="71" y="25" type="line" smooth="yes"/>
      <point x="69" y="-19"/>
      <point x="137" y="-26"/>
      <point x="146" y="17" type="curve" smooth="yes"/>
      <point x="195" y="256" type="line" smooth="yes"/>
      <point x="200" y="282"/>
      <point x="213" y="295"/>
      <point x="237" y="295" type="curve" smooth="yes"/>
      <point x="279" y="295" type="line" smooth="yes"/>
      <point x="381" y="295"/>
      <point x="477" y="360"/>
      <point x="477" y="484" type="curve" smooth="yes"/>
      <point x="477" y="614"/>
      <point x="410" y="688"/>
      <point x="311" y="696" type="curve" smooth="yes"/>
      <point x="174" y="707" type="line" smooth="yes"/>
      <point x="131" y="710"/>
      <point x="101" y="693"/>
      <point x="99" y="650" type="curve" smooth="yes"/>
    </contour>
    <contour>
      <point x="428" y="267" type="curve" smooth="yes"/>
      <point x="324" y="397" type="line" smooth="yes"/>
      <point x="312" y="412"/>
      <point x="297" y="397"/>
      <point x="306" y="384" type="curve" smooth="yes"/>
      <point x="405" y="245" type="line" smooth="yes"/>
      <point x="420" y="224"/>
      <point x="445" y="246"/>
    </contour>
    <contour>
      <point x="525" y="457" type="curve" smooth="yes"/>
      <point x="332" y="509" type="line" smooth="yes"/>
      <point x="311" y="515"/>
      <point x="302" y="486"/>
      <point x="323" y="481" type="curve" smooth="yes"/>
      <point x="522" y="432" type="line" smooth="yes"/>
      <point x="538" y="428"/>
      <point x="548" y="451"/>
    </contour>
    <contour>
      <point x="138" y="218" type="curve" smooth="yes"/>
      <point x="120" y="218"/>
      <point x="106" y="232"/>
      <point x="106" y="250" type="curve" smooth="yes"/>
      <point x="106" y="267"/>
      <point x="120" y="281"/>
      <point x="138" y="281" type="curve" smooth="yes"/>
      <point x="155" y="281"/>
      <point x="169" y="267"/>
      <point x="169" y="250" type="curve" smooth="yes"/>
      <point x="169" y="232"/>
      <point x="155" y="218"/>
    </contour>
    <contour>
      <point x="128" y="145" type="curve" smooth="yes"/>
      <point x="114" y="145"/>
      <point x="103" y="156"/>
      <point x="103" y="170" type="curve" smooth="yes"/>
      <point x="103" y="183"/>
      <point x="114" y="194"/>
      <point x="128" y="194" type="curve" smooth="yes"/>
      <point x="142" y="194"/>
      <point x="153" y="183"/>
      <point x="153" y="170" type="curve" smooth="yes"/>
      <point x="153" y="156"/>
      <point x="142" y="145"/>
    </contour>
    <contour>
      <point x="230" y="566" type="curve" smooth="yes"/>
      <point x="45" y="567" type="line" smooth="yes"/>
      <point x="25" y="567"/>
      <point x="25" y="535"/>
      <point x="45" y="535" type="curve" smooth="yes"/>
      <point x="233" y="539" type="line" smooth="yes"/>
      <point x="253" y="539"/>
      <point x="255" y="566"/>
    </contour>
    <contour>
      <point x="169" y="477" type="curve" smooth="yes"/>
      <point x="54" y="465" type="line" smooth="yes"/>
      <point x="36" y="463"/>
      <point x="38" y="435"/>
      <point x="56" y="437" type="curve" smooth="yes"/>
      <point x="172" y="452" type="line" smooth="yes"/>
      <point x="191" y="454"/>
      <point x="188" y="479"/>
    </contour>
    <contour>
      <point x="468" y="682" type="curve" smooth="yes"/>
      <point x="373" y="607" type="line" smooth="yes"/>
      <point x="358" y="595"/>
      <point x="370" y="577"/>
      <point x="385" y="588" type="curve" smooth="yes"/>
      <point x="487" y="658" type="line" smooth="yes"/>
      <point x="504" y="670"/>
      <point x="484" y="695"/>
    </contour>
  </outline>
</glyph>
<glyph name="Q" format="2">
  <advance width="645"/>
  <unicode hex="0051"/>
  <anchor x="263" y="0" name="bottom"/>
  <anchor x="338" y="700" name="top"/>
  <outline>
    <contour>
      <point x="186" y="16" type="curve" smooth="yes"/>
      <point x="520" y="-165" type="line" smooth="yes"/>
      <point x="557" y="-185"/>
      <point x="584" y="-134"/>
      <point x="541" y="-116" type="curve" smooth="yes"/>
      <point x="313" y="-19" type="line" smooth="yes"/>
      <point x="294" y="-11"/>
      <point x="296" y="7"/>
      <point x="316" y="9" type="curve" smooth="yes"/>
      <point x="488" y="22"/>
      <point x="608" y="162"/>
      <point x="608" y="361" type="curve" smooth="yes"/>
      <point x="608" y="596"/>
      <point x="504" y="718"/>
      <point x="344" y="718" type="curve" smooth="yes"/>
      <point x="163" y="718"/>
      <point x="39" y="578"/>
      <point x="39" y="289" type="curve" smooth="yes"/>
      <point x="39" y="149"/>
      <point x="108" y="58"/>
    </contour>
    <contour>
      <point x="280" y="32" type="curve" smooth="yes"/>
      <point x="138" y="32"/>
      <point x="65" y="145"/>
      <point x="66" y="280" type="curve" smooth="yes"/>
      <point x="67" y="461"/>
      <point x="256" y="629"/>
      <point x="408" y="629" type="curve" smooth="yes"/>
      <point x="524" y="629"/>
      <point x="586" y="533"/>
      <point x="582" y="353" type="curve" smooth="yes"/>
      <point x="578" y="151"/>
      <point x="449" y="32"/>
    </contour>
    <contour>
      <point x="154" y="547" type="curve" smooth="yes"/>
      <point x="142" y="547"/>
      <point x="131" y="558"/>
      <point x="131" y="570" type="curve" smooth="yes"/>
      <point x="131" y="582"/>
      <point x="142" y="593"/>
      <point x="154" y="593" type="curve" smooth="yes"/>
      <point x="166" y="593"/>
      <point x="176" y="582"/>
      <point x="176" y="570" type="curve" smooth="yes"/>
      <point x="176" y="558"/>
      <point x="166" y="547"/>
    </contour>
    <contour>
      <point x="212" y="593" type="curve" smooth="yes"/>
      <point x="195" y="593"/>
      <point x="183" y="607"/>
      <point x="183" y="622" type="curve" smooth="yes"/>
      <point x="183" y="638"/>
      <point x="195" y="651"/>
      <point x="212" y="651" type="curve" smooth="yes"/>
      <point x="228" y="651"/>
      <point x="241" y="638"/>
      <point x="241" y="622" type="curve" smooth="yes"/>
      <point x="241" y="607"/>
      <point x="228" y="593"/>
    </contour>
    <contour>
      <point x="282" y="631" type="curve" smooth="yes"/>
      <point x="268" y="631"/>
      <point x="258" y="641"/>
      <point x="258" y="655" type="curve" smooth="yes"/>
      <point x="258" y="668"/>
      <point x="268" y="678"/>
      <point x="282" y="678" type="curve" smooth="yes"/>
      <point x="294" y="678"/>
      <point x="305" y="668"/>
      <point x="305" y="655" type="curve" smooth="yes"/>
      <point x="305" y="641"/>
      <point x="294" y="631"/>
    </contour>
    <contour>
      <point x="412" y="61" type="curve" smooth="yes"/>
      <point x="332" y="200" type="line" smooth="yes"/>
      <point x="320" y="221"/>
      <point x="289" y="206"/>
      <point x="302" y="183" type="curve" smooth="yes"/>
      <point x="380" y="45" type="line" smooth="yes"/>
      <point x="391" y="25"/>
      <point x="423" y="41"/>
    </contour>
    <contour>
      <point x="615" y="143" type="curve" smooth="yes"/>
      <point x="440" y="279" type="line" smooth="yes"/>
      <point x="421" y="294"/>
      <point x="402" y="269"/>
      <point x="420" y="254" type="curve" smooth="yes"/>
      <point x="592" y="112" type="line" smooth="yes"/>
      <point x="615" y="93"/>
      <point x="636" y="126"/>
    </contour>
    <contour>
      <point x="615" y="557" type="curve" smooth="yes"/>
      <point x="239" y="369" type="line" smooth="yes"/>
      <point x="216" y="358"/>
      <point x="232" y="329"/>
      <point x="254" y="340" type="curve" smooth="yes"/>
      <point x="628" y="531" type="line" smooth="yes"/>
      <point x="649" y="542"/>
      <point x="636" y="568"/>
    </contour>
    <contour>
      <point x="584" y="364" type="curve" smooth="yes"/>
      <point x="447" y="377" type="line" smooth="yes"/>
      <point x="415" y="380"/>
      <point x="414" y="343"/>
      <point x="445" y="340" type="curve" smooth="yes"/>
      <point x="582" y="328" type="line" smooth="yes"/>
      <point x="606" y="326"/>
      <point x="610" y="362"/>
    </contour>
    <contour>
      <point x="352" y="-221" type="curve" smooth="yes"/>
      <point x="443" y="-36" type="line" smooth="yes"/>
      <point x="451" y="-19"/>
      <point x="431" y="-9"/>
      <point x="422" y="-24" type="curve" smooth="yes"/>
      <point x="317" y="-201" type="line" smooth="yes"/>
      <point x="304" y="-223"/>
      <point x="341" y="-244"/>
    </contour>
    <contour>
      <point x="454" y="-208" type="curve" smooth="yes"/>
      <point x="542" y="6" type="line" smooth="yes"/>
      <point x="549" y="24"/>
      <point x="516" y="36"/>
      <point x="509" y="17" type="curve" smooth="yes"/>
      <point x="425" y="-198" type="line" smooth="yes"/>
      <point x="416" y="-220"/>
      <point x="445" y="-229"/>
    </contour>
  </outline>
</glyph>
<glyph name="R" format="2">
  <advance width="582"/>
  <unicode hex="0052"/>
  <anchor x="298" y="0" name="bottom"/>
  <anchor x="330" y="700" name="top"/>
  <outline>
    <contour>
      <point x="95" y="-28" type="line" smooth="yes"/>
      <point x="96" y="-59"/>
      <point x="139" y="-51"/>
      <point x="137" y="-27" type="curve" smooth="yes"/>
      <point x="111" y="299" type="line" smooth="yes"/>
      <point x="110" y="310"/>
      <point x="113" y="322"/>
      <point x="122" y="322" type="curve" smooth="yes"/>
      <point x="126" y="322" type="line" smooth="yes"/>
      <point x="139" y="322"/>
      <point x="155" y="309"/>
      <point x="163" y="301" type="curve" smooth="yes"/>
      <point x="459" y="16" type="line" smooth="yes"/>
      <point x="500" y="-24"/>
      <point x="573" y="-12"/>
      <point x="573" y="57" type="curve" smooth="yes"/>
      <point x="573" y="88"/>
      <point x="561" y="118"/>
      <point x="528" y="135" type="curve" smooth="yes"/>
      <point x="199" y="305" type="line" smooth="yes"/>
      <point x="179" y="315"/>
      <point x="182" y="321"/>
      <point x="199" y="321" type="curve" smooth="yes"/>
      <point x="248" y="321"/>
      <point x="258" y="321"/>
      <point x="342" y="321" type="curve" smooth="yes"/>
      <point x="467" y="321"/>
      <point x="567" y="383"/>
      <point x="568" y="509" type="curve" smooth="yes"/>
      <point x="569" y="634"/>
      <point x="487" y="716"/>
      <point x="320" y="716" type="curve" smooth="yes"/>
      <point x="320" y="716" type="line" smooth="yes"/>
      <point x="177" y="716"/>
      <point x="65" y="631"/>
      <point x="72" y="485" type="curve" smooth="yes"/>
    </contour>
    <contour>
      <point x="103" y="380" type="curve" smooth="yes"/>
      <point x="99" y="482" type="line" smooth="yes"/>
      <point x="94" y="617"/>
      <point x="197" y="689"/>
      <point x="314" y="689" type="curve" smooth="yes"/>
      <point x="318" y="689" type="line" smooth="yes"/>
      <point x="465" y="689"/>
      <point x="540" y="618"/>
      <point x="540" y="508" type="curve" smooth="yes"/>
      <point x="540" y="412"/>
      <point x="467" y="347"/>
      <point x="345" y="347" type="curve" smooth="yes"/>
      <point x="137" y="347" type="line" smooth="yes"/>
      <point x="111" y="347"/>
      <point x="104" y="354"/>
    </contour>
    <contour>
      <point x="485" y="156" type="line"/>
      <point x="485" y="94" type="line" smooth="yes"/>
      <point x="485" y="68"/>
      <point x="438" y="68"/>
      <point x="441" y="99" type="curve" smooth="yes"/>
      <point x="449" y="173" type="line"/>
    </contour>
    <contour>
      <point x="405" y="193" type="line"/>
      <point x="406" y="155" type="line" smooth="yes"/>
      <point x="407" y="123"/>
      <point x="359" y="138"/>
      <point x="366" y="161" type="curve" smooth="yes"/>
      <point x="380" y="206" type="line"/>
    </contour>
    <contour>
      <point x="497" y="236" type="curve" smooth="yes"/>
      <point x="523" y="236"/>
      <point x="544" y="257"/>
      <point x="544" y="283" type="curve" smooth="yes"/>
      <point x="544" y="309"/>
      <point x="523" y="330"/>
      <point x="497" y="330" type="curve" smooth="yes"/>
      <point x="471" y="330"/>
      <point x="450" y="309"/>
      <point x="450" y="283" type="curve" smooth="yes"/>
      <point x="450" y="257"/>
      <point x="471" y="236"/>
    </contour>
    <contour>
      <point x="199" y="21" type="line" smooth="yes"/>
      <point x="230" y="23"/>
      <point x="222" y="55"/>
      <point x="197" y="53" type="curve" smooth="yes"/>
      <point x="45" y="41" type="line" smooth="yes"/>
      <point x="21" y="39"/>
      <point x="27" y="11"/>
      <point x="48" y="12" type="curve" smooth="yes"/>
    </contour>
    <contour>
      <point x="170" y="118" type="line" smooth="yes"/>
      <point x="199" y="118"/>
      <point x="197" y="142"/>
      <point x="171" y="144" type="curve" smooth="yes"/>
      <point x="55" y="153" type="line" smooth="yes"/>
      <point x="28" y="155"/>
      <point x="28" y="118"/>
      <point x="52" y="118" type="curve" smooth="yes"/>
    </contour>
  </outline>
</glyph>
<glyph name="S" format="2">
  <advance width="461"/>
  <unicode hex="0053"/>
  <anchor x="219" y="-20" name="bottom"/>
  <anchor x="190" y="0" name="cedilla"/>
  <anchor x="237" y="710" name="top"/>
  <outline>
    <contour>
      <point x="218" y="-11" type="curve" smooth="yes"/>
      <point x="352" y="-11"/>
      <point x="431" y="60"/>
      <point x="431" y="164" type="curve" smooth="yes"/>
      <point x="431" y="265"/>
      <point x="364" y="328"/>
      <point x="261" y="370" type="curve" smooth="yes"/>
      <point x="184" y="401" type="line" smooth="yes"/>
      <point x="117" y="428"/>
      <point x="65" y="466"/>
      <point x="65" y="539" type="curve" smooth="yes"/>
      <point x="65" y="644"/>
      <point x="152" y="696"/>
      <point x="253" y="696" type="curve" smooth="yes"/>
      <point x="299" y="696"/>
      <point x="333" y="679"/>
      <point x="353" y="679" type="curve" smooth="yes"/>
      <point x="361" y="679"/>
      <point x="365" y="683"/>
      <point x="365" y="690" type="curve" smooth="yes"/>
      <point x="365" y="703"/>
      <point x="312" y="721"/>
      <point x="251" y="721" type="curve" smooth="yes"/>
      <point x="132" y="721"/>
      <point x="39" y="659"/>
      <point x="39" y="531" type="curve" smooth="yes"/>
      <point x="39" y="454"/>
      <point x="87" y="409"/>
      <point x="143" y="372" type="curve" smooth="yes"/>
      <point x="207" y="329" type="line" smooth="yes"/>
      <point x="305" y="263"/>
      <point x="326" y="195"/>
      <point x="326" y="142" type="curve" smooth="yes"/>
      <point x="326" y="54"/>
      <point x="272" y="13"/>
      <point x="208" y="13" type="curve" smooth="yes"/>
      <point x="110" y="13"/>
      <point x="73" y="65"/>
      <point x="49" y="65" type="curve" smooth="yes"/>
      <point x="38" y="65"/>
      <point x="33" y="54"/>
      <point x="41" y="47" type="curve" smooth="yes"/>
      <point x="64" y="26"/>
      <point x="136" y="-11"/>
    </contour>
    <contour>
      <point x="378" y="106" type="curve" smooth="yes"/>
      <point x="363" y="106"/>
      <point x="353" y="116"/>
      <point x="353" y="130" type="curve" smooth="yes"/>
      <point x="353" y="145"/>
      <point x="363" y="154"/>
      <point x="378" y="154" type="curve" smooth="yes"/>
      <point x="392" y="154"/>
      <point x="402" y="145"/>
      <point x="402" y="130" type="curve" smooth="yes"/>
      <point x="402" y="116"/>
      <point x="392" y="106"/>
    </contour>
    <contour>
      <point x="370" y="181" type="curve" smooth="yes"/>
      <point x="353" y="181"/>
      <point x="342" y="192"/>
      <point x="342" y="209" type="curve" smooth="yes"/>
      <point x="342" y="224"/>
      <point x="353" y="236"/>
      <point x="370" y="236" type="curve" smooth="yes"/>
      <point x="386" y="236"/>
      <point x="397" y="224"/>
      <point x="397" y="209" type="curve" smooth="yes"/>
      <point x="397" y="192"/>
      <point x="386" y="181"/>
    </contour>
    <contour>
      <point x="332" y="251" type="curve" smooth="yes"/>
      <point x="320" y="251"/>
      <point x="310" y="261"/>
      <point x="310" y="275" type="curve" smooth="yes"/>
      <point x="310" y="287"/>
      <point x="320" y="296"/>
      <point x="332" y="296" type="curve" smooth="yes"/>
      <point x="346" y="296"/>
      <point x="355" y="287"/>
      <point x="355" y="275" type="curve" smooth="yes"/>
      <point x="355" y="261"/>
      <point x="346" y="251"/>
    </contour>
    <contour>
      <point x="236" y="506" type="curve" smooth="yes"/>
      <point x="259" y="506"/>
      <point x="276" y="524"/>
      <point x="276" y="546" type="curve" smooth="yes"/>
      <point x="276" y="570"/>
      <point x="259" y="588"/>
      <point x="236" y="588" type="curve" smooth="yes"/>
      <point x="213" y="588"/>
      <point x="194" y="570"/>
      <point x="194" y="546" type="curve" smooth="yes"/>
      <point x="194" y="524"/>
      <point x="213" y="506"/>
    </contour>
    <contour>
      <point x="140" y="-88" type="curve" smooth="yes"/>
      <point x="165" y="117" type="line" smooth="yes"/>
      <point x="167" y="137"/>
      <point x="141" y="141"/>
      <point x="138" y="122" type="curve" smooth="yes"/>
      <point x="107" y="-83" type="line" smooth="yes"/>
      <point x="103" y="-109"/>
      <point x="137" y="-111"/>
    </contour>
    <contour>
      <point x="288" y="-52" type="curve" smooth="yes"/>
      <point x="246" y="95" type="line" smooth="yes"/>
      <point x="241" y="114"/>
      <point x="214" y="108"/>
      <point x="219" y="88" type="curve" smooth="yes"/>
      <point x="259" y="-61" type="line" smooth="yes"/>
      <point x="266" y="-86"/>
      <point x="294" y="-74"/>
    </contour>
    <contour>
      <point x="183" y="259" type="curve" smooth="yes"/>
      <point x="246" y="342" type="line"/>
      <point x="228" y="357" type="line"/>
      <point x="157" y="279" type="line" smooth="yes"/>
      <point x="139" y="260"/>
      <point x="167" y="237"/>
    </contour>
    <contour>
      <point x="3" y="636" type="curve" smooth="yes"/>
      <point x="125" y="586" type="line" smooth="yes"/>
      <point x="141" y="579"/>
      <point x="149" y="603"/>
      <point x="134" y="610" type="curve" smooth="yes"/>
      <point x="15" y="667" type="line" smooth="yes"/>
      <point x="-7" y="678"/>
      <point x="-20" y="645"/>
    </contour>
    <contour>
      <point x="83" y="725" type="curve" smooth="yes"/>
      <point x="123" y="678" type="line"/>
      <point x="145" y="695" type="line"/>
      <point x="107" y="745" type="line" smooth="yes"/>
      <point x="95" y="761"/>
      <point x="69" y="741"/>
    </contour>
  </outline>
</glyph>
<glyph name="T" format="2">
  <advance width="380"/>
  <unicode hex="0054"/>
  <anchor x="234" y="50" name="bottom"/>
  <anchor x="212" y="40" name="cedilla"/>
  <anchor x="191" y="684" name="top"/>
  <outline>
    <contour>
      <point x="161" y="61" type="line" smooth="yes"/>
      <point x="158" y="-30"/>
      <point x="288" y="-4"/>
      <point x="278" y="74" type="curve" smooth="yes"/>
      <point x="202" y="641" type="line" smooth="yes"/>
      <point x="200" y="659"/>
      <point x="204" y="669"/>
      <point x="221" y="671" type="curve" smooth="yes"/>
      <point x="384" y="694" type="line" smooth="yes"/>
      <point x="391" y="695"/>
      <point x="396" y="699"/>
      <point x="396" y="707" type="curve" smooth="yes"/>
      <point x="396" y="716"/>
      <point x="392" y="721"/>
      <point x="382" y="720" type="curve" smooth="yes"/>
      <point x="29" y="681" type="line" smooth="yes"/>
      <point x="16" y="680"/>
      <point x="9" y="673"/>
      <point x="9" y="657" type="curve" smooth="yes"/>
      <point x="9" y="645"/>
      <point x="18" y="637"/>
      <point x="34" y="640" type="curve" smooth="yes"/>
      <point x="161" y="661" type="line" smooth="yes"/>
      <point x="176" y="663"/>
      <point x="181" y="654"/>
      <point x="181" y="640" type="curve" smooth="yes"/>
    </contour>
    <contour>
      <point x="256" y="237" type="line"/>
      <point x="223" y="231" type="line" smooth="yes"/>
      <point x="197" y="226"/>
      <point x="193" y="263"/>
      <point x="223" y="266" type="curve" smooth="yes"/>
      <point x="252" y="269" type="line"/>
    </contour>
    <contour>
      <point x="165" y="185" type="line"/>
      <point x="210" y="191" type="line" smooth="yes"/>
      <point x="231" y="194"/>
      <point x="236" y="165"/>
      <point x="210" y="158" type="curve" smooth="yes"/>
      <point x="164" y="146" type="line"/>
    </contour>
    <contour>
      <point x="163" y="124" type="line"/>
      <point x="226" y="119" type="line" smooth="yes"/>
      <point x="246" y="117"/>
      <point x="243" y="87"/>
      <point x="223" y="86" type="curve" smooth="yes"/>
      <point x="162" y="84" type="line"/>
    </contour>
    <contour>
      <point x="302" y="561" type="curve" smooth="yes"/>
      <point x="322" y="561"/>
      <point x="339" y="578"/>
      <point x="339" y="598" type="curve" smooth="yes"/>
      <point x="339" y="618"/>
      <point x="322" y="635"/>
      <point x="302" y="635" type="curve" smooth="yes"/>
      <point x="282" y="635"/>
      <point x="265" y="618"/>
      <point x="265" y="598" type="curve" smooth="yes"/>
      <point x="265" y="578"/>
      <point x="282" y="561"/>
    </contour>
    <contour>
      <point x="193" y="530" type="line"/>
      <point x="112" y="522" type="line" smooth="yes"/>
      <point x="85" y="519"/>
      <point x="87" y="487"/>
      <point x="114" y="489" type="curve" smooth="yes"/>
      <point x="198" y="494" type="line"/>
    </contour>
    <contour>
      <point x="191" y="447" type="line"/>
      <point x="127" y="448" type="line" smooth="yes"/>
      <point x="104" y="448"/>
      <point x="104" y="418"/>
      <point x="127" y="415" type="curve" smooth="yes"/>
      <point x="194" y="407" type="line"/>
    </contour>
  </outline>
</glyph>
<glyph name="U" format="2">
  <advance width="557"/>
  <unicode hex="0055"/>
  <anchor x="359" y="0" name="ogonek"/>
  <anchor x="316" y="665" name="top"/>
  <outline>
    <contour>
      <point x="280" y="3" type="curve" smooth="yes"/>
      <point x="433" y="3"/>
      <point x="488" y="101"/>
      <point x="500" y="243" type="curve" smooth="yes"/>
      <point x="530" y="599" type="line" smooth="yes"/>
      <point x="537" y="679"/>
      <point x="393" y="690"/>
      <point x="402" y="598" type="curve" smooth="yes"/>
      <point x="442" y="210" type="line" smooth="yes"/>
      <point x="454" y="92"/>
      <point x="391" y="28"/>
      <point x="287" y="28" type="curve" smooth="yes"/>
      <point x="173" y="28"/>
      <point x="109" y="113"/>
      <point x="118" y="246" type="curve" smooth="yes"/>
      <point x="147" y="689" type="line" smooth="yes"/>
      <point x="149" y="712"/>
      <point x="126" y="717"/>
      <point x="124" y="693" type="curve" smooth="yes"/>
      <point x="81" y="244" type="line" smooth="yes"/>
      <point x="65" y="72"/>
      <point x="148" y="3"/>
    </contour>
    <contour>
      <point x="407" y="552" type="line"/>
      <point x="460" y="560" type="line" smooth="yes"/>
      <point x="490" y="565"/>
      <point x="491" y="531"/>
      <point x="465" y="525" type="curve" smooth="yes"/>
      <point x="411" y="513" type="line"/>
    </contour>
    <contour>
      <point x="414" y="485" type="line"/>
      <point x="460" y="489" type="line" smooth="yes"/>
      <point x="490" y="492"/>
      <point x="488" y="451"/>
      <point x="463" y="451" type="curve" smooth="yes"/>
      <point x="417" y="451" type="line"/>
    </contour>
    <contour>
      <point x="514" y="409" type="line"/>
      <point x="511" y="373" type="line"/>
      <point x="472" y="369" type="line" smooth="yes"/>
      <point x="445" y="366"/>
      <point x="446" y="400"/>
      <point x="470" y="403" type="curve" smooth="yes"/>
    </contour>
    <contour>
      <point x="294" y="199" type="curve" smooth="yes"/>
      <point x="319" y="199"/>
      <point x="339" y="219"/>
      <point x="339" y="245" type="curve" smooth="yes"/>
      <point x="339" y="270"/>
      <point x="319" y="290"/>
      <point x="294" y="290" type="curve" smooth="yes"/>
      <point x="268" y="290"/>
      <point x="248" y="270"/>
      <point x="248" y="245" type="curve" smooth="yes"/>
      <point x="248" y="219"/>
      <point x="268" y="199"/>
    </contour>
    <contour>
      <point x="258" y="599" type="curve" smooth="yes"/>
      <point x="35" y="589" type="line" smooth="yes"/>
      <point x="11" y="588"/>
      <point x="10" y="551"/>
      <point x="36" y="553" type="curve" smooth="yes"/>
      <point x="260" y="569" type="line" smooth="yes"/>
      <point x="285" y="571"/>
      <point x="280" y="600"/>
    </contour>
    <contour>
      <point x="252" y="485" type="curve" smooth="yes"/>
      <point x="125" y="490" type="line"/>
      <point x="123" y="461" type="line"/>
      <point x="247" y="452" type="line" smooth="yes"/>
      <point x="277" y="450"/>
      <point x="279" y="484"/>
    </contour>
    <contour>
      <point x="209" y="382" type="curve" smooth="yes"/>
      <point x="51" y="373" type="line" smooth="yes"/>
      <point x="27" y="372"/>
      <point x="28" y="339"/>
      <point x="54" y="341" type="curve" smooth="yes"/>
      <point x="206" y="352" type="line" smooth="yes"/>
      <point x="231" y="354"/>
      <point x="231" y="383"/>
    </contour>
    <contour>
      <point x="437" y="-31" type="curve" smooth="yes"/>
      <point x="356" y="123" type="line" smooth="yes"/>
      <point x="346" y="141"/>
      <point x="319" y="128"/>
      <point x="331" y="106" type="curve" smooth="yes"/>
      <point x="412" y="-43" type="line" smooth="yes"/>
      <point x="425" y="-66"/>
      <point x="448" y="-51"/>
    </contour>
  </outline>
</glyph>
<glyph name="V" format="2">
  <advance width="558"/>
  <unicode hex="0056"/>
  <anchor x="285" y="0" name="bottom"/>
  <anchor x="327" y="700" name="top"/>
  <outline>
    <contour>
      <point x="4" y="627" type="curve" smooth="yes"/>
      <point x="202" y="46" type="line" smooth="yes"/>
      <point x="217" y="2"/>
      <point x="240" y="-21"/>
      <point x="281" y="-21" type="curve" smooth="yes"/>
      <point x="318" y="-21"/>
      <point x="339" y="-8"/>
      <point x="353" y="37" type="curve" smooth="yes"/>
      <point x="550" y="678" type="line" smooth="yes"/>
      <point x="558" y="704"/>
      <point x="533" y="714"/>
      <point x="525" y="687" type="curve" smooth="yes"/>
      <point x="330" y="45" type="line" smooth="yes"/>
      <point x="321" y="15"/>
      <point x="305" y="4"/>
      <point x="282" y="4" type="curve" smooth="yes"/>
      <point x="262" y="4"/>
      <point x="249" y="17"/>
      <point x="243" y="47" type="curve" smooth="yes"/>
      <point x="126" y="659" type="line" smooth="yes"/>
      <point x="110" y="740"/>
      <point x="-27" y="717"/>
    </contour>
    <contour>
      <point x="20" y="580" type="line"/>
      <point x="83" y="603" type="line" smooth="yes"/>
      <point x="106" y="611"/>
      <point x="113" y="582"/>
      <point x="93" y="570" type="curve" smooth="yes"/>
      <point x="35" y="536" type="line"/>
    </contour>
    <contour>
      <point x="46" y="504" type="line"/>
      <point x="95" y="520" type="line" smooth="yes"/>
      <point x="113" y="526"/>
      <point x="122" y="498"/>
      <point x="100" y="489" type="curve" smooth="yes"/>
      <point x="57" y="471" type="line"/>
    </contour>
    <contour>
      <point x="69" y="436" type="line"/>
      <point x="108" y="440" type="line" smooth="yes"/>
      <point x="132" y="442"/>
      <point x="136" y="415"/>
      <point x="114" y="408" type="curve" smooth="yes"/>
      <point x="82" y="398" type="line"/>
    </contour>
    <contour>
      <point x="328" y="451" type="curve" smooth="yes"/>
      <point x="355" y="451"/>
      <point x="376" y="472"/>
      <point x="376" y="499" type="curve" smooth="yes"/>
      <point x="376" y="526"/>
      <point x="355" y="547"/>
      <point x="328" y="547" type="curve" smooth="yes"/>
      <point x="301" y="547"/>
      <point x="280" y="526"/>
      <point x="280" y="499" type="curve" smooth="yes"/>
      <point x="280" y="472"/>
      <point x="301" y="451"/>
    </contour>
    <contour>
      <point x="521" y="629" type="line"/>
      <point x="351" y="655" type="line" smooth="yes"/>
      <point x="327" y="659"/>
      <point x="323" y="628"/>
      <point x="345" y="624" type="curve" smooth="yes"/>
      <point x="510" y="596" type="line"/>
    </contour>
    <contour>
      <point x="554" y="505" type="curve" smooth="yes"/>
      <point x="483" y="516" type="line"/>
      <point x="471" y="477" type="line"/>
      <point x="547" y="472" type="line" smooth="yes"/>
      <point x="570" y="470"/>
      <point x="573" y="502"/>
    </contour>
    <contour>
      <point x="521" y="419" type="curve" smooth="yes"/>
      <point x="461" y="435" type="line"/>
      <point x="449" y="405" type="line"/>
      <point x="510" y="386" type="line" smooth="yes"/>
      <point x="532" y="379"/>
      <point x="540" y="414"/>
    </contour>
    <contour>
      <point x="528" y="335" type="curve" smooth="yes"/>
      <point x="327" y="325" type="line" smooth="yes"/>
      <point x="303" y="324"/>
      <point x="306" y="288"/>
      <point x="328" y="290" type="curve" smooth="yes"/>
      <point x="527" y="304" type="line" smooth="yes"/>
      <point x="550" y="306"/>
      <point x="548" y="336"/>
    </contour>
    <contour>
      <point x="483" y="186" type="curve" smooth="yes"/>
      <point x="320" y="229" type="line" smooth="yes"/>
      <point x="297" y="235"/>
      <point x="286" y="205"/>
      <point x="309" y="198" type="curve" smooth="yes"/>
      <point x="472" y="150" type="line" smooth="yes"/>
      <point x="495" y="143"/>
      <point x="503" y="181"/>
    </contour>
    <contour>
      <point x="430" y="87" type="curve" smooth="yes"/>
      <point x="369" y="108" type="line"/>
      <point x="356" y="68" type="line"/>
      <point x="421" y="53" type="line" smooth="yes"/>
      <point x="444" y="48"/>
      <point x="450" y="80"/>
    </contour>
  </outline>
</glyph>
